<svg width="59" height="59" viewBox="0 0 59 59" fill="none" xmlns="http://www.w3.org/2000/svg">
<g clip-path="url(#clip0)">
<path d="M59.0873 29.5879C59.0919 33.3775 58.3643 37.1324 56.9446 40.646L56.935 40.6687C55.9808 43.0215 54.7254 45.2406 53.2004 47.2704C52.9059 47.6632 52.6025 48.0478 52.29 48.4243C52.1757 48.5622 52.0596 48.6992 51.9409 48.8345C51.3434 49.5286 50.7144 50.1934 50.054 50.8288C49.9004 50.9771 49.745 51.1226 49.5879 51.2652L49.4779 51.3664C48.7091 52.069 47.9036 52.7303 47.0647 53.3476C46.502 53.7636 45.9243 54.159 45.3314 54.5337C45.201 54.6169 45.0701 54.6984 44.9386 54.7781C44.7099 54.9177 44.4792 55.0542 44.2465 55.1874C43.9428 55.362 43.6353 55.531 43.324 55.6945C43.1983 55.7617 43.0717 55.8263 42.9452 55.8909C42.7601 55.986 42.5742 56.0777 42.3866 56.1676L42.2897 56.2138C42.1675 56.2732 42.0436 56.3308 41.9197 56.3884C40.3055 57.1327 38.6269 57.7283 36.9047 58.168L36.8767 58.175C36.7641 58.2038 36.6507 58.2317 36.5372 58.2622C36.4499 58.2832 36.3627 58.3033 36.2815 58.3225C36.271 58.326 36.2602 58.3286 36.2492 58.3303C36.0746 58.3713 35.9001 58.4106 35.7212 58.4464L35.4227 58.5084C35.3625 58.5215 35.3014 58.5328 35.2411 58.5441L35.0142 58.5878C34.9723 58.5965 34.9269 58.6035 34.8877 58.6105L34.6005 58.662C34.4382 58.6899 34.2741 58.717 34.1109 58.7414C33.9922 58.7597 33.8744 58.7772 33.7557 58.7938C33.616 58.8138 33.4764 58.8322 33.3359 58.8496C33.2975 58.8557 33.2591 58.8601 33.2206 58.8645L33.0714 58.8828C32.971 58.895 32.8707 58.9063 32.7694 58.9168L32.6132 58.9334L32.3147 58.9622C32.1864 58.9744 32.0581 58.9849 31.9289 58.9954C31.7718 59.0076 31.6156 59.0189 31.4576 59.0285L31.153 59.046C30.8912 59.06 30.6294 59.0696 30.3675 59.0765C30.2375 59.0765 30.1057 59.0827 29.9757 59.0844C29.8456 59.0844 29.7138 59.0844 29.5838 59.0844C28.2571 59.0863 26.9319 58.9988 25.617 58.8226C24.6528 58.6934 23.7038 58.5188 22.77 58.2989L22.6583 58.2718C22.564 58.25 22.4706 58.2265 22.3772 58.2029L22.1293 58.1383C19.9938 57.5815 17.9282 56.7848 15.9719 55.7635L15.9422 55.7478C15.8855 55.7181 15.8296 55.6893 15.7738 55.6605C15.651 55.5959 15.5285 55.5301 15.4063 55.4632C14.7127 55.0815 14.0366 54.6742 13.378 54.2413C13.2087 54.1308 13.0411 54.0182 12.8753 53.9036L12.7173 53.7936L12.5523 53.6766C12.408 53.5742 12.2649 53.471 12.1229 53.3668C11.5341 52.9339 10.9624 52.4798 10.4079 52.0044C8.44341 50.3224 6.70754 48.3906 5.24453 46.258C4.73366 45.5144 4.25712 44.7469 3.81491 43.9556C1.36219 39.5647 0.0786182 34.6174 0.0872626 29.5879C0.0872626 13.2957 13.2951 0.0878906 29.5873 0.0878906C45.8795 0.0878906 59.0873 13.2957 59.0873 29.5879Z" fill="#EEEFEA"/>
<path opacity="0.2" d="M34.3309 47.3107C34.4251 47.295 34.5185 47.2776 34.6119 47.2601C34.7053 47.2427 34.7769 47.2296 34.8598 47.213C34.8598 47.0864 34.8702 46.9468 34.8764 46.7958C34.9279 45.6132 35.0509 43.7088 35.3354 41.4151C35.3511 41.2923 35.3669 41.1684 35.3826 41.0433C35.4847 40.2665 35.6043 39.4487 35.7474 38.5995C35.7518 38.5716 35.757 38.5436 35.7614 38.5122C35.8774 37.8253 36.0092 37.1201 36.1576 36.401C36.2618 35.8982 36.374 35.39 36.4945 34.8762L36.5207 34.7689C36.5556 34.6205 36.5914 34.4718 36.628 34.3229C36.7299 33.9086 36.8384 33.4923 36.9536 33.0739C37.3566 31.5872 37.8418 30.1239 38.4068 28.6908C38.9991 27.1772 39.7151 25.715 40.5477 24.3191C41.2224 23.1885 42.0039 22.1253 42.8815 21.1439L42.9208 21.1002C44.0505 19.8365 45.389 18.7763 46.8779 17.9661L46.5672 17.6562C45.0922 18.4551 43.7584 19.4906 42.6188 20.7215L42.6013 20.7398C41.7216 21.6875 40.9348 22.7175 40.2518 23.8155C39.3781 25.221 38.6282 26.6999 38.0105 28.2352C37.4091 29.7245 36.8947 31.2474 36.4701 32.7964C36.31 33.3736 36.1576 33.9645 36.0127 34.569L35.9394 34.8797C35.9393 34.8812 35.9393 34.8826 35.9394 34.8841C35.9019 35.0429 35.8661 35.2026 35.8294 35.3641C35.7387 35.7714 35.6531 36.174 35.5728 36.572C35.4489 37.1871 35.3369 37.7919 35.2368 38.3865C35.2037 38.5832 35.1716 38.7781 35.1408 38.9713C35.0972 39.2436 35.0535 39.5133 35.0169 39.7786C34.9622 40.1481 34.9119 40.5097 34.8659 40.8635L34.8528 40.9613L34.8318 41.1288C34.4749 43.9243 34.3658 46.1787 34.3309 47.3107Z" fill="black"/>
<path opacity="0.2" d="M18.3092 28.3348L18.3389 28.3191C18.5187 28.2257 18.6967 28.1306 18.8748 28.0328C18.9332 27.3346 19.0118 26.5709 19.1148 25.7636C19.1366 25.5977 19.1584 25.4293 19.1829 25.26C19.1951 25.1727 19.2082 25.0776 19.2213 24.9851C19.3242 24.2764 19.4464 23.545 19.5931 22.8101C20.1892 19.8112 21.1789 16.746 22.8224 14.8538C22.9096 14.7517 22.9969 14.6539 23.0938 14.5588C23.3251 14.3182 23.5765 14.0977 23.8453 13.8999L23.5345 13.4766C23.1596 13.7541 22.8145 14.0697 22.5047 14.4183C22.3959 14.5399 22.2894 14.6662 22.1852 14.7971C20.6727 16.7006 19.7283 19.5188 19.1401 22.3091C18.9865 23.037 18.8573 23.764 18.7473 24.4719C18.7194 24.6569 18.6932 24.8402 18.667 25.0217C18.4969 26.2235 18.3843 27.3564 18.3092 28.3348Z" fill="black"/>
<path opacity="0.2" d="M49.8131 18.0727C51.2635 18.0727 52.4393 16.8969 52.4393 15.4465C52.4393 13.9961 51.2635 12.8203 49.8131 12.8203C48.3627 12.8203 47.1869 13.9961 47.1869 15.4465C47.1869 16.8969 48.3627 18.0727 49.8131 18.0727Z" fill="black"/>
<path opacity="0.2" d="M26.255 13.2504C27.7055 13.2504 28.8812 12.0747 28.8812 10.6242C28.8812 9.17384 27.7055 7.99805 26.255 7.99805C24.8046 7.99805 23.6288 9.17384 23.6288 10.6242C23.6288 12.0747 24.8046 13.2504 26.255 13.2504Z" fill="black"/>
<path opacity="0.2" d="M39.3877 19.8571C39.9445 22.9991 38.7148 25.8435 38.7148 25.8435C38.7148 25.8435 36.5826 23.5952 36.0257 20.4532C35.4689 17.3112 36.6987 14.4668 36.6987 14.4668C36.6987 14.4668 38.8309 16.7151 39.3877 19.8571Z" fill="black"/>
<path opacity="0.2" d="M47.4601 23.3291C44.4629 24.4253 41.4518 23.7218 41.4518 23.7218C41.4518 23.7218 43.2995 21.2422 46.2958 20.1434C49.292 19.0446 52.304 19.7507 52.304 19.7507C52.304 19.7507 50.4563 22.2337 47.4601 23.3291Z" fill="black"/>
<path opacity="0.2" d="M25.9111 19.9058C23.8103 20.6739 21.6965 20.1729 21.6965 20.1729C21.6965 20.1729 22.9891 18.4274 25.089 17.6584C27.1889 16.8895 29.3036 17.3914 29.3036 17.3914C29.3036 17.3914 28.011 19.1378 25.9111 19.9058Z" fill="black"/>
<path d="M13.7428 26.5265C14.4205 26.5265 14.9699 25.9771 14.9699 25.2994C14.9699 24.6217 14.4205 24.0723 13.7428 24.0723C13.0651 24.0723 12.5157 24.6217 12.5157 25.2994C12.5157 25.9771 13.0651 26.5265 13.7428 26.5265Z" fill="#595959"/>
<path opacity="0.2" d="M14.2604 24.1875C14.4849 24.3823 14.6308 24.6522 14.6706 24.9467C14.7105 25.2412 14.6416 25.5402 14.4769 25.7876C14.3122 26.0351 14.063 26.214 13.7759 26.2909C13.4888 26.3677 13.1835 26.3374 12.9172 26.2054C13.1574 26.4244 13.4749 26.5389 13.7996 26.5239C14.1243 26.5088 14.4298 26.3654 14.6488 26.1251C14.8678 25.8848 14.9823 25.5674 14.9673 25.2426C14.9522 24.9179 14.8088 24.6125 14.5685 24.3935C14.477 24.3094 14.3731 24.2399 14.2604 24.1875Z" fill="black"/>
<path d="M45.2799 27.8566C46.9453 27.8566 48.2953 27.3072 48.2953 26.6295C48.2953 25.9517 46.9453 25.4023 45.2799 25.4023C43.6145 25.4023 42.2644 25.9517 42.2644 26.6295C42.2644 27.3072 43.6145 27.8566 45.2799 27.8566Z" fill="#595959"/>
<path opacity="0.2" d="M45.2799 25.3984C45.1769 25.3984 45.0739 25.3984 44.9735 25.4054C46.4948 25.4674 47.6791 25.9902 47.6791 26.6273C47.6791 27.2644 46.4913 27.7855 44.9735 27.8492C45.0739 27.8536 45.1769 27.8553 45.2799 27.8553C46.946 27.8553 48.2962 27.3063 48.2962 26.6334C48.2962 25.9605 46.946 25.3984 45.2799 25.3984Z" fill="black"/>
<path d="M49.2162 26.6284H34.0865V24.9928C34.0863 24.9114 34.0538 24.8333 33.9963 24.7758C33.9387 24.7182 33.8607 24.6858 33.7793 24.6855H25.398C25.3166 24.6858 25.2386 24.7182 25.181 24.7758C25.1234 24.8333 25.091 24.9114 25.0908 24.9928V26.6284H16.2984V25.6063C16.2984 25.525 16.2661 25.447 16.2087 25.3894C16.1513 25.3318 16.0733 25.2993 15.992 25.2991H11.4937C11.4124 25.2993 11.3344 25.3318 11.277 25.3894C11.2196 25.447 11.1873 25.525 11.1873 25.6063V26.6284H9.96022C9.87912 26.6284 9.80133 26.6605 9.7439 26.7178C9.68648 26.775 9.6541 26.8527 9.65387 26.9338V47.0741C9.65387 47.1552 9.68602 47.233 9.74329 47.2904C9.80055 47.3478 9.87825 47.3802 9.95934 47.3805H49.2162C49.2973 47.3805 49.3751 47.3483 49.4325 47.291C49.4899 47.2338 49.5223 47.1561 49.5225 47.075V26.9347C49.5225 26.8536 49.4904 26.7758 49.4331 26.7184C49.3758 26.661 49.2981 26.6286 49.217 26.6284H49.2162Z" fill="#8F8F8F"/>
<path opacity="0.2" d="M49.2144 45.8777H9.95845C9.87735 45.8777 9.79956 45.8456 9.74213 45.7883C9.68471 45.7311 9.65233 45.6534 9.6521 45.5723V47.0036C9.6521 47.0847 9.68426 47.1625 9.74152 47.2199C9.79878 47.2774 9.87648 47.3097 9.95757 47.31H49.2144C49.2955 47.31 49.3733 47.2778 49.4307 47.2206C49.4881 47.1633 49.5205 47.0856 49.5207 47.0045V45.5731C49.5207 45.6542 49.4886 45.732 49.4313 45.7895C49.3741 45.8469 49.2964 45.8793 49.2153 45.8795L49.2144 45.8777Z" fill="black"/>
<path opacity="0.2" d="M49.5225 36.0332H9.65387V39.918H49.5225V36.0332Z" fill="black"/>
<path opacity="0.2" d="M49.5225 34.0918H9.65387V37.9765H49.5225V34.0918Z" fill="black"/>
<path d="M49.5225 35.0117H9.65387V38.8965H49.5225V35.0117Z" fill="white"/>
<path d="M29.5882 44.7226C33.8791 44.7226 37.3577 41.2441 37.3577 36.9531C37.3577 32.6621 33.8791 29.1836 29.5882 29.1836C25.2972 29.1836 21.8187 32.6621 21.8187 36.9531C21.8187 41.2441 25.2972 44.7226 29.5882 44.7226Z" fill="#E6AD0A"/>
<path opacity="0.2" d="M35.5728 31.998C36.5663 33.682 36.8881 35.6788 36.4741 37.5896C36.0601 39.5005 34.9408 41.1849 33.3394 42.3068C31.7381 43.4286 29.7726 43.9053 27.8352 43.6417C25.8979 43.3781 24.1312 42.3936 22.8878 40.8847C23.4321 41.8073 24.1613 42.6073 25.0296 43.2346C25.8979 43.8618 26.8865 44.3027 27.9334 44.5295C28.9803 44.7563 30.0628 44.7641 31.1128 44.5525C32.1628 44.3409 33.1578 43.9144 34.0351 43.2998C34.9124 42.6852 35.6531 41.8958 36.2106 40.9812C36.7682 40.0666 37.1306 39.0465 37.275 37.9851C37.4194 36.9237 37.3427 35.844 37.0498 34.8136C36.7569 33.7833 36.254 32.8247 35.5728 31.998Z" fill="black"/>
<path d="M29.5881 42.7362C32.7815 42.7362 35.3703 40.1475 35.3703 36.9541C35.3703 33.7606 32.7815 31.1719 29.5881 31.1719C26.3947 31.1719 23.806 33.7606 23.806 36.9541C23.806 40.1475 26.3947 42.7362 29.5881 42.7362Z" fill="#595959"/>
<path d="M34.0865 36.9532C34.0873 37.5637 33.9628 38.1679 33.7208 38.7284C33.5918 39.0312 33.4291 39.3184 33.2355 39.5846C32.8544 40.1128 32.3631 40.5519 31.7956 40.8715C31.228 41.1911 30.5979 41.3837 29.9486 41.4358C29.2994 41.488 28.6465 41.3985 28.0353 41.1735C27.424 40.9486 26.8689 40.5936 26.4083 40.133C25.9478 39.6724 25.5927 39.1173 25.3678 38.5061C25.1428 37.8948 25.0534 37.242 25.1055 36.5927C25.1577 35.9435 25.3502 35.3133 25.6698 34.7458C25.9895 34.1783 26.4286 33.6869 26.9567 33.3058C27.2229 33.1125 27.5098 32.9494 27.8121 32.8197C28.4964 32.526 29.2429 32.4068 29.9847 32.4727C30.7264 32.5386 31.4402 32.7876 32.0621 33.1972C32.6839 33.6069 33.1944 34.1645 33.5477 34.82C33.901 35.4755 34.0862 36.2085 34.0865 36.9532Z" fill="white"/>
<path opacity="0.2" d="M34.0385 36.298C33.87 35.1544 33.2677 34.1196 32.3566 33.4082C32.7517 34.0267 32.9894 34.7324 33.0491 35.4639C33.1087 36.1953 32.9884 36.9302 32.6988 37.6045C32.5695 37.9069 32.4067 38.1938 32.2135 38.4599C31.5164 39.427 30.4636 40.0776 29.2868 40.2686C28.11 40.4596 26.9055 40.1754 25.9382 39.4784C25.8902 39.4435 25.8431 39.4086 25.7968 39.3719C26.1911 39.9912 26.7312 40.5045 27.3697 40.8669C28.0082 41.2293 28.7258 41.4298 29.4597 41.4508C30.1936 41.4718 30.9215 41.3127 31.5797 40.9874C32.2379 40.6622 32.8064 40.1806 33.2355 39.5849C33.4291 39.3187 33.5918 39.0315 33.7208 38.7287C34.0499 37.9635 34.1598 37.122 34.0385 36.298Z" fill="black"/>
</g>
<defs>
<clipPath id="clip0">
<rect width="59" height="59" fill="white"/>
</clipPath>
</defs>
</svg>
