<svg width="395" height="285" viewBox="0 0 395 285" fill="none" xmlns="http://www.w3.org/2000/svg">
<g clip-path="url(#clip0)">
<path d="M58.5588 202.026C58.2695 201.584 57.8952 201.204 57.4577 200.908C57.0202 200.611 56.5282 200.404 56.0101 200.299C55.4919 200.193 54.958 200.192 54.4391 200.293C53.9203 200.395 53.4268 200.599 52.9873 200.892C52.7883 201.02 52.6021 201.167 52.4314 201.331L39.7285 194.781L40.5284 202.149L52.4674 207.235C53.1953 207.906 54.1452 208.288 55.1365 208.307C56.1278 208.325 57.0915 207.98 57.8444 207.336C58.5972 206.692 59.0867 205.795 59.2199 204.814C59.3531 203.834 59.1207 202.838 58.5668 202.018L58.5588 202.026Z" fill="#A0616A"/>
<path d="M47.2717 204.996C47.0407 205.099 46.7906 205.152 46.5377 205.152C46.2849 205.152 46.0348 205.099 45.8038 204.996L33.7409 199.788C29.6153 198.003 26.2804 194.783 24.3578 190.727L17.9983 177.368C17.0886 176.154 16.6922 174.632 16.8944 173.13C17.0967 171.628 17.8814 170.265 19.0799 169.334C20.2785 168.403 21.7952 167.978 23.3041 168.151C24.813 168.324 26.1937 169.081 27.1495 170.259L38.2965 190.903L48.5916 198.662C48.8861 198.885 49.105 199.193 49.2187 199.544C49.3324 199.895 49.3355 200.273 49.2275 200.626L48.2156 203.883C48.1066 204.231 47.8947 204.539 47.6076 204.765C47.5046 204.854 47.3919 204.932 47.2717 204.996Z" fill="#CCCCCC"/>
<path d="M17.7342 161.657C23.1594 161.657 27.5573 157.268 27.5573 151.854C27.5573 146.44 23.1594 142.051 17.7342 142.051C12.3091 142.051 7.91113 146.44 7.91113 151.854C7.91113 157.268 12.3091 161.657 17.7342 161.657Z" fill="#A0616A"/>
<path d="M21.7139 280.453H26.6174L28.9492 261.582H21.7139V280.453Z" fill="#A0616A"/>
<path d="M36.0727 284.988H20.6621V279.057H30.1212C31.6983 279.057 33.2109 279.681 34.3267 280.793C35.4426 281.905 36.0706 283.414 36.0727 284.988Z" fill="#1C292E"/>
<path d="M5.71582 280.453H10.6194L12.9512 261.582H5.71582V280.453Z" fill="#A0616A"/>
<path d="M20.0737 284.988H4.66309V279.057H14.1222C15.6993 279.057 17.2118 279.681 18.3277 280.793C19.4436 281.905 20.0716 283.414 20.0737 284.988Z" fill="#1C292E"/>
<path d="M3.99948 275.054C3.82991 274.862 3.70361 274.635 3.6291 274.39C3.55458 274.145 3.53359 273.887 3.56752 273.633L12.1547 209.371L33.4848 212.987L35.7606 211.626L29.8771 272.615C29.8321 273.03 29.6438 273.416 29.3446 273.708C29.0454 273.999 28.6539 274.177 28.2373 274.212L21.7819 274.751C21.5462 274.771 21.3088 274.744 21.0834 274.673C20.858 274.601 20.649 274.486 20.4684 274.334C20.2877 274.181 20.1391 273.995 20.0309 273.785C19.9227 273.575 19.8572 273.346 19.838 273.11C19.832 273.027 19.832 272.942 19.838 272.859L21.5099 243.825C21.5144 243.799 21.5136 243.772 21.5077 243.746C21.5018 243.72 21.4908 243.696 21.4754 243.674C21.4599 243.652 21.4404 243.634 21.4178 243.62C21.3953 243.606 21.3702 243.596 21.3439 243.592C21.3176 243.587 21.2908 243.588 21.2648 243.594C21.2388 243.6 21.2143 243.611 21.1925 243.626C21.1708 243.641 21.1523 243.661 21.1382 243.683C21.124 243.706 21.1144 243.731 21.1099 243.757L12.8427 274.34C12.7377 274.72 12.5108 275.055 12.1965 275.295C11.8823 275.534 11.4981 275.664 11.1028 275.665H5.35536C5.09884 275.665 4.84521 275.611 4.6114 275.505C4.37759 275.4 4.16898 275.246 3.99948 275.054Z" fill="#1C292E"/>
<path d="M18.7745 213.874C18.5291 213.653 18.2143 213.525 17.8843 213.511C17.5543 213.497 17.2298 213.599 16.9667 213.798L12.7031 217.111C12.3269 217.403 11.8498 217.534 11.3767 217.476C10.9035 217.418 10.4729 217.174 10.1793 216.8C10.0388 216.617 9.93304 216.41 9.86735 216.189C7.77954 208.881 3.03997 190.476 4.20787 177.524C4.86781 170.184 11.2192 164.604 18.3666 165.075C23.2541 165.398 26.4658 168.212 27.9217 173.433C31.4894 186.253 35.409 209.755 36.161 214.357C36.2196 214.713 36.1692 215.078 36.0165 215.405C35.8638 215.732 35.6158 216.005 35.305 216.189C33.2872 217.397 30.9826 218.044 28.6296 218.065C25.7819 218.065 22.3702 217.075 18.7745 213.874Z" fill="#CCCCCC"/>
<path d="M20.3981 218.435C20.4414 217.91 20.3805 217.382 20.219 216.88C20.0574 216.378 19.7984 215.913 19.4567 215.511C19.1149 215.109 18.6972 214.779 18.2274 214.538C17.7576 214.297 17.2448 214.151 16.7185 214.109C16.4816 214.089 16.2434 214.089 16.0065 214.109L10.0431 201.145L6.10742 207.431L12.3589 218.783C12.5021 219.773 13.0087 220.675 13.7805 221.313C14.5524 221.951 15.5343 222.281 16.5359 222.238C17.5374 222.195 18.4872 221.782 19.2008 221.079C19.9145 220.376 20.3412 219.434 20.3981 218.435Z" fill="#A0616A"/>
<path d="M9.66728 213.817C9.42183 213.758 9.1915 213.648 8.99107 213.495C8.79063 213.342 8.62452 213.148 8.50338 212.927L2.23995 201.388C0.0984174 197.443 -0.534087 192.855 0.460116 188.48L3.72782 174.063C3.73365 172.528 4.35026 171.058 5.442 169.977C6.53374 168.895 8.01117 168.291 9.54929 168.297C11.0874 168.303 12.5602 168.918 13.6437 170.008C14.7272 171.097 15.3326 172.571 15.3268 174.106L11.3271 197.213L14.6268 209.658C14.7208 210.015 14.7024 210.392 14.5744 210.739C14.4463 211.085 14.2147 211.383 13.9109 211.594L11.1111 213.538C10.9035 213.682 10.6672 213.781 10.4182 213.827C10.1692 213.874 9.91314 213.866 9.66728 213.805V213.817Z" fill="#CCCCCC"/>
<path opacity="0.2" d="M14.5304 183.861L10.9268 199.029L16.1303 211.801L12.5266 199.428L14.5304 183.861Z" fill="black"/>
<path d="M12.1272 159.913C11.2546 159.929 10.3875 159.773 9.57544 159.454C9.21547 159.314 8.8435 159.202 8.48754 159.055C5.33582 157.857 3.26001 154.488 3.18402 151.116C3.10803 147.743 4.85987 144.49 7.45963 142.327C10.0594 140.163 13.4231 139.062 16.7988 138.806C20.4304 138.531 24.5181 139.449 26.5459 142.466C27.0858 143.265 27.4618 144.242 27.1418 145.212C27.0449 145.505 26.8741 145.767 26.6459 145.975C25.742 146.773 24.838 146.174 23.9141 146.118C22.6462 146.047 21.5143 147.072 21.0944 148.274C20.6744 149.475 20.8664 150.796 21.1984 152.022C21.4496 152.759 21.6081 153.525 21.6703 154.301C21.6959 154.69 21.622 155.079 21.4554 155.431C21.2889 155.784 21.0353 156.089 20.7184 156.317C19.9185 156.795 18.8826 156.52 18.0907 156.041C17.2987 155.562 16.6108 154.9 15.7549 154.548C14.899 154.197 13.7551 154.273 13.2471 155.055C13.0876 155.337 12.9792 155.645 12.9271 155.965C12.4832 158.001 12.5832 157.881 12.1272 159.913Z" fill="#1C292E"/>
<path d="M302.904 91.9942H60.1264C59.2017 91.9952 58.3152 92.3623 57.6614 93.0148C57.0075 93.6673 56.6397 94.5519 56.6387 95.4747V259.65C56.6397 260.573 57.0075 261.458 57.6614 262.11C58.3152 262.763 59.2017 263.13 60.1264 263.131H302.904C303.409 263.131 303.907 263.022 304.365 262.811C304.823 262.6 305.229 262.292 305.556 261.909C305.584 261.879 305.609 261.847 305.632 261.813C305.841 261.56 306.009 261.276 306.132 260.971C306.309 260.553 306.399 260.104 306.396 259.65V157.47H305.4V259.65C305.406 260.135 305.266 260.61 305 261.015C304.761 261.372 304.437 261.663 304.056 261.861C303.704 262.044 303.313 262.139 302.916 262.137H60.1384C59.4778 262.136 58.8446 261.873 58.3776 261.407C57.9105 260.941 57.6476 260.309 57.6466 259.65V95.4747C57.6476 94.8155 57.9105 94.1836 58.3776 93.7175C58.8446 93.2514 59.4778 92.9891 60.1384 92.988H302.916C303.244 92.9875 303.568 93.0515 303.871 93.1762C304.174 93.3009 304.449 93.484 304.681 93.715C304.913 93.9459 305.096 94.2202 305.222 94.5222C305.347 94.8241 305.412 95.1478 305.412 95.4747V117.535H306.408V95.4747C306.408 95.0163 306.317 94.5624 306.141 94.1391C305.965 93.7157 305.706 93.3313 305.381 93.0079C305.055 92.6845 304.669 92.4285 304.244 92.2545C303.819 92.0805 303.364 91.9921 302.904 91.9942Z" fill="#585858"/>
<path d="M305.9 105.943H57.1387V106.937H305.9V105.943Z" fill="#585858"/>
<path d="M65.6099 102.444C67.2622 102.444 68.6016 101.107 68.6016 99.4582C68.6016 97.8093 67.2622 96.4727 65.6099 96.4727C63.9576 96.4727 62.6182 97.8093 62.6182 99.4582C62.6182 101.107 63.9576 102.444 65.6099 102.444Z" fill="#CCCCCC"/>
<path d="M74.2095 102.444C75.8618 102.444 77.2012 101.107 77.2012 99.4582C77.2012 97.8093 75.8618 96.4727 74.2095 96.4727C72.5572 96.4727 71.2178 97.8093 71.2178 99.4582C71.2178 101.107 72.5572 102.444 74.2095 102.444Z" fill="#CCCCCC"/>
<path d="M82.8081 102.444C84.4604 102.444 85.7999 101.107 85.7999 99.4582C85.7999 97.8093 84.4604 96.4727 82.8081 96.4727C81.1558 96.4727 79.8164 97.8093 79.8164 99.4582C79.8164 101.107 81.1558 102.444 82.8081 102.444Z" fill="#CCCCCC"/>
<path d="M142.891 243.007C141.859 243.003 140.845 242.742 139.94 242.248C139.034 241.754 138.267 241.042 137.708 240.176C137.149 239.311 136.816 238.32 136.738 237.293C136.66 236.266 136.841 235.237 137.263 234.297L144.387 218.447C138.775 213.494 134.283 207.405 131.211 200.586C128.139 193.767 126.556 186.373 126.568 178.896C126.568 149.683 150.386 125.918 179.656 125.918C208.925 125.918 232.747 149.679 232.747 178.896C232.747 208.113 208.933 231.87 179.66 231.87C174.539 231.867 169.446 231.119 164.541 229.651L146.355 241.937C145.334 242.633 144.127 243.005 142.891 243.007ZM179.66 133.314C170.186 133.309 160.946 136.245 153.219 141.715C145.493 147.186 139.663 154.919 136.538 163.844C133.413 172.769 133.148 182.443 135.779 191.525C138.41 200.607 143.807 208.648 151.222 214.532L153.466 216.336L145.799 233.407L163.397 221.521L165.133 222.103C171.408 224.201 178.065 224.912 184.643 224.188C191.22 223.463 197.562 221.321 203.228 217.909C208.894 214.498 213.749 209.898 217.458 204.428C221.167 198.958 223.64 192.75 224.706 186.232C225.772 179.714 225.407 173.043 223.634 166.68C221.861 160.318 218.724 154.415 214.44 149.382C210.155 144.349 204.826 140.305 198.82 137.531C192.815 134.756 186.277 133.318 179.66 133.314Z" fill="#CCCCCC"/>
<path d="M179.659 183.821C183.75 183.821 187.067 180.512 187.067 176.429C187.067 172.347 183.75 169.037 179.659 169.037C175.568 169.037 172.252 172.347 172.252 176.429C172.252 180.512 175.568 183.821 179.659 183.821Z" fill="#CCCCCC"/>
<path d="M158.674 183.821C162.765 183.821 166.081 180.512 166.081 176.429C166.081 172.347 162.765 169.037 158.674 169.037C154.583 169.037 151.267 172.347 151.267 176.429C151.267 180.512 154.583 183.821 158.674 183.821Z" fill="#CCCCCC"/>
<path d="M208.457 177C209.112 172.959 206.359 169.153 202.309 168.499C198.259 167.846 194.445 170.593 193.791 174.635C193.136 178.677 195.889 182.483 199.939 183.136C203.989 183.789 207.803 181.042 208.457 177Z" fill="#CCCCCC"/>
<path d="M365.93 147.171H295.537C294.688 147.171 293.874 146.835 293.274 146.236C292.674 145.637 292.337 144.825 292.337 143.978C292.337 143.131 292.674 142.319 293.274 141.72C293.874 141.122 294.688 140.785 295.537 140.785H365.93C366.779 140.785 367.593 141.122 368.193 141.72C368.793 142.319 369.13 143.131 369.13 143.978C369.13 144.825 368.793 145.637 368.193 146.236C367.593 146.835 366.779 147.171 365.93 147.171Z" fill="#CCCCCC"/>
<path d="M319.934 133.601H295.537C294.688 133.601 293.874 133.265 293.274 132.666C292.674 132.067 292.337 131.255 292.337 130.408C292.337 129.561 292.674 128.749 293.274 128.15C293.874 127.551 294.688 127.215 295.537 127.215H319.934C320.783 127.215 321.597 127.551 322.197 128.15C322.797 128.749 323.134 129.561 323.134 130.408C323.134 131.255 322.797 132.067 322.197 132.666C321.597 133.265 320.783 133.601 319.934 133.601Z" fill="#CCCCCC"/>
<path d="M263.656 151.064C271.167 151.064 277.255 144.988 277.255 137.493C277.255 129.998 271.167 123.922 263.656 123.922C256.146 123.922 250.058 129.998 250.058 137.493C250.058 144.988 256.146 151.064 263.656 151.064Z" fill="#2E6AB1"/>
<path d="M372.986 116.736H246.198C244.395 116.736 242.665 117.451 241.39 118.724C240.115 119.996 239.398 121.722 239.398 123.522V151.462C239.398 153.261 240.115 154.987 241.39 156.26C242.665 157.532 244.395 158.247 246.198 158.247H372.986C374.79 158.247 376.519 157.532 377.794 156.26C379.069 154.987 379.786 153.261 379.786 151.462V123.522C379.786 121.722 379.069 119.996 377.794 118.724C376.519 117.451 374.79 116.736 372.986 116.736ZM378.986 151.462C378.986 153.05 378.354 154.573 377.229 155.695C376.103 156.818 374.577 157.449 372.986 157.449H246.198C244.607 157.449 243.081 156.818 241.956 155.695C240.83 154.573 240.198 153.05 240.198 151.462V123.522C240.198 121.934 240.83 120.411 241.956 119.288C243.081 118.165 244.607 117.535 246.198 117.535H372.986C374.577 117.535 376.103 118.165 377.229 119.288C378.354 120.411 378.986 121.934 378.986 123.522V151.462Z" fill="#585858"/>
<path d="M378.985 127.913C384.066 127.913 388.184 123.803 388.184 118.733C388.184 113.663 384.066 109.553 378.985 109.553C373.905 109.553 369.786 113.663 369.786 118.733C369.786 123.803 373.905 127.913 378.985 127.913Z" fill="#003962"/>
<path d="M378.706 123.897C378.668 123.86 378.638 123.816 378.617 123.768C378.597 123.719 378.586 123.667 378.586 123.614V113.452C378.586 113.346 378.628 113.245 378.703 113.17C378.778 113.095 378.88 113.053 378.986 113.053C379.092 113.053 379.194 113.095 379.269 113.17C379.344 113.245 379.386 113.346 379.386 113.452V123.614C379.386 123.72 379.344 123.821 379.269 123.896C379.194 123.971 379.092 124.013 378.986 124.013C378.881 124.013 378.78 123.971 378.706 123.897Z" fill="white"/>
<path d="M373.613 118.817C373.576 118.78 373.546 118.736 373.526 118.687C373.506 118.639 373.495 118.587 373.495 118.534C373.495 118.481 373.506 118.429 373.526 118.38C373.546 118.332 373.576 118.288 373.613 118.251C373.651 118.214 373.695 118.184 373.744 118.164C373.793 118.145 373.845 118.134 373.897 118.135H384.076C384.183 118.135 384.284 118.177 384.359 118.252C384.434 118.327 384.476 118.428 384.476 118.534C384.476 118.64 384.434 118.741 384.359 118.816C384.284 118.891 384.183 118.933 384.076 118.933H373.897C373.845 118.933 373.793 118.923 373.744 118.903C373.695 118.884 373.651 118.854 373.613 118.817Z" fill="white"/>
<path d="M390 240.756H370.802C370.802 241.307 351.012 241.754 351.012 241.754C350.699 241.985 350.416 242.253 350.168 242.552C349.415 243.446 349.004 244.577 349.008 245.745V246.543C349.008 247.867 349.535 249.136 350.472 250.071C351.41 251.007 352.681 251.533 354.007 251.533H390.004C391.329 251.531 392.6 251.004 393.537 250.069C394.474 249.134 395.002 247.866 395.004 246.543V245.745C395.002 244.422 394.474 243.153 393.536 242.218C392.598 241.283 391.326 240.757 390 240.756Z" fill="#585858"/>
<path d="M374.798 251.332H369.599V284.86H374.798V251.332Z" fill="#585858"/>
<path d="M389.596 284.677C389.596 285.24 381.717 284.897 371.998 284.897C362.279 284.897 354.399 285.24 354.399 284.677C354.399 284.114 362.279 279.672 371.998 279.672C381.717 279.672 389.596 284.118 389.596 284.677Z" fill="#585858"/>
<path d="M373.866 195.823C380.051 195.823 385.065 190.819 385.065 184.647C385.065 178.474 380.051 173.471 373.866 173.471C367.681 173.471 362.667 178.474 362.667 184.647C362.667 190.819 367.681 195.823 373.866 195.823Z" fill="#1C292E"/>
<path d="M345.996 280.266H341.093L338.761 261.395H346L345.996 280.266Z" fill="#FFB8B8"/>
<path d="M337.593 278.869H347.048V284.812H331.638C331.638 283.236 332.265 281.724 333.382 280.61C334.499 279.495 336.014 278.869 337.593 278.869Z" fill="#1C292E"/>
<path d="M338.341 277.536L333.665 276.071L337.101 257.367L344.004 259.527L338.341 277.536Z" fill="#FFB8B8"/>
<path d="M330.742 273.692L339.765 276.518L337.969 282.194L323.267 277.588C323.74 276.085 324.792 274.831 326.192 274.102C327.591 273.373 329.224 273.229 330.73 273.7L330.742 273.692Z" fill="#1C292E"/>
<path d="M376.866 237.49C376.753 236.541 376.549 235.606 376.258 234.696L375.342 233.546L372.942 230.561H372.838C372.662 230.561 371.93 230.608 370.798 230.696C370.099 230.752 369.243 230.824 368.271 230.916L367.471 230.996V235.163H372.47C372.714 235.162 372.949 235.25 373.132 235.41C373.314 235.57 373.432 235.792 373.462 236.033C373.462 236.077 373.462 236.117 373.462 236.161C373.462 236.425 373.357 236.679 373.169 236.866C372.982 237.053 372.727 237.158 372.462 237.158H343.425C343.055 237.404 342.7 237.67 342.361 237.957C341.339 238.748 340.602 239.849 340.261 241.094C338.565 248.534 335.462 262.408 334.562 266.483C334.497 266.79 334.513 267.109 334.607 267.408C334.702 267.708 334.872 267.977 335.102 268.192C335.272 268.35 335.472 268.474 335.69 268.555L339.289 269.904C339.437 269.96 339.592 269.996 339.749 270.012H339.917C340.282 270.01 340.638 269.899 340.938 269.693C341.239 269.486 341.47 269.194 341.601 268.854L344.449 261.398L348.848 249.903L350.584 245.357C352.584 245.828 369.475 249.556 375.126 243.549C375.685 242.958 376.125 242.266 376.422 241.509C376.901 240.227 377.054 238.845 376.866 237.49Z" fill="#1C292E"/>
<path d="M381.761 238.569C381.673 238.213 381.573 237.846 381.457 237.475L378.158 233.34H378.054C377.846 233.34 376.854 233.404 375.342 233.527C373.622 233.671 371.218 233.903 368.519 234.266L368.275 234.298L367.475 234.41V235.148H372.474C372.718 235.147 372.953 235.235 373.135 235.395C373.318 235.556 373.436 235.777 373.466 236.018C373.466 236.062 373.466 236.102 373.466 236.146C373.466 236.41 373.361 236.664 373.173 236.851C372.986 237.039 372.731 237.144 372.466 237.144H354.804C354.032 237.395 353.288 237.659 352.576 237.942C348.84 239.419 346.045 241.355 345.473 243.873L344.845 246.639C344.013 250.319 343.001 254.826 342.085 258.921C341.897 259.767 341.709 260.589 341.529 261.388C340.765 264.82 340.117 267.73 339.773 269.259L339.749 269.386C339.71 269.696 339.749 270.01 339.861 270.3C339.973 270.578 340.152 270.823 340.381 271.015C340.536 271.141 340.71 271.242 340.897 271.314L344.497 272.663C344.942 272.829 345.435 272.813 345.868 272.618C346.301 272.423 346.639 272.065 346.809 271.622L354.576 251.265L355.776 248.108C357.776 248.579 374.666 252.303 380.317 246.3C381.435 245.094 382.072 243.523 382.109 241.882C382.152 240.766 382.035 239.651 381.761 238.569Z" fill="#1C292E"/>
<path d="M381.317 203.355C381.253 203.279 381.185 203.203 381.113 203.131C380.047 202.011 378.73 201.16 377.27 200.647C375.809 200.135 374.248 199.975 372.714 200.181C371.377 200.363 370.054 200.63 368.751 200.98C367.067 201.411 365.526 202.274 364.279 203.482C363.31 204.423 362.547 205.555 362.038 206.805C361.53 208.056 361.288 209.398 361.327 210.747C361.327 211.294 361.347 211.852 361.327 212.419C361.327 212.683 361.327 212.95 361.327 213.217H365.271C365.442 213.217 365.613 213.237 365.779 213.277C366.261 213.391 366.69 213.664 366.997 214.052C367.304 214.439 367.471 214.919 367.471 215.413V233.981L368.271 234.212L368.515 234.288L368.787 234.372C369.587 234.623 370.386 234.891 371.186 235.17H372.49C372.734 235.169 372.969 235.257 373.152 235.418C373.334 235.578 373.452 235.799 373.482 236.04L374.282 236.364C375.206 236.763 376.082 237.13 376.886 237.501C377.97 237.996 378.934 238.467 379.742 238.878C379.996 239.006 380.277 239.074 380.562 239.078C380.936 239.076 381.3 238.956 381.601 238.735C381.664 238.689 381.724 238.639 381.781 238.587C381.997 238.386 382.159 238.135 382.255 237.857C382.351 237.578 382.376 237.281 382.329 236.99C381.915 233.848 381.793 230.675 381.965 227.511C382.077 224.856 382.317 222.134 382.629 219.504C382.797 218.079 382.985 216.682 383.181 215.337C383.377 213.992 383.581 212.818 383.765 211.653C384.02 210.175 383.932 208.658 383.507 207.22C383.083 205.781 382.334 204.459 381.317 203.355Z" fill="#2E6AB1"/>
<path d="M364.922 203.681C364.717 203.594 364.506 203.52 364.29 203.462C363.225 203.176 362.091 203.282 361.097 203.761C360.103 204.239 359.315 205.058 358.875 206.068L356.127 212.398L355.783 213.197H365.274C365.445 213.197 365.616 213.217 365.782 213.257L366.102 212.518L367.302 209.724C367.544 209.172 367.674 208.577 367.685 207.974C367.696 207.371 367.588 206.772 367.367 206.211C367.146 205.65 366.816 205.137 366.397 204.703C365.977 204.269 365.476 203.922 364.922 203.681Z" fill="#2E6AB1"/>
<path d="M373.458 197.065C378.883 197.065 383.281 192.676 383.281 187.262C383.281 181.848 378.883 177.459 373.458 177.459C368.033 177.459 363.635 181.848 363.635 187.262C363.635 192.676 368.033 197.065 373.458 197.065Z" fill="#FFB8B8"/>
<path d="M363.459 182.445C368.111 185.28 373.356 187.006 378.786 187.487L377.186 185.555C378.362 185.989 379.6 186.234 380.853 186.281C382.105 186.261 383.417 185.782 384.129 184.752C384.446 184.241 384.634 183.661 384.678 183.061C384.722 182.461 384.62 181.86 384.381 181.308C383.889 180.202 383.122 179.24 382.153 178.514C380.438 177.159 378.414 176.25 376.261 175.866C374.108 175.482 371.893 175.636 369.814 176.315C368.389 176.739 367.112 177.557 366.131 178.673C365.199 179.819 363.407 180.841 363.883 182.238L363.459 182.445Z" fill="#1C292E"/>
<path d="M375.11 174.533C372.011 171.398 368.263 168.979 364.127 167.444C361.471 166.462 358.58 165.847 355.804 166.414C353.028 166.981 350.404 168.889 349.628 171.603C348.996 173.826 349.648 176.217 350.632 178.309C351.616 180.4 352.928 182.344 353.72 184.511C354.53 186.726 354.774 189.107 354.428 191.44C354.083 193.772 353.159 195.981 351.741 197.867C350.323 199.753 348.456 201.256 346.309 202.239C344.162 203.223 341.803 203.655 339.445 203.498C342.173 203.862 344.689 205.139 347.357 205.821C350.024 206.504 353.168 206.46 355.168 204.556C357.264 202.537 357.308 199.26 357.204 196.354C357.054 192.04 356.904 187.724 356.752 183.406C356.676 181.202 356.612 178.931 357.408 176.876C358.204 174.82 360.091 173.024 362.299 173.04C363.971 173.04 365.455 174.066 366.795 175.064C368.135 176.061 369.559 177.127 371.222 177.275C372.886 177.422 374.79 176.193 374.666 174.529L375.11 174.533Z" fill="#1C292E"/>
<path d="M383.165 215.345L377.566 215.497L377.166 219.428L377.074 220.338L368.275 224.274L367.475 224.633V231.63L368.275 231.403L370.802 230.684L381.965 227.511L382.093 227.475C382.993 227.216 383.785 226.674 384.352 225.93C384.918 225.186 385.229 224.279 385.237 223.344L385.265 218.702L385.289 215.281L383.165 215.345Z" fill="#FFB8B8"/>
<path d="M384.989 207.554C384.914 206.336 384.358 205.198 383.443 204.39C382.527 203.582 381.327 203.17 380.108 203.245C378.888 203.32 377.747 203.875 376.938 204.788C376.128 205.702 375.715 206.899 375.79 208.116L376.402 218.095C376.42 218.357 376.494 218.612 376.621 218.842C376.747 219.072 376.922 219.272 377.134 219.428C377.472 219.68 377.889 219.803 378.31 219.775L382.597 219.512L383.897 219.432C384.134 219.42 384.366 219.361 384.579 219.257C384.792 219.154 384.982 219.008 385.137 218.83C385.172 218.792 385.204 218.752 385.233 218.71C385.492 218.367 385.617 217.941 385.585 217.512L384.989 207.554Z" fill="#2E6AB1"/>
<path d="M368.791 234.353H368.275V234.297L367.475 234.409V235.148H371.167C370.393 234.871 369.601 234.606 368.791 234.353ZM368.791 234.353H368.275V234.297L367.475 234.409V235.148H371.167C370.393 234.871 369.601 234.606 368.791 234.353ZM372.475 234.353H368.275V215.394C368.274 214.745 368.062 214.113 367.67 213.595C367.278 213.077 366.728 212.699 366.103 212.52C365.834 212.44 365.556 212.4 365.275 212.4H329.678C328.883 212.401 328.121 212.717 327.558 213.278C326.996 213.84 326.68 214.6 326.679 215.394V234.952C326.679 235.746 326.995 236.507 327.557 237.069C328.12 237.63 328.883 237.946 329.678 237.946H372.475C372.917 237.945 373.344 237.782 373.674 237.488C374.004 237.193 374.213 236.788 374.262 236.349C374.266 236.284 374.266 236.219 374.262 236.153C374.263 235.678 374.076 235.222 373.741 234.885C373.406 234.548 372.95 234.356 372.475 234.353ZM373.474 236.149C373.474 236.414 373.369 236.668 373.182 236.855C372.994 237.042 372.74 237.147 372.475 237.147H329.678C329.095 237.146 328.536 236.915 328.124 236.503C327.712 236.092 327.48 235.534 327.479 234.952V215.394C327.48 214.812 327.712 214.254 328.124 213.843C328.536 213.431 329.095 213.2 329.678 213.199H365.275C365.446 213.198 365.617 213.218 365.783 213.259C366.265 213.373 366.694 213.645 367.001 214.033C367.308 214.42 367.475 214.9 367.475 215.394V235.152H372.475C372.718 235.151 372.953 235.239 373.136 235.399C373.319 235.559 373.436 235.781 373.466 236.022C373.47 236.066 373.474 236.105 373.474 236.149ZM368.791 234.353H368.275V234.297L367.475 234.409V235.148H371.167C370.393 234.871 369.601 234.606 368.791 234.353Z" fill="#585858"/>
<path d="M347.476 227.567C348.801 227.567 349.876 226.495 349.876 225.172C349.876 223.85 348.801 222.777 347.476 222.777C346.151 222.777 345.076 223.85 345.076 225.172C345.076 226.495 346.151 227.567 347.476 227.567Z" fill="#E6AD0A"/>
<path d="M133.128 28.4867C133.116 28.6688 133.116 28.8515 133.128 29.0335L120.569 39.551L116.825 38.1979L114.025 43.5703L122.217 47.462L135.987 32.087C136.663 32.2086 137.36 32.1276 137.989 31.8542C138.619 31.5808 139.153 31.1273 139.524 30.551C139.895 29.9747 140.087 29.3016 140.075 28.6166C140.063 27.9316 139.847 27.2655 139.456 26.7026C139.065 26.1397 138.515 25.7052 137.876 25.4541C137.238 25.2029 136.539 25.1464 135.868 25.2916C135.197 25.4369 134.584 25.7774 134.107 26.2701C133.63 26.7627 133.31 27.3855 133.188 28.0596C133.162 28.2009 133.145 28.3435 133.136 28.4867H133.128Z" fill="#FFB8B8"/>
<path d="M116.285 46.148L104.154 41.7814C103.04 41.3802 102.132 40.5539 101.628 39.4842C101.125 38.4146 101.068 37.1892 101.47 36.0777C101.872 34.9662 102.7 34.0595 103.772 33.5573C104.844 33.055 106.072 32.9982 107.186 33.3994L119.317 37.77C119.687 37.9042 119.989 38.1797 120.156 38.5359C120.324 38.8921 120.342 39.3 120.209 39.67L118.189 45.258C118.054 45.6277 117.778 45.9291 117.421 46.096C117.064 46.2629 116.656 46.2816 116.285 46.148Z" fill="#E6AD0A"/>
<path d="M107.402 88.7099H111.454L113.386 73.1074H107.402V88.7099Z" fill="#FFB8B8"/>
<path d="M119.273 92.4661H106.534V87.5566H114.349C114.996 87.5561 115.636 87.6827 116.233 87.9292C116.831 88.1757 117.373 88.5372 117.831 88.9932C118.288 89.4491 118.651 89.9905 118.898 90.5864C119.146 91.1823 119.273 91.821 119.273 92.4661Z" fill="#1C292E"/>
<path d="M97.3828 83.4853L100.699 85.8123L111.27 74.1573L106.378 70.7207L97.3828 83.4853Z" fill="#FFB8B8"/>
<path d="M104.53 92.5738L94.1074 85.2616L96.9392 81.2422L103.339 85.7286C103.868 86.0994 104.319 86.5706 104.665 87.1153C105.012 87.66 105.248 88.2675 105.359 88.9032C105.471 89.5388 105.456 90.1902 105.315 90.82C105.174 91.4498 104.91 92.0458 104.538 92.5738H104.53Z" fill="#1C292E"/>
<path d="M116.273 60.6053C116.273 60.6053 126.388 59.4079 124.572 65.9618C122.757 72.5157 102.526 78.1716 102.526 78.1716L116.273 60.6053Z" fill="#FFB8B8"/>
<path d="M117.543 20.4469C118.529 16.0614 115.767 11.7082 111.372 10.7237C106.978 9.73925 102.616 12.4963 101.629 16.8817C100.642 21.2672 103.405 25.6204 107.8 26.6048C112.194 27.5893 116.556 24.8323 117.543 20.4469Z" fill="#FFB8B8"/>
<path d="M83.4122 76.8308C78.7926 71.4464 77.1927 63.2201 84.5441 56.3668C86.3635 54.7148 88.4242 53.3487 90.6555 52.3155L96.595 35.7431C97.2156 34.0161 98.348 32.5185 99.8418 31.4491C101.336 30.3797 103.12 29.7892 104.958 29.7559C106.745 29.6798 108.511 30.1572 110.015 31.1227C111.519 32.0882 112.686 33.4944 113.357 35.1483C114.085 36.832 114.169 38.7236 113.593 40.4649C111.823 45.9561 109.501 51.2545 106.662 56.279L106.97 58.7297L121.989 60.0469L121.849 60.2744C121.777 60.3941 114.429 71.5661 105.03 78.9782C101.83 81.5168 98.4948 82.5705 95.3591 82.5705C90.5955 82.5665 86.2679 80.1477 83.4122 76.8308Z" fill="#E6AD0A"/>
<path d="M81.9924 21.6172C83.4283 19.9088 84.0442 17.6736 84.5402 15.5023C85.3401 12.0617 85.9321 8.50132 87.6759 5.43192C89.4198 2.36251 92.6235 -0.184025 96.1551 -0.00041913C99.6868 0.183187 102.503 3.00912 104.01 6.21424C104.375 6.07377 104.766 6.01115 105.156 6.0304C105.547 6.04965 105.929 6.15034 106.278 6.326C107.362 6.92072 107.77 8.6051 106.866 9.45128C107.816 8.9992 108.851 8.75204 109.904 8.7259C110.956 8.69977 112.002 8.89525 112.974 9.29961C114.226 9.83111 115.307 10.6976 116.096 11.8035C116.886 12.9093 117.354 14.2115 117.449 15.5662C117.488 16.114 117.414 16.664 117.231 17.1822C117.049 17.7005 116.763 18.176 116.389 18.5797C114.833 20.1763 112.63 19.6254 110.67 19.2183C108.818 18.8192 106.562 18.7314 105.522 20.4876C105.114 21.2162 104.999 22.072 105.198 22.8824C105.598 24.6387 106.902 25.864 108.166 27.0335L108.374 27.4327C103.91 28.3028 99.0349 25.2613 97.863 20.8748C96.6911 16.4882 99.3908 11.427 103.698 9.97815C103.412 9.98942 103.128 9.92386 102.876 9.78833C102.624 9.65279 102.413 9.45224 102.266 9.2076C102.118 8.96296 102.038 8.68319 102.036 8.39749C102.033 8.11178 102.107 7.83061 102.251 7.5833C101.06 6.91745 99.7119 6.58123 98.3469 6.60939C96.1231 6.75707 94.1953 8.33368 93.0394 10.2376C91.8835 12.1415 91.3596 14.3408 90.8276 16.5041C90.2957 18.6675 89.7237 20.8628 88.4838 22.7148C87.6253 23.9949 86.4788 25.0572 85.136 25.8168C83.7931 26.5764 82.291 27.0123 80.7494 27.0899C79.2077 27.1674 77.6693 26.8844 76.2567 26.2634C74.8441 25.6424 73.5965 24.7006 72.6133 23.5131C74.1693 24.264 75.9291 24.4852 77.6231 24.1428C79.3171 23.8004 80.8519 22.9132 81.9924 21.6172Z" fill="#72351C"/>
<path d="M141.639 43.7019C148.157 43.7019 153.442 38.4284 153.442 31.9232C153.442 25.418 148.157 20.1445 141.639 20.1445C135.12 20.1445 129.836 25.418 129.836 31.9232C129.836 38.4284 135.12 43.7019 141.639 43.7019Z" fill="#003962"/>
<path d="M141.275 38.5489C141.18 38.452 141.126 38.3215 141.127 38.1857V25.1457C141.127 25.0102 141.181 24.8802 141.277 24.7844C141.373 24.6886 141.503 24.6348 141.639 24.6348C141.775 24.6348 141.905 24.6886 142.001 24.7844C142.097 24.8802 142.151 25.0102 142.151 25.1457V38.1857C142.15 38.2864 142.119 38.3847 142.063 38.4682C142.006 38.5517 141.926 38.6168 141.833 38.6555C141.74 38.6942 141.637 38.7047 141.538 38.6857C141.439 38.6668 141.347 38.6192 141.275 38.5489Z" fill="white"/>
<path d="M134.744 32.0304C134.671 31.9589 134.622 31.8675 134.602 31.7679C134.582 31.6683 134.592 31.565 134.631 31.4711C134.67 31.3773 134.736 31.2972 134.821 31.2411C134.906 31.185 135.006 31.1555 135.108 31.1563H148.171C148.306 31.1563 148.437 31.2101 148.533 31.3059C148.629 31.4017 148.682 31.5317 148.682 31.6672C148.682 31.8027 148.629 31.9326 148.533 32.0284C148.437 32.1242 148.306 32.1781 148.171 32.1781H135.108C134.972 32.1787 134.841 32.1256 134.744 32.0304Z" fill="white"/>
<path d="M133.536 39.8037C133.451 39.9654 133.379 40.1336 133.32 40.3066L117.469 44.5016L114.67 41.7076L109.87 45.3877L115.59 52.3647L134.568 44.2701C135.141 44.6743 135.823 44.895 136.525 44.903C137.227 44.911 137.914 44.706 138.496 44.315C139.078 43.9241 139.528 43.3658 139.784 42.7141C140.041 42.0625 140.093 41.3483 139.934 40.6664C139.775 39.9845 139.411 39.367 138.892 38.896C138.373 38.425 137.722 38.1226 137.027 38.029C136.332 37.9354 135.624 38.0551 134.999 38.372C134.373 38.689 133.859 39.1883 133.524 39.8037H133.536Z" fill="#FFB8B8"/>
<path d="M110.766 48.647L101.647 39.5465C100.834 38.7072 100.384 37.583 100.393 36.4157C100.402 35.2483 100.87 34.1313 101.696 33.3048C102.522 32.4783 103.64 32.0084 104.81 31.9963C105.98 31.9842 107.107 32.4309 107.95 33.2401L117.07 42.3405C117.349 42.619 117.505 42.9966 117.505 43.3903C117.505 43.784 117.349 44.1616 117.07 44.44L112.87 48.647C112.591 48.9253 112.213 49.0817 111.818 49.0817C111.424 49.0817 111.045 48.9253 110.766 48.647Z" fill="#E6AD0A"/>
</g>
<defs>
<clipPath id="clip0">
<rect width="395" height="285" fill="white"/>
</clipPath>
</defs>
</svg>
