<svg width="343" height="219" viewBox="0 0 343 219" fill="none" xmlns="http://www.w3.org/2000/svg">
<path d="M61.0053 217.096C64.2789 214.33 66.2649 209.959 65.7338 205.709C65.2028 201.458 61.9874 197.545 57.8008 196.643C53.6142 195.74 48.8421 198.24 47.5726 202.331C46.8706 194.441 46.0668 186.223 41.873 179.505C38.0792 173.423 31.5066 169.07 24.381 168.291C17.2555 167.513 9.75535 170.453 5.31417 176.08C0.872992 181.706 -0.210932 189.888 2.9099 196.344C5.20141 201.105 9.42435 204.646 13.851 207.528C28.1516 216.754 45.301 220.502 62.1438 218.083L61.0053 217.096Z" fill="#F2F2F2"/>
<path d="M12.3668 170.617C18.2455 175.413 23.6378 180.777 28.4656 186.631C33.296 192.472 37.5485 198.769 41.1635 205.432C43.1891 209.17 45.0105 213.015 46.6195 216.951C46.9432 217.752 45.6447 218.101 45.321 217.315C42.4849 210.377 38.9763 203.733 34.8455 197.48C30.7333 191.248 26.0263 185.431 20.7909 180.109C17.8295 177.099 14.7052 174.255 11.432 171.589C10.7446 171.021 11.7012 170.075 12.3668 170.617Z" fill="white"/>
<path d="M256.195 0H79.0574C78.3821 0 77.7345 0.268408 77.257 0.746178C76.7795 1.22395 76.5112 1.87194 76.5112 2.54761V122.649C76.5112 123.325 76.7795 123.973 77.257 124.451C77.7345 124.929 78.3821 125.197 79.0574 125.197H256.195C256.87 125.197 257.518 124.929 257.996 124.451C258.473 123.973 258.741 123.325 258.741 122.649V2.54761C258.741 1.87194 258.473 1.22395 257.996 0.746178C257.518 0.268408 256.87 0 256.195 0ZM258.014 122.649C258.014 123.132 257.822 123.595 257.481 123.936C257.14 124.277 256.678 124.469 256.195 124.469H79.0574C78.575 124.469 78.1124 124.277 77.7714 123.936C77.4303 123.595 77.2387 123.132 77.2387 122.649V2.54761C77.2387 2.06499 77.4303 1.60214 77.7714 1.26087C78.1124 0.919609 78.575 0.727889 79.0574 0.727889H256.195C256.678 0.727889 257.14 0.919609 257.481 1.26087C257.822 1.60214 258.014 2.06499 258.014 2.54761V122.649Z" fill="#8F8F8F"/>
<path d="M258.377 10.2051H76.8748V10.933H258.377V10.2051Z" fill="#8F8F8F"/>
<path d="M83.0584 7.64273C84.2637 7.64273 85.2408 6.66506 85.2408 5.45906C85.2408 4.25305 84.2637 3.27539 83.0584 3.27539C81.8531 3.27539 80.876 4.25305 80.876 5.45906C80.876 6.66506 81.8531 7.64273 83.0584 7.64273Z" fill="#8F8F8F"/>
<path d="M89.3328 7.64273C90.5381 7.64273 91.5152 6.66506 91.5152 5.45906C91.5152 4.25305 90.5381 3.27539 89.3328 3.27539C88.1275 3.27539 87.1504 4.25305 87.1504 5.45906C87.1504 6.66506 88.1275 7.64273 89.3328 7.64273Z" fill="#8F8F8F"/>
<path d="M95.6072 7.64273C96.8125 7.64273 97.7896 6.66506 97.7896 5.45906C97.7896 4.25305 96.8125 3.27539 95.6072 3.27539C94.4019 3.27539 93.4248 4.25305 93.4248 5.45906C93.4248 6.66506 94.4019 7.64273 95.6072 7.64273Z" fill="#8F8F8F"/>
<path d="M182.903 27.1148H152.349C151.674 27.1148 151.026 26.8463 150.549 26.3686C150.071 25.8908 149.803 25.2428 149.803 24.5671C149.803 23.8915 150.071 23.2435 150.549 22.7657C151.026 22.2879 151.674 22.0195 152.349 22.0195H182.903C183.578 22.0195 184.226 22.2879 184.703 22.7657C185.181 23.2435 185.449 23.8915 185.449 24.5671C185.449 25.2428 185.181 25.8908 184.703 26.3686C184.226 26.8463 183.578 27.1148 182.903 27.1148Z" fill="#CDCDCD"/>
<path d="M203.818 39.4878H131.435C130.76 39.4878 130.112 39.2194 129.634 38.7416C129.157 38.2638 128.889 37.6159 128.889 36.9402C128.889 36.2645 129.157 35.6165 129.634 35.1388C130.112 34.661 130.76 34.3926 131.435 34.3926H203.818C204.493 34.3926 205.141 34.661 205.618 35.1388C206.096 35.6165 206.364 36.2645 206.364 36.9402C206.364 37.6159 206.096 38.2638 205.618 38.7416C205.141 39.2194 204.493 39.4878 203.818 39.4878Z" fill="#CDCDCD"/>
<path d="M225.514 115.535C222.77 115.536 220.088 114.722 217.806 113.198C215.524 111.673 213.746 109.505 212.695 106.969C211.644 104.432 211.369 101.641 211.904 98.9485C212.439 96.2557 213.76 93.782 215.7 91.8403C217.64 89.8987 220.112 88.5763 222.803 88.0404C225.494 87.5045 228.284 87.7792 230.819 88.8297C233.354 89.8802 235.521 91.6594 237.045 93.9421C238.57 96.2249 239.383 98.9088 239.383 101.654C239.384 103.477 239.026 105.282 238.329 106.966C237.632 108.65 236.611 110.18 235.323 111.469C234.035 112.758 232.506 113.781 230.823 114.478C229.14 115.176 227.336 115.535 225.514 115.535ZM225.514 88.7343C222.959 88.7335 220.462 89.491 218.337 90.9108C216.213 92.3306 214.556 94.3489 213.578 96.7106C212.6 99.0722 212.344 101.671 212.843 104.178C213.341 106.686 214.571 108.989 216.378 110.796C218.184 112.604 220.486 113.835 222.992 114.333C225.498 114.832 228.095 114.576 230.455 113.597C232.815 112.619 234.833 110.962 236.252 108.836C237.671 106.71 238.428 104.211 238.427 101.654C238.427 98.2277 237.066 94.9414 234.645 92.5184C232.223 90.0955 228.939 88.7343 225.514 88.7343Z" fill="#8F8F8F"/>
<path d="M109.229 78.3613C106.485 78.3613 103.803 77.5472 101.522 76.022C99.2403 74.4967 97.4622 72.3288 96.4122 69.7924C95.3622 67.256 95.0875 64.4651 95.6228 61.7724C96.1581 59.0798 97.4793 56.6065 99.4194 54.6652C101.36 52.7239 103.831 51.4019 106.523 50.8663C109.214 50.3307 112.003 50.6056 114.538 51.6562C117.073 52.7068 119.239 54.486 120.764 56.7687C122.288 59.0514 123.102 61.7351 123.102 64.4805C123.096 68.1601 121.633 71.6874 119.032 74.2893C116.432 76.8912 112.906 78.3555 109.229 78.3613ZM109.229 51.5568C106.674 51.5568 104.177 52.3148 102.053 53.7348C99.9291 55.1549 98.2736 57.1733 97.296 59.5348C96.3184 61.8963 96.0626 64.4948 96.561 67.0017C97.0594 69.5087 98.2895 71.8115 100.096 73.6189C101.902 75.4263 104.204 76.6571 106.709 77.1558C109.215 77.6545 111.812 77.3985 114.172 76.4204C116.532 75.4422 118.549 73.7858 119.968 71.6605C121.388 69.5352 122.145 67.0365 122.145 64.4805C122.145 61.0529 120.784 57.7657 118.362 55.342C115.94 52.9184 112.655 51.5568 109.229 51.5568Z" fill="#8F8F8F"/>
<path d="M114.616 71.839C114.252 71.8381 113.904 71.6932 113.647 71.4361C113.39 71.179 113.245 70.8306 113.244 70.467V62.6822C113.246 62.3189 113.391 61.971 113.648 61.7141C113.905 61.4572 114.253 61.312 114.616 61.3101C114.979 61.312 115.327 61.4572 115.583 61.7141C115.84 61.971 115.985 62.3189 115.987 62.6822V70.467C115.985 70.8303 115.84 71.1781 115.583 71.435C115.327 71.6919 114.979 71.8371 114.616 71.839ZM111.044 71.839C110.863 71.8409 110.684 71.8073 110.517 71.7399C110.349 71.6725 110.196 71.5728 110.067 71.4464C109.938 71.32 109.835 71.1694 109.765 71.0032C109.694 70.8371 109.656 70.6585 109.654 70.4779V66.2743C109.654 66.0943 109.69 65.9161 109.759 65.7498C109.828 65.5835 109.929 65.4325 110.056 65.3054C110.184 65.1783 110.335 65.0776 110.501 65.009C110.668 64.9404 110.846 64.9054 111.026 64.9059H111.044C111.407 64.9059 111.754 65.0501 112.011 65.3067C112.267 65.5633 112.412 65.9114 112.412 66.2743V70.467C112.412 70.8302 112.268 71.1787 112.011 71.4359C111.755 71.6931 111.407 71.8381 111.044 71.839ZM107.436 71.839C107.072 71.839 106.723 71.6945 106.466 71.4372C106.209 71.1798 106.064 70.8308 106.064 70.467V58.4932C106.065 58.1302 106.21 57.7823 106.466 57.5253C106.722 57.2683 107.069 57.123 107.432 57.1211C107.795 57.1221 108.143 57.267 108.399 57.5243C108.656 57.7815 108.8 58.1299 108.8 58.4932V70.467C108.8 70.8296 108.656 71.1775 108.401 71.4346C108.145 71.6917 107.798 71.8371 107.436 71.839ZM103.842 71.839C103.662 71.8395 103.484 71.8045 103.317 71.7359C103.151 71.6673 103 71.5666 102.873 71.4395C102.745 71.3124 102.644 71.1614 102.575 70.9951C102.506 70.8288 102.471 70.6506 102.471 70.4706V68.6727C102.471 68.493 102.506 68.3151 102.575 68.149C102.644 67.983 102.744 67.8321 102.871 67.7051C102.998 67.578 103.149 67.4772 103.315 67.4084C103.481 67.3397 103.659 67.3043 103.838 67.3043C104.018 67.3043 104.196 67.3397 104.362 67.4084C104.528 67.4772 104.678 67.578 104.805 67.7051C104.932 67.8321 105.033 67.983 105.102 68.149C105.171 68.3151 105.206 68.493 105.206 68.6727V70.4706C105.205 70.8326 105.061 71.1796 104.806 71.4359C104.55 71.6922 104.204 71.8371 103.842 71.839Z" fill="#E6AD0A"/>
<path d="M319.663 218.115C316.919 218.114 314.238 217.298 311.958 215.772C309.677 214.246 307.9 212.078 306.851 209.541C305.802 207.005 305.529 204.214 306.065 201.522C306.601 198.83 307.923 196.357 309.863 194.417C311.804 192.476 314.276 191.155 316.966 190.62C319.657 190.085 322.446 190.36 324.981 191.411C327.515 192.462 329.681 194.241 331.205 196.523C332.729 198.806 333.543 201.489 333.543 204.234C333.542 206.058 333.183 207.863 332.485 209.547C331.787 211.232 330.765 212.762 329.476 214.051C328.187 215.34 326.657 216.362 324.973 217.06C323.29 217.757 321.485 218.116 319.663 218.115ZM319.663 191.311C317.108 191.311 314.611 192.069 312.487 193.489C310.363 194.909 308.707 196.927 307.73 199.289C306.752 201.65 306.497 204.249 306.995 206.756C307.493 209.263 308.723 211.565 310.53 213.373C312.336 215.18 314.638 216.411 317.143 216.91C319.649 217.408 322.246 217.152 324.606 216.174C326.966 215.196 328.983 213.54 330.402 211.414C331.822 209.289 332.579 206.79 332.579 204.234C332.575 200.808 331.213 197.523 328.792 195.1C326.37 192.677 323.087 191.315 319.663 191.311Z" fill="#8F8F8F"/>
<path d="M323.489 201.825L320.783 205.963C321 206.227 321.119 206.559 321.118 206.902C321.118 207.296 320.961 207.675 320.682 207.954C320.403 208.233 320.025 208.39 319.63 208.39C319.236 208.39 318.857 208.233 318.578 207.954C318.299 207.675 318.142 207.296 318.142 206.902C318.142 206.805 318.15 206.709 318.168 206.614L316.382 205.573C316.152 205.796 315.855 205.939 315.537 205.979C315.219 206.019 314.896 205.954 314.618 205.795L312.719 207.578V209.351C312.719 209.702 312.858 210.039 313.106 210.288C313.353 210.537 313.689 210.677 314.04 210.679H325.283C325.634 210.677 325.971 210.537 326.219 210.288C326.468 210.039 326.608 209.703 326.61 209.351V202.771L324.792 201.562C324.61 201.705 324.398 201.802 324.171 201.848C323.945 201.893 323.712 201.885 323.489 201.825Z" fill="#81ADE3"/>
<path d="M315.356 203.026C315.552 203.026 315.745 203.064 315.926 203.139C316.106 203.214 316.27 203.324 316.408 203.462C316.546 203.6 316.656 203.764 316.731 203.945C316.805 204.125 316.844 204.319 316.844 204.514V204.707L318.706 205.748C318.971 205.529 319.305 205.41 319.648 205.413C319.756 205.413 319.863 205.424 319.968 205.446L322.678 201.261C322.541 201.071 322.451 200.851 322.415 200.619C322.38 200.387 322.399 200.15 322.473 199.927C322.546 199.705 322.671 199.503 322.838 199.338C323.004 199.173 323.208 199.049 323.431 198.978C323.654 198.907 323.891 198.889 324.122 198.927C324.353 198.965 324.572 199.057 324.761 199.196C324.95 199.335 325.103 199.517 325.208 199.726C325.314 199.936 325.368 200.167 325.366 200.402C325.366 200.524 325.353 200.646 325.326 200.766L326.61 201.621V199.139C326.608 198.787 326.468 198.45 326.219 198.202C325.971 197.953 325.634 197.812 325.283 197.811H314.04C313.689 197.812 313.353 197.953 313.106 198.202C312.858 198.451 312.719 198.788 312.719 199.139V206.25L313.956 205.06C313.821 204.691 313.838 204.282 314.002 203.925C314.167 203.568 314.467 203.29 314.836 203.153C315.001 203.092 315.176 203.061 315.353 203.062L315.356 203.026Z" fill="#81ADE3"/>
<path d="M168.179 78.3613C165.435 78.362 162.753 77.5485 160.471 76.0237C158.189 74.4989 156.41 72.3313 155.36 69.795C154.309 67.2586 154.034 64.4675 154.569 61.7747C155.104 59.0818 156.425 56.6081 158.365 54.6665C160.305 52.7249 162.777 51.4025 165.468 50.8666C168.159 50.3307 170.948 50.6054 173.484 51.6559C176.019 52.7064 178.186 54.4855 179.71 56.7683C181.235 59.0511 182.048 61.7349 182.048 64.4805C182.044 68.1601 180.582 71.6879 177.982 74.2902C175.382 76.8924 171.857 78.3565 168.179 78.3613ZM168.179 51.5568C165.624 51.5561 163.127 52.3134 161.002 53.733C158.878 55.1527 157.222 57.1708 156.244 59.5323C155.265 61.8937 155.009 64.4923 155.507 66.9995C156.005 69.5067 157.235 71.8098 159.041 73.6176C160.847 75.4254 163.149 76.6566 165.654 77.1555C168.16 77.6545 170.757 77.3988 173.117 76.4207C175.478 75.4427 177.495 73.7862 178.915 71.6608C180.334 69.5355 181.092 67.0367 181.092 64.4805C181.089 61.0544 179.728 57.7694 177.307 55.3465C174.886 52.9236 171.603 51.5606 168.179 51.5568Z" fill="#8F8F8F"/>
<path d="M160.806 69.5142C160.605 69.5173 160.408 69.4604 160.24 69.3508C160.072 69.2412 159.941 69.0838 159.863 68.8988C159.784 68.7139 159.763 68.5098 159.802 68.3128C159.84 68.1157 159.937 67.9346 160.079 67.7928L165.204 62.6502C165.367 62.4897 165.586 62.3995 165.815 62.3991C165.928 62.3974 166.04 62.4187 166.144 62.4619C166.249 62.5051 166.343 62.5692 166.422 62.6502L168.801 65.0304C168.899 65.1249 169.029 65.1783 169.165 65.1797C169.301 65.1787 169.431 65.1252 169.528 65.0304L172.886 61.6639C172.917 61.6313 172.935 61.5876 172.935 61.542C172.935 61.4965 172.917 61.4527 172.886 61.4201L171.794 60.3283C171.699 60.231 171.646 60.1004 171.646 59.9643C171.646 59.8283 171.699 59.6976 171.794 59.6004C171.892 59.5059 172.022 59.4525 172.158 59.4512H176.047C176.183 59.4512 176.315 59.5056 176.412 59.6025C176.509 59.6995 176.563 59.8309 176.563 59.968V63.8221C176.563 63.9247 176.533 64.0249 176.476 64.1102C176.419 64.1954 176.338 64.2617 176.243 64.3007C176.148 64.3397 176.044 64.3497 175.944 64.3293C175.843 64.3089 175.751 64.259 175.679 64.1861L174.588 63.0943C174.572 63.0776 174.553 63.0644 174.532 63.0553C174.512 63.0462 174.489 63.0416 174.466 63.0416C174.443 63.0416 174.421 63.0462 174.4 63.0553C174.379 63.0644 174.36 63.0776 174.344 63.0943L169.801 67.6363C169.722 67.7168 169.627 67.7808 169.523 67.8246C169.419 67.8683 169.307 67.8909 169.194 67.891C169.08 67.8914 168.968 67.869 168.863 67.8253C168.758 67.7815 168.663 67.7173 168.583 67.6363L166.204 65.2597C166.106 65.1663 165.976 65.1141 165.84 65.1141C165.705 65.1141 165.575 65.1663 165.476 65.2597L161.53 69.2085C161.436 69.3059 161.324 69.3832 161.199 69.4358C161.075 69.4883 160.941 69.515 160.806 69.5142Z" fill="#81ADE3"/>
<path d="M168.179 114.756C165.435 114.757 162.753 113.943 160.471 112.418C158.189 110.893 156.41 108.726 155.36 106.189C154.309 103.653 154.034 100.862 154.569 98.1692C155.104 95.4763 156.425 93.0027 158.365 91.061C160.305 89.1194 162.777 87.797 165.468 87.2611C168.159 86.7252 170.948 86.9999 173.484 88.0504C176.019 89.1009 178.186 90.8801 179.71 93.1628C181.235 95.4456 182.048 98.1295 182.048 100.875C182.044 104.555 180.582 108.082 177.982 110.685C175.382 113.287 171.857 114.751 168.179 114.756Z" fill="#F0F0F0"/>
<path d="M225.649 77.2695C222.905 77.2702 220.222 76.4567 217.941 74.9319C215.659 73.4071 213.88 71.2395 212.83 68.7032C211.779 66.1668 211.504 63.3757 212.039 60.6829C212.573 57.99 213.894 55.5163 215.834 53.5747C217.774 51.6331 220.246 50.3107 222.937 49.7748C225.629 49.2389 228.418 49.5136 230.953 50.5641C233.488 51.6146 235.655 53.3937 237.18 55.6765C238.704 57.9593 239.518 60.6431 239.518 63.3887C239.514 67.0683 238.052 70.5961 235.452 73.1984C232.852 75.8006 229.326 77.2647 225.649 77.2695Z" fill="#F0F0F0"/>
<path d="M109.229 86.9824C106.848 86.9864 104.508 87.6004 102.431 88.7657C105.431 89.0325 108.243 90.3395 110.382 92.4607C112.521 94.5819 113.852 97.3841 114.145 100.383C114.439 103.382 113.676 106.389 111.989 108.885C110.301 111.381 107.795 113.209 104.904 114.053C105.45 114.237 106.008 114.386 106.574 114.497C107.453 114.672 108.347 114.758 109.244 114.755C112.923 114.755 116.452 113.293 119.053 110.689C121.655 108.086 123.116 104.556 123.116 100.874C123.116 97.1928 121.655 93.6621 119.053 91.0589C116.452 88.4558 112.923 86.9933 109.244 86.9933L109.229 86.9824Z" fill="#F0F0F0"/>
<path d="M103.966 88.0355C103.086 87.8611 102.192 87.7734 101.296 87.7734C97.729 87.7697 94.2974 89.1394 91.7124 91.5986C89.1274 94.0578 87.5872 97.4179 87.411 100.983C87.2348 104.547 88.4362 108.043 90.7661 110.745C93.096 113.448 96.3758 115.149 99.9256 115.498C103.476 115.846 107.023 114.815 109.834 112.617C112.644 110.419 114.501 107.223 115.021 103.692C115.54 100.161 114.682 96.5659 112.624 93.651C110.565 90.7361 107.465 88.7253 103.966 88.0355ZM104.904 114.065C103.128 114.581 101.261 114.71 99.4311 114.442C97.6008 114.174 95.8494 113.516 94.2953 112.512C92.7413 111.508 91.4208 110.182 90.4233 108.623C89.4258 107.065 88.7746 105.31 88.5136 103.478C88.2526 101.645 88.3881 99.7782 88.9107 98.0028C89.4333 96.2274 90.331 94.585 91.5429 93.1868C92.7549 91.7886 94.2528 90.6671 95.9355 89.8983C97.6181 89.1295 99.4461 88.7313 101.296 88.7306C101.678 88.7306 102.056 88.7306 102.431 88.7779C105.43 89.0447 108.243 90.3516 110.382 92.4729C112.521 94.5941 113.852 97.3963 114.145 100.395C114.439 103.394 113.676 106.402 111.988 108.898C110.301 111.393 107.795 113.221 104.904 114.065Z" fill="#8F8F8F"/>
<path d="M109.374 99.211C108.915 97.2001 107.678 95.4535 105.934 94.3544C104.19 93.2552 102.081 92.8932 100.07 93.3478C99.8736 93.3951 99.6699 93.4497 99.4917 93.5043L101.343 101.657L109.491 99.8042C109.454 99.615 109.418 99.4075 109.374 99.211Z" fill="#81ADE3"/>
<path d="M108.585 101.235L100.434 103.088L98.5714 94.9355C97.1511 95.3759 95.8867 96.2145 94.9281 97.3519C93.9695 98.4893 93.3569 99.8778 93.1629 101.353C92.9689 102.828 93.2017 104.328 93.8336 105.675C94.4655 107.022 95.4701 108.159 96.7282 108.952C97.9864 109.745 99.4454 110.16 100.932 110.149C102.419 110.138 103.872 109.7 105.118 108.888C106.364 108.076 107.351 106.923 107.962 105.567C108.573 104.211 108.783 102.707 108.567 101.235H108.585Z" fill="#2E6AB1"/>
<path d="M251.79 166.486C249.047 166.487 246.364 165.674 244.082 164.149C241.8 162.624 240.022 160.456 238.971 157.92C237.921 155.384 237.645 152.593 238.18 149.9C238.715 147.207 240.036 144.733 241.976 142.792C243.916 140.85 246.388 139.527 249.079 138.992C251.77 138.456 254.56 138.73 257.095 139.781C259.63 140.831 261.797 142.611 263.321 144.893C264.846 147.176 265.66 149.86 265.66 152.605C265.66 154.428 265.302 156.233 264.605 157.917C263.908 159.601 262.887 161.132 261.599 162.421C260.311 163.71 258.782 164.732 257.099 165.43C255.416 166.127 253.612 166.486 251.79 166.486ZM251.79 139.685C249.236 139.685 246.738 140.442 244.613 141.862C242.489 143.282 240.833 145.3 239.855 147.662C238.877 150.023 238.62 152.622 239.119 155.13C239.617 157.637 240.847 159.94 242.654 161.748C244.46 163.555 246.762 164.786 249.268 165.285C251.774 165.783 254.371 165.527 256.731 164.548C259.092 163.57 261.109 161.913 262.528 159.787C263.947 157.661 264.704 155.162 264.703 152.605C264.703 149.179 263.343 145.893 260.921 143.47C258.499 141.047 255.215 139.685 251.79 139.685Z" fill="#8F8F8F"/>
<path d="M257.774 158.168C257.266 158.168 256.769 158.017 256.347 157.735C255.925 157.452 255.596 157.051 255.401 156.582C255.207 156.112 255.156 155.595 255.255 155.097C255.354 154.599 255.599 154.141 255.958 153.781C256.317 153.422 256.775 153.177 257.273 153.078C257.771 152.979 258.287 153.03 258.756 153.224C259.226 153.419 259.627 153.748 259.909 154.171C260.191 154.593 260.342 155.09 260.342 155.598C260.345 155.937 260.28 156.272 260.152 156.585C260.024 156.898 259.835 157.182 259.596 157.422C259.357 157.661 259.073 157.85 258.76 157.978C258.447 158.106 258.112 158.171 257.774 158.168ZM251.79 158.168C251.113 158.168 250.463 157.9 249.982 157.423C249.501 156.946 249.228 156.298 249.222 155.62V149.611C249.247 148.947 249.529 148.318 250.007 147.857C250.486 147.396 251.124 147.139 251.788 147.139C252.453 147.139 253.091 147.396 253.57 147.857C254.048 148.318 254.33 148.947 254.355 149.611V155.602C254.355 155.939 254.288 156.273 254.159 156.584C254.031 156.895 253.842 157.178 253.603 157.416C253.365 157.654 253.083 157.843 252.772 157.972C252.46 158.101 252.127 158.168 251.79 158.168ZM245.807 158.168C245.13 158.168 244.48 157.9 243.999 157.423C243.518 156.946 243.245 156.298 243.239 155.62V153.222C243.226 152.876 243.283 152.532 243.406 152.209C243.529 151.886 243.716 151.592 243.955 151.343C244.195 151.094 244.482 150.896 244.8 150.761C245.118 150.625 245.46 150.556 245.805 150.556C246.15 150.556 246.492 150.625 246.81 150.761C247.128 150.896 247.415 151.094 247.655 151.343C247.894 151.592 248.081 151.886 248.204 152.209C248.327 152.532 248.384 152.876 248.371 153.222V155.616C248.367 156.294 248.095 156.943 247.615 157.421C247.134 157.899 246.484 158.168 245.807 158.168Z" fill="#E6AD0A"/>
<path d="M75.8856 214.881L80.1122 214.4L80.2758 197.852L74.0342 198.561L75.8856 214.881Z" fill="#A0616A"/>
<path d="M88.7143 217.402L75.4235 218.909L74.8416 213.773L82.9964 212.845C83.6709 212.769 84.3538 212.826 85.0062 213.014C85.6586 213.201 86.2676 213.516 86.7986 213.939C87.3295 214.362 87.772 214.885 88.1007 215.48C88.4294 216.074 88.6379 216.727 88.7143 217.402Z" fill="#1C292E"/>
<path d="M32.4014 214.615H36.657L38.6794 198.193H32.4014V214.615Z" fill="#A0616A"/>
<path d="M44.8627 218.566H31.4883V213.398H39.6977C40.376 213.398 41.0476 213.532 41.6743 213.792C42.3009 214.052 42.8703 214.432 43.3499 214.912C43.8296 215.392 44.21 215.962 44.4696 216.589C44.7291 217.216 44.8627 217.888 44.8627 218.566Z" fill="#1C292E"/>
<path d="M62.9257 141.171L65.3554 149.079L78.5662 177.638L82.0362 204.726L74.0559 205.09L69.1819 180.069L52.5193 162.01L37.9409 209.243L31.3464 208.541C31.3464 208.541 36.9006 147.416 44.5354 141.163C44.5354 141.171 57.0332 135.268 62.9257 141.171Z" fill="#1C292E"/>
<path d="M52.1558 107.05C56.8645 107.05 60.6817 103.231 60.6817 98.5191C60.6817 93.8077 56.8645 89.9883 52.1558 89.9883C47.4471 89.9883 43.6299 93.8077 43.6299 98.5191C43.6299 103.231 47.4471 107.05 52.1558 107.05Z" fill="#A0616A"/>
<path d="M63.7987 142.736C63.7987 142.736 64.8426 107.31 50.2642 109.741C35.6858 112.172 41.7602 146.383 41.7602 146.383C41.7602 146.383 44.8846 152.635 52.5194 145.688C60.1541 138.74 63.7987 142.736 63.7987 142.736Z" fill="#81ADE3"/>
<path d="M93.9813 113.25C93.7356 113.637 93.4159 113.972 93.0406 114.236C92.6653 114.5 92.2417 114.687 91.7941 114.786C91.3464 114.886 90.8835 114.896 90.4319 114.817C89.9802 114.737 89.5486 114.57 89.1618 114.323C88.9889 114.217 88.8257 114.095 88.6744 113.959L77.7625 119.848L78.3335 113.424L88.609 108.82C89.2308 108.228 90.0482 107.884 90.9064 107.854C91.7646 107.824 92.6041 108.109 93.266 108.657C93.9278 109.204 94.3662 109.975 94.498 110.824C94.6298 111.674 94.446 112.541 93.9813 113.264V113.25Z" fill="#A0616A"/>
<path d="M52.0719 114.067L69.7966 117.066L85.6844 109.547L88.096 114.708L70.7059 125.79C70.7059 125.79 52.2974 127.038 48.0417 122.183C46.4449 120.363 46.2631 118.704 46.6559 117.343C47.005 116.23 47.7479 115.284 48.7451 114.68C49.7423 114.077 50.9253 113.859 52.0719 114.067Z" fill="#81ADE3"/>
<path d="M51.1408 107.484C51.2067 107.42 51.246 107.333 51.2507 107.242C51.2555 107.15 51.2253 107.059 51.1663 106.989C51.1443 106.963 51.1185 106.941 51.0899 106.924C50.3321 106.455 49.7146 105.791 49.3025 105C48.8903 104.21 48.6987 103.323 48.7479 102.433C48.797 101.543 49.0851 100.683 49.5817 99.9433C50.0784 99.2034 50.7653 98.6111 51.57 98.2289C54.0761 97.0315 57.4734 97.9632 59.3248 95.6813C59.7019 95.1903 59.9686 94.6236 60.1067 94.02C60.2448 93.4164 60.2511 92.79 60.125 92.1838C59.7249 90.0001 58.0917 88.4024 56.2658 87.296C54.0239 85.9409 51.4477 85.2407 48.8288 85.2746C46.2098 85.3085 43.6526 86.075 41.4465 87.4876C39.2403 88.9001 37.4733 90.9023 36.3453 93.2675C35.2173 95.6327 34.7734 98.2666 35.0638 100.871C35.3002 102.957 35.944 105.3 34.7001 106.996C33.6089 108.488 31.5429 108.769 29.7315 109.14C25.8468 109.933 22.0931 111.771 19.4633 114.734C16.8335 117.696 15.4222 121.856 16.2188 125.743C17.0154 129.63 20.2017 133.047 24.1227 133.652C27.3127 134.139 30.6081 132.785 32.9505 130.562C35.293 128.338 36.7733 125.343 37.7081 122.249C38.7993 118.581 39.254 114.625 41.2545 111.356C43.2151 108.161 47.438 105.868 50.7443 107.531C50.8078 107.563 50.8792 107.575 50.9496 107.567C51.0201 107.559 51.0865 107.53 51.1408 107.484Z" fill="#1C292E"/>
<path d="M298.192 170.625C298.655 170.398 299.062 170.07 299.384 169.667C299.707 169.263 299.936 168.794 300.056 168.292C300.176 167.79 300.184 167.267 300.08 166.761C299.975 166.256 299.76 165.779 299.45 165.366L307.667 119.873L300 119.771L294.296 164.759C293.639 165.322 293.211 166.107 293.093 166.965C292.974 167.823 293.173 168.694 293.652 169.415C294.131 170.137 294.856 170.658 295.693 170.881C296.529 171.104 297.418 171.013 298.192 170.625Z" fill="#FFB8B8"/>
<path d="M274.404 168.467L271.494 182.297L271.858 213.232H277.314L279.86 183.025L283.861 170.287L274.404 168.467Z" fill="#FFB8B8"/>
<path d="M292.434 169.504L289.524 183.334L289.888 214.269H295.344L297.89 184.062L301.891 171.324L292.434 169.504Z" fill="#FFB8B8"/>
<path d="M269.952 212.883L278.55 212.861V218.277L264.536 218.313C264.534 217.601 264.673 216.895 264.945 216.236C265.216 215.577 265.615 214.979 266.118 214.474C266.621 213.97 267.219 213.57 267.877 213.297C268.534 213.024 269.239 212.883 269.952 212.883Z" fill="#1C292E"/>
<path d="M288.116 213.465H296.719V218.88L282.704 218.917C282.7 218.203 282.837 217.495 283.107 216.834C283.378 216.173 283.776 215.573 284.278 215.066C284.781 214.559 285.379 214.157 286.038 213.882C286.696 213.608 287.403 213.466 288.116 213.465Z" fill="#1C292E"/>
<path d="M287.68 100.641C292.614 100.641 296.613 96.6387 296.613 91.7021C296.613 86.7656 292.614 82.7637 287.68 82.7637C282.746 82.7637 278.747 86.7656 278.747 91.7021C278.747 96.6387 282.746 100.641 287.68 100.641Z" fill="#FFB8B8"/>
<path d="M307.42 113.813C304.703 109.547 296.169 99.426 283.472 105.235C282.471 105.697 281.635 106.456 281.078 107.407C280.521 108.359 280.268 109.459 280.354 110.559C280.969 118.675 281.744 139.351 275.131 151.725C275.131 151.725 294.409 157.548 304.957 152.089C304.957 152.089 301.32 127.704 304.957 122.973C306.168 121.46 307.149 119.776 307.867 117.976C308.12 117.295 308.212 116.564 308.134 115.842C308.057 115.119 307.812 114.424 307.42 113.813Z" fill="#003962"/>
<path d="M303.866 113.51L307.434 114.998C307.671 115.098 307.876 115.263 308.022 115.474C308.169 115.686 308.253 115.935 308.263 116.192L308.594 124.064L300.592 123.336L303.866 113.51Z" fill="#003962"/>
<path d="M276.586 150.996C276.586 150.996 268.584 165.918 270.039 179.748L281.315 181.567L289.317 162.278L287.498 181.931L299.138 182.295C299.138 182.295 306.776 153.908 304.23 151.36L276.586 150.996Z" fill="#1C292E"/>
<path d="M265.219 152.329C266.14 152.188 266.968 151.687 267.521 150.937C268.074 150.186 268.307 149.247 268.169 148.325C268.139 148.12 268.09 147.918 268.024 147.721L284.257 117.102L276.982 114.664L263.295 145.567C262.497 145.903 261.85 146.519 261.475 147.3C261.1 148.081 261.024 148.972 261.26 149.805C261.496 150.638 262.029 151.356 262.757 151.824C263.486 152.291 264.36 152.476 265.216 152.343L265.219 152.329Z" fill="#FFB8B8"/>
<path d="M286.472 108.798L283.464 107.451C283.464 107.451 280.918 105.872 278.656 109.351C276.393 112.831 273.956 120.466 273.956 120.466L283.777 123.228L286.472 108.798Z" fill="#003962"/>
<path d="M289.109 96.0075C289.429 94.8938 289.339 93.3835 288.258 92.9613C287.694 92.7429 287.069 92.9176 286.469 92.9613C285.292 93.0745 284.115 92.7507 283.162 92.0514C282.046 91.218 281.344 89.9515 280.703 88.7214L279.711 86.8798C279.491 86.4931 279.304 86.089 279.15 85.6715C278.597 84.0301 279.198 82.1303 280.423 80.9111C281.708 79.7156 283.398 79.0533 285.152 79.0586C286.888 79.0767 288.602 79.4482 290.19 80.1505C293.013 81.3017 295.569 83.0211 297.701 85.202C299.097 86.6287 300.363 88.4775 300.072 90.461C299.847 91.9969 298.726 93.227 297.661 94.3552L293.787 98.4423C293.103 99.1702 292.368 99.9199 291.412 100.2C290.455 100.48 289.229 100.069 288.96 99.1083C288.946 99.0938 288.804 97.1212 289.109 96.0075Z" fill="#1C292E"/>
<path d="M342.636 218.999H0.363733C0.267265 218.999 0.174748 218.961 0.106535 218.893C0.0383217 218.825 0 218.732 0 218.635C0 218.539 0.0383217 218.446 0.106535 218.378C0.174748 218.31 0.267265 218.271 0.363733 218.271H342.636C342.733 218.271 342.825 218.31 342.893 218.378C342.962 218.446 343 218.539 343 218.635C343 218.732 342.962 218.825 342.893 218.893C342.825 218.961 342.733 218.999 342.636 218.999Z" fill="#3F3D56"/>
<path d="M230.607 107.477H220.422C220.133 107.477 219.855 107.362 219.65 107.157C219.446 106.952 219.331 106.674 219.331 106.385C219.331 106.095 219.446 105.818 219.65 105.613C219.855 105.408 220.133 105.293 220.422 105.293H230.607C230.896 105.293 231.173 105.408 231.378 105.613C231.583 105.818 231.698 106.095 231.698 106.385C231.698 106.674 231.583 106.952 231.378 107.157C231.173 107.362 230.896 107.477 230.607 107.477Z" fill="#2E6AB1"/>
<path d="M230.607 102.744H220.422C220.133 102.744 219.855 102.629 219.65 102.424C219.446 102.22 219.331 101.942 219.331 101.652C219.331 101.363 219.446 101.085 219.65 100.88C219.855 100.676 220.133 100.561 220.422 100.561H230.607C230.896 100.561 231.173 100.676 231.378 100.88C231.583 101.085 231.698 101.363 231.698 101.652C231.698 101.942 231.583 102.22 231.378 102.424C231.173 102.629 230.896 102.744 230.607 102.744Z" fill="#2E6AB1"/>
<path d="M230.607 98.0138H220.422C220.133 98.0138 219.855 97.8987 219.65 97.694C219.446 97.4892 219.331 97.2115 219.331 96.9219C219.331 96.6323 219.446 96.3546 219.65 96.1499C219.855 95.9451 220.133 95.8301 220.422 95.8301H230.607C230.896 95.8301 231.173 95.9451 231.378 96.1499C231.583 96.3546 231.698 96.6323 231.698 96.9219C231.698 97.2115 231.583 97.4892 231.378 97.694C231.173 97.8987 230.896 98.0138 230.607 98.0138Z" fill="#2E6AB1"/>
</svg>
