<svg width="399" height="280" viewBox="0 0 399 280" fill="none" xmlns="http://www.w3.org/2000/svg">
<path opacity="0.36" d="M169.745 10.7598C153.526 4.57331 136.387 -0.594374 118.891 0.0552781C93.1659 1.00761 68.4713 15.5251 56.3779 36.8418C46.1174 54.9029 44.8513 76.0719 40.4313 96.1152C34.9919 120.806 24.5547 144.278 13.4108 167.226C7.42669 179.555 1.10399 192.149 0.128721 205.663C-1.23298 224.425 8.32468 243.121 23.3144 255.601C38.3041 268.081 58.2107 274.666 78.1909 276.098C88.8232 276.862 99.9339 276.154 109.377 271.51C119.369 266.597 126.653 257.72 136.685 252.877C145.981 248.388 156.857 247.761 167.294 248.344C180.921 249.104 194.374 251.788 207.254 256.317C221.843 261.455 235.408 268.9 249.945 274.112C264.482 279.324 280.764 282.233 295.64 277.885C309.625 273.799 320.665 263.858 330.621 253.829C346.898 237.43 361.819 219.729 375.233 200.901C384.216 188.273 392.578 174.952 396.549 160.235C404.145 132.097 393.693 100.353 370.511 81.1363C351.304 65.2198 325.527 58.3172 300.31 54.1167C277.301 50.2926 250.696 50.0563 229.516 40.0901C209.304 30.5742 190.925 18.8435 169.745 10.7598Z" fill="#C9DAEF"/>
<path d="M232.807 228.482V241.892H236.608L235.872 227.496L232.807 228.482Z" fill="#AAABB0"/>
<path d="M175.699 225.777V239.187H179.505L178.769 224.791L175.699 225.777Z" fill="#AAABB0"/>
<path d="M239.677 203.629H239.674C238.32 203.629 237.223 204.73 237.223 206.087V225.042C237.223 226.399 238.32 227.5 239.674 227.5H239.677C241.031 227.5 242.128 226.399 242.128 225.042V206.087C242.128 204.73 241.031 203.629 239.677 203.629Z" fill="#AAABB0"/>
<path d="M176.741 198.336C177.392 198.336 178.017 198.595 178.477 199.057C178.937 199.519 179.196 200.145 179.196 200.798V225.034C179.196 225.687 178.937 226.314 178.477 226.775C178.017 227.237 177.392 227.496 176.741 227.496C176.091 227.495 175.467 227.236 175.008 226.774C174.548 226.312 174.29 225.687 174.29 225.034V200.798C174.29 200.146 174.548 199.52 175.008 199.058C175.467 198.597 176.091 198.337 176.741 198.336Z" fill="#AAABB0"/>
<path d="M248.389 60.7798C248.389 60.7798 253.294 58.6869 254.031 60.7798C254.767 62.8727 255.135 80.9596 255.135 80.9596H250.472L248.389 60.7798Z" fill="#AAABB0"/>
<path d="M194.657 60.7798C194.657 60.7798 189.747 58.6869 189.011 60.7798C188.275 62.8727 187.907 80.9596 187.907 80.9596H192.57L194.657 60.7798Z" fill="#AAABB0"/>
<path d="M195.389 42.8144L194.653 57.8266H197.966V42.4453L195.389 42.8144Z" fill="#AAABB0"/>
<path d="M192.57 80.9578L193.553 59.3015C193.553 59.3015 193.185 54.503 204.837 55.9794C216.488 57.4559 250.597 60.4089 250.597 60.4089V80.9578H192.57Z" fill="#1C292E"/>
<path d="M239.188 195.017L237.348 228.112C237.348 228.112 210.357 243.124 177.603 228.85L180.547 194.031L239.188 195.017Z" fill="#1C292E"/>
<path d="M213.548 64.714L214.159 86.1229H252.191L249.982 57.8262L213.548 64.714Z" fill="#424242"/>
<path d="M217.412 180.865H181.588V226.389H217.412V180.865Z" fill="#424242"/>
<path d="M204.226 199.448C204.226 199.448 209.378 195.387 210.236 196.617C211.093 197.846 207.174 203.139 205.576 202.522C203.979 201.906 204.226 199.448 204.226 199.448Z" fill="#FFB9B9"/>
<path d="M347.226 79.7266H112.068V197.845H347.226V79.7266Z" fill="#8F8F8F"/>
<path d="M192.692 41.955C192.692 41.955 190.852 24.7281 192.692 22.6389C194.532 20.5497 225.446 0.735311 254.031 23.9899C254.031 23.9899 256.729 24.1154 256.239 30.2649C255.951 34.1571 255.971 38.066 256.298 41.955C256.298 41.955 194.779 46.3844 192.692 41.955Z" fill="#33323D"/>
<path opacity="0.6" d="M192.692 41.955C192.692 41.955 190.852 24.7281 192.692 22.6389C194.532 20.5497 225.446 0.735311 254.031 23.9899C254.031 23.9899 256.729 24.1154 256.239 30.2649C255.951 34.1571 255.971 38.066 256.298 41.955C256.298 41.955 194.779 46.3844 192.692 41.955Z" fill="#1C292E"/>
<path d="M192.692 44.1698C192.692 44.1698 190.852 26.943 192.692 24.8538C194.532 22.7645 225.446 2.95015 254.031 26.2047C254.031 26.2047 256.729 26.3302 256.239 32.4798C255.951 36.3719 255.971 40.2808 256.298 44.1698C256.298 44.1698 194.779 48.5993 192.692 44.1698Z" fill="#1C292E"/>
<path d="M257.342 36.2949C257.342 36.2949 259.304 43.6773 258.693 44.9065C258.082 46.1357 258.192 49.5833 258.192 49.5833C258.192 49.5833 258.325 51.798 257.342 52.0416C256.36 52.2852 255.502 52.4107 256.297 53.149C257.092 53.8872 256.297 54.9946 256.297 54.9946C256.297 54.9946 255.866 56.7184 256.297 57.8257C256.728 58.9331 253.78 59.3945 254.03 60.7787C254.28 62.1629 255.105 66.0682 254.03 66.1937C252.955 66.3192 254.398 71.114 253.43 71.114C252.462 71.114 251.774 79.7256 251.774 79.7256C251.774 79.7256 244.966 73.9452 240.428 75.5435C240.428 75.5435 240.796 70.7449 242.268 69.0211C243.74 67.2973 243.295 62.8716 243.295 62.8716L250.596 40.8462L257.342 36.2949Z" fill="#E6AD0A"/>
<path d="M220.908 138.092C219.314 139.86 217.596 130.418 217.596 130.418C217.596 130.418 213.058 136.693 210.114 132.511C208.075 129.613 209.683 121.404 210.85 116.638C211.372 114.52 211.814 113.08 211.814 113.08L218.438 111.973C218.438 111.973 218.46 113.42 218.608 115.177C218.806 117.55 219.237 120.496 220.153 121.201C221.769 122.422 222.505 136.309 220.908 138.092Z" fill="#AE6E79"/>
<path opacity="0.1" d="M217.474 27.5574C217.474 27.5574 205.94 27.4356 203.121 33.5851C200.302 39.7347 200.177 41.8313 199.073 42.8132C197.969 43.795 211.093 48.9664 211.093 48.9664L211.707 70.1281C211.707 70.1281 214.283 67.511 218.453 68.6959C222.623 69.8808 227.9 68.6959 227.9 68.6959C227.9 68.6959 227.654 68.2492 231.091 68.6959C234.528 69.1425 245.444 63.3621 245.444 63.3621C245.444 63.3621 245.625 54.1046 245.382 52.1334C245.139 50.1623 253.169 35.6781 253.169 35.6781C253.169 35.6781 259.426 29.6503 252.926 27.5574C252.926 27.5574 250.626 24.0803 244.708 24.1135C238.79 24.1467 217.474 27.5574 217.474 27.5574Z" fill="black"/>
<path d="M217.474 27.1883C217.474 27.1883 205.94 27.0665 203.121 33.216C200.302 39.3656 200.177 41.4622 199.073 42.444C197.969 43.4259 211.093 48.5973 211.093 48.5973L211.707 69.7589C211.707 69.7589 214.283 67.1419 218.453 68.3267C222.623 69.5116 227.9 68.3267 227.9 68.3267C227.9 68.3267 227.654 67.8801 231.091 68.3267C234.528 68.7734 245.444 62.993 245.444 62.993C245.444 62.993 249.735 55.9797 249.492 54.0123C249.25 52.0448 258.079 37.1545 258.079 37.1545C258.079 37.1545 259.429 29.2812 252.926 27.1883C252.926 27.1883 250.626 23.7112 244.708 23.7444C238.79 23.7776 217.474 27.1883 217.474 27.1883Z" fill="#E6AD0A"/>
<path opacity="0.1" d="M218.637 115.162C216.109 114.372 212.141 116.114 210.879 116.638C211.402 114.52 211.843 113.08 211.843 113.08L218.468 111.973C218.468 111.973 218.479 113.423 218.637 115.162Z" fill="black"/>
<path d="M202.628 42.4453H199.073C199.073 42.4453 198.337 49.9532 199.073 52.1679C199.809 54.3827 200.177 54.0615 199.931 55.7004C199.684 57.3393 201.649 59.8493 201.649 59.8493C201.649 59.8493 201.892 66.0358 203.122 68.3391C204.351 70.6424 201.771 80.9704 201.771 80.9704C202.475 82.7533 203.516 84.3827 204.837 85.769C206.923 87.8582 208.027 95.6097 207.413 98.5627C206.798 101.516 209.131 102.623 209.131 102.623C209.131 102.623 210.114 116.406 210.482 116.406C210.85 116.406 217.964 112.715 220.172 115.911L218.454 103.239L218.579 78.7557C218.579 78.7557 216.245 75.6772 217.475 72.9716C218.704 70.2659 216.492 63.8543 216.492 63.8543L213.301 49.5841L202.628 42.4453Z" fill="#E6AD0A"/>
<path d="M180.547 236.973C180.547 236.973 175.395 235.865 175.273 236.973C175.152 238.08 169.138 249.401 176.624 252.723C184.11 256.045 204.101 263.18 236.612 253.952C236.612 253.952 238.695 254.69 238.206 250.139C237.716 245.588 237.716 240.542 237.716 240.542C237.716 240.542 232.807 239.187 229.127 239.682C225.446 240.177 193.428 246.695 180.547 236.973Z" fill="#33323D"/>
<path opacity="0.1" d="M180.547 236.973C180.547 236.973 175.395 235.865 175.273 236.973C175.152 238.08 169.138 249.401 176.624 252.723C184.11 256.045 204.101 263.18 236.612 253.952C236.612 253.952 238.695 254.69 238.206 250.139C237.716 245.588 237.716 240.542 237.716 240.542C237.716 240.542 232.807 239.187 229.127 239.682C225.446 240.177 193.428 246.695 180.547 236.973Z" fill="#1C292E"/>
<path d="M180.547 235.496C180.547 235.496 175.395 234.389 175.273 235.496C175.152 236.603 169.138 247.924 176.624 251.246C184.11 254.569 204.101 261.704 236.612 252.476C236.612 252.476 238.695 253.214 238.206 248.663C237.716 244.111 237.716 239.065 237.716 239.065C237.716 239.065 232.807 237.711 229.127 238.205C225.446 238.7 193.428 245.219 180.547 235.496Z" fill="#1C292E"/>
<path d="M210.592 46.875C210.276 48.68 209.558 50.4148 209.448 52.242C209.337 54.0691 210.04 56.1473 211.722 56.8634C212.192 57.003 212.647 57.1885 213.08 57.417C213.728 57.8563 213.993 58.6831 214.129 59.4583C214.31 60.459 214.353 61.4799 214.258 62.4925C214.166 63.5112 213.949 64.6075 214.449 65.4971C215.329 67.0732 217.622 66.8407 219.366 66.3977L218.766 71.0597C218.718 71.4289 218.689 71.846 218.958 72.097C219.084 72.1866 219.228 72.2499 219.38 72.2828C219.531 72.3158 219.688 72.3179 219.841 72.2889C221.357 72.1929 222.918 71.9825 224.217 71.1816C225.516 70.3806 226.484 68.8893 226.237 67.387C225.95 65.6447 224.154 64.2605 224.397 62.5109C224.585 61.1562 225.906 60.2962 226.774 59.2553C228.346 57.3506 228.431 54.4567 227.198 52.301C225.965 50.1454 223.584 48.8092 221.133 48.5655C219.775 48.429 218.361 48.5951 217.084 48.1226C216.64 47.9589 216.24 47.6945 215.914 47.35C215.588 47.0056 215.347 46.5903 215.207 46.1367" fill="#444053"/>
<path d="M167.791 211.01L169.075 208.205C169.075 208.205 176.009 201.727 177.603 201.273C179.196 200.819 185.699 198.84 186.682 198.84C187.664 198.84 205.576 197.844 205.576 197.844L207.659 202.768L185.18 207.718L177.603 213.255L167.791 211.01Z" fill="#003962"/>
<path d="M221.799 135.463L220.625 144.524L220.172 148.013L214.898 148.751C214.898 148.751 214.328 147.525 213.522 145.643C211.075 139.929 206.467 128.147 209.139 126.113C212.69 123.403 213.555 132.388 213.555 132.388L217.603 130.417L221.799 135.463Z" fill="#FFB9B9"/>
<path d="M220.919 152.32H194.285V192.676H220.919V152.32Z" fill="white"/>
<path opacity="0.1" d="M220.919 152.32H194.285V192.676H220.919V152.32Z" fill="black"/>
<path d="M206.543 150.599L200.658 190.521L227.006 194.428L232.891 154.506L206.543 150.599Z" fill="white"/>
<path d="M209.02 154.408L205.991 174.955L219.553 176.966L222.582 156.419L209.02 154.408Z" fill="#2E6AB1"/>
<path d="M204.541 180.802L203.883 185.264L220.313 187.7L220.971 183.238L204.541 180.802Z" fill="#2E6AB1"/>
<path opacity="0.1" d="M227.9 50.5037C236.403 50.5037 243.295 43.5908 243.295 35.0634C243.295 26.5359 236.403 19.623 227.9 19.623C219.398 19.623 212.506 26.5359 212.506 35.0634C212.506 43.5908 219.398 50.5037 227.9 50.5037Z" fill="black"/>
<path d="M227.9 50.1345C236.403 50.1345 243.295 43.2217 243.295 34.6942C243.295 26.1668 236.403 19.2539 227.9 19.2539C219.398 19.2539 212.506 26.1668 212.506 34.6942C212.506 43.2217 219.398 50.1345 227.9 50.1345Z" fill="#AE6E79"/>
<path d="M215.207 46.1375C215.104 45.7397 215.141 45.3182 215.314 44.9452C215.899 43.7234 217.566 43.6164 218.917 43.6791C222.093 43.8268 225.578 43.8453 228.062 41.8335C229.093 41.0067 230.245 38.9286 231.742 39.3235C233.075 39.6742 233.63 41.4866 235.018 41.8889C236.023 42.1805 237.064 41.7154 238.087 41.5198C239.559 41.2282 241.068 41.4718 242.562 41.4829C244.057 41.494 245.68 41.2097 246.699 40.1134C248.075 38.637 247.851 36.33 247.729 34.3072C247.579 31.6943 247.755 29.0727 248.256 26.504C248.756 23.9497 249.525 21.0927 248.12 18.9038C246.78 16.8183 244.001 16.2387 242.11 14.6478C240.336 13.1713 239.397 10.8053 237.524 9.43585C235.165 7.71206 231.96 7.95937 229.059 8.25835L222.766 8.93015C221.143 9.10364 219.454 9.29927 218.118 10.2701C215.707 12.0197 215.376 15.6555 213.094 17.5713C212.079 18.4202 210.78 18.841 209.62 19.4759C208.461 20.1108 207.342 21.1148 207.21 22.4289C207.099 23.5363 207.696 24.5587 207.986 25.6255C208.674 28.1724 207.618 30.7932 206.912 33.3585C206.205 35.9239 206.091 39.0393 208.089 40.741C208.494 41.0879 208.965 41.3537 209.359 41.7154C210.71 42.952 210.894 45.0375 210.581 46.8388" fill="#444053"/>
<path d="M229.155 53.9804C229.358 53.9804 229.523 53.5672 229.523 53.0576C229.523 52.5479 229.358 52.1348 229.155 52.1348C228.952 52.1348 228.787 52.5479 228.787 53.0576C228.787 53.5672 228.952 53.9804 229.155 53.9804Z" fill="#444053"/>
<path d="M229.155 57.8261C229.358 57.8261 229.523 57.4129 229.523 56.9033C229.523 56.3936 229.358 55.9805 229.155 55.9805C228.952 55.9805 228.787 56.3936 228.787 56.9033C228.787 57.4129 228.952 57.8261 229.155 57.8261Z" fill="#444053"/>
<path d="M220.993 138.067C221.387 137.613 221.648 136.446 221.799 134.907L217.412 129.422C217.412 129.422 219.271 140.056 220.993 138.067Z" fill="#AE6E79"/>
<path opacity="0.1" d="M225.939 228.73C225.939 228.73 218.741 239.892 196.251 238.696C175.063 237.589 164.722 227.132 165.215 223.441C165.708 219.749 163.864 210.765 168.402 208.181C171.034 206.705 174.497 207.572 176.94 208.584C177.785 208.927 178.709 209.024 179.606 208.862C180.502 208.701 181.335 208.288 182.008 207.672C184.242 205.653 188.408 203.379 194.985 205.169C195.831 205.395 196.724 205.379 197.561 205.121C200.299 204.283 206.817 202.829 211.546 206.059C212.293 206.575 213.172 206.868 214.079 206.903C214.986 206.938 215.884 206.713 216.669 206.254L216.735 206.214C218.943 204.859 229.248 217.657 229.248 217.657C229.248 217.657 229.741 227.501 225.939 228.73Z" fill="black"/>
<path d="M225.939 229.099C225.939 229.099 218.741 240.261 196.251 239.066C175.063 237.958 164.722 227.501 165.215 223.81C165.708 220.119 163.864 211.134 168.402 208.55C171.034 207.074 174.497 207.941 176.94 208.953C177.785 209.296 178.709 209.393 179.606 209.231C180.502 209.07 181.335 208.657 182.008 208.041C184.242 206.022 188.408 203.748 194.985 205.538C195.831 205.764 196.724 205.748 197.561 205.49C200.299 204.652 206.817 203.198 211.546 206.428C212.293 206.945 213.172 207.237 214.079 207.272C214.986 207.307 215.884 207.082 216.669 206.624L216.735 206.583C218.943 205.228 229.248 218.026 229.248 218.026C229.248 218.026 229.741 227.87 225.939 229.099Z" fill="#003962"/>
<path opacity="0.1" d="M201.863 232.35C209.344 229.242 212.897 220.639 209.798 213.136C206.699 205.632 198.122 202.069 190.641 205.177C183.16 208.285 179.607 216.887 182.706 224.391C185.805 231.895 194.381 235.458 201.863 232.35Z" fill="black"/>
<path d="M201.86 232.721C209.341 229.613 212.894 221.01 209.795 213.507C206.696 206.003 198.119 202.44 190.638 205.548C183.157 208.656 179.604 217.259 182.703 224.762C185.802 232.266 194.379 235.829 201.86 232.721Z" fill="#FFB9B9"/>
<path d="M192.047 206.421C190.509 206.838 188.992 207.635 188.242 208.945C187.789 209.735 187.631 210.684 186.976 211.341C186.048 212.275 184.484 212.293 183.229 212.818C181.974 213.342 181.146 215.187 182.375 215.77C181.095 215.837 180.145 217.022 179.987 218.199C179.829 219.377 180.274 220.551 180.704 221.673C182.11 225.305 183.623 229.096 186.722 231.68C191.771 235.895 199.382 235.699 206.165 235.253C206.719 235.272 207.268 235.145 207.758 234.884C208.494 234.396 208.586 233.462 208.708 232.643C209.219 229.144 211.111 225.966 212.347 222.625C213.584 219.285 214.092 215.361 212.009 212.404C208.943 208.019 197.207 205.018 192.047 206.421Z" fill="#B96B6B"/>
<path opacity="0.1" d="M220.625 144.525L220.173 148.013L214.899 148.752C214.899 148.752 214.328 147.526 213.522 145.644L220.541 144.322L220.625 144.525Z" fill="black"/>
<path d="M226.182 221.594L229.251 218.025L228.636 198.339C228.938 196.919 229.144 195.48 229.251 194.032C229.372 191.939 227.716 187.266 227.716 187.266C227.975 186.331 228.323 185.423 228.758 184.556C229.494 183.08 227.72 179.758 227.72 179.758C227.72 179.758 225.078 171.146 226.182 166.839C227.286 162.531 225.913 160.073 225.913 160.073C225.913 160.073 224.835 155.274 224.956 153.307C225.078 151.339 222.501 149.49 222.501 149.49L220.54 144.691L212.69 146.168V162.778C212.69 162.778 213.179 178.65 212.69 181.729C212.2 184.807 213.669 187.757 213.669 187.757C213.669 187.757 212.811 192.308 213.547 194.032C214.283 195.756 215.755 199.938 215.755 199.938C215.483 201.432 215.568 202.971 216.002 204.426C216.738 206.582 216.002 207.811 216.002 207.811L226.182 221.594Z" fill="#003962"/>
<g opacity="0.1">
<path opacity="0.1" d="M248.266 25.2888C247.852 27.4495 247.665 29.6481 247.711 31.848C247.742 30.0188 247.933 28.1958 248.281 26.3998C248.605 24.7609 249.017 22.9965 248.929 21.3613C248.793 22.6835 248.572 23.9954 248.266 25.2888Z" fill="black"/>
<path opacity="0.1" d="M209.37 40.5268C208.976 40.1577 208.505 39.8993 208.101 39.5486C207.026 38.6295 206.573 37.297 206.485 35.8574C206.378 37.703 206.754 39.4896 208.101 40.656C208.505 41.0067 208.976 41.2724 209.37 41.6342C210.194 42.451 210.671 43.5551 210.703 44.7163C210.809 43.1845 210.511 41.553 209.37 40.5268Z" fill="black"/>
<path opacity="0.1" d="M208.197 26.7432C208.26 25.9635 208.193 25.1788 207.998 24.4214C207.785 23.6315 207.402 22.86 207.262 22.0664C207.253 22.1557 207.24 22.2444 207.222 22.3322C207.115 23.4395 207.711 24.462 207.998 25.5288C208.105 25.9259 208.171 26.3327 208.197 26.7432Z" fill="black"/>
<path opacity="0.1" d="M246.711 38.8967C245.691 40.0041 244.068 40.2772 242.574 40.2661C241.08 40.2551 239.567 40.0114 238.099 40.3067C237.076 40.5134 236.034 40.9748 235.03 40.6759C233.642 40.2735 233.087 38.4611 231.758 38.1105C230.245 37.7118 229.093 39.79 228.078 40.6168C225.593 42.61 222.108 42.5916 218.932 42.4624C217.582 42.3996 215.914 42.5067 215.333 43.7322C215.157 44.1041 215.119 44.527 215.226 44.9244L210.729 45.6331C210.711 46.0044 210.67 46.3742 210.607 46.7405L215.226 46.0023C215.119 45.6048 215.157 45.182 215.333 44.81C215.914 43.5845 217.582 43.4775 218.932 43.5402C222.108 43.6879 225.593 43.7063 228.078 41.6946C229.108 40.8678 230.26 38.7897 231.758 39.1883C233.087 39.5353 233.642 41.3513 235.03 41.7537C236.034 42.0416 237.076 41.5802 238.099 41.3846C239.571 41.0893 241.08 41.3329 242.574 41.344C244.068 41.355 245.691 41.0708 246.711 39.9745C247.73 38.8782 247.878 37.243 247.815 35.6484C247.771 36.885 247.517 38.0145 246.711 38.8967Z" fill="black"/>
</g>
<g opacity="0.1">
<path opacity="0.1" d="M212.642 56.6291C212.209 56.4005 211.754 56.2151 211.284 56.0754C210.486 55.7105 209.853 55.0604 209.507 54.252C209.783 55.5254 210.482 56.6845 211.652 57.1828C212.122 57.3224 212.577 57.5079 213.01 57.7365C213.288 57.9328 213.511 58.1954 213.662 58.5005C213.515 57.7771 213.246 57.0388 212.642 56.6291Z" fill="black"/>
<path opacity="0.1" d="M218.928 65.6085C217.232 66.0404 215.016 66.2655 214.085 64.8223C214.114 65.17 214.214 65.5081 214.379 65.8152C215.174 67.2363 217.118 67.1883 218.77 66.8377L218.928 65.6085Z" fill="black"/>
<path opacity="0.1" d="M225.803 66.6211C226.038 68.1197 225.067 69.6147 223.779 70.4009C222.49 71.1871 220.919 71.4049 219.403 71.5082C219.162 71.5389 218.917 71.5111 218.689 71.427C218.62 71.5831 218.597 71.756 218.625 71.9245C218.652 72.093 218.728 72.25 218.842 72.3761C218.957 72.5022 219.106 72.592 219.271 72.6345C219.436 72.6771 219.609 72.6705 219.771 72.6156C221.287 72.5196 222.847 72.3092 224.147 71.5082C225.446 70.7073 226.417 69.216 226.167 67.7137C226.096 67.3345 225.973 66.9669 225.803 66.6211Z" fill="black"/>
<path opacity="0.1" d="M227.441 53.2578C227.666 54.1552 227.684 55.0924 227.492 55.9976C227.301 56.9028 226.906 57.7522 226.337 58.4809C225.469 59.5366 224.129 60.3818 223.96 61.7365C223.897 62.3593 224.026 62.9865 224.328 63.5341C224.295 63.3052 224.295 63.0728 224.328 62.8439C224.516 61.4892 225.837 60.6291 226.705 59.5882C228.13 57.8571 228.328 55.3064 227.441 53.2578Z" fill="black"/>
</g>
<g opacity="0.1">
<path opacity="0.1" d="M183.233 213.384C184.485 212.863 186.049 212.845 186.98 211.907C187.635 211.25 187.793 210.302 188.246 209.516C188.982 208.201 190.509 207.408 192.047 206.991C197.2 205.588 208.947 208.585 212.009 212.93C212.911 214.249 213.4 215.808 213.415 217.407C213.533 215.568 213.04 213.742 212.013 212.214C208.951 207.869 197.215 204.872 192.051 206.275C190.513 206.692 188.997 207.485 188.249 208.799C187.797 209.586 187.639 210.534 186.983 211.191C186.052 212.125 184.488 212.144 183.237 212.668C182.284 213.063 181.577 214.229 181.835 215.012C181.934 214.654 182.111 214.323 182.353 214.041C182.595 213.76 182.895 213.536 183.233 213.384Z" fill="black"/>
<path opacity="0.1" d="M179.995 218.747C180.149 217.566 181.099 216.385 182.383 216.319C182.248 216.262 182.128 216.176 182.031 216.067C181.933 215.957 181.861 215.828 181.82 215.688C181.331 215.87 180.902 216.182 180.577 216.591C180.253 217 180.047 217.491 179.98 218.009C179.943 218.31 179.943 218.613 179.98 218.914C179.992 218.859 179.997 218.803 179.995 218.747Z" fill="black"/>
</g>
<path d="M257.953 84.9824H224.463V128.786H257.953V84.9824Z" fill="white"/>
<path opacity="0.1" d="M257.953 84.9824H224.463V128.786H257.953V84.9824Z" fill="black"/>
<path d="M270.751 87.5538L237.745 93.248L245.149 136.418L278.155 130.723L270.751 87.5538Z" fill="white"/>
<path d="M253.499 121.336L245.744 122.674L247.484 132.816L255.238 131.478L253.499 121.336Z" fill="#2E6AB1"/>
<path d="M264.228 119.482L256.474 120.82L258.213 130.962L265.968 129.625L264.228 119.482Z" fill="#2E6AB1"/>
<path d="M271.808 104.642L244.611 109.324L246.355 119.514L273.552 114.832L271.808 104.642Z" fill="#2E6AB1"/>
<path d="M269.545 92.4838L242.348 97.166L242.737 99.4398L269.934 94.7575L269.545 92.4838Z" fill="#2E6AB1"/>
<path d="M270.435 96.6634L243.238 101.346L243.627 103.619L270.824 98.9372L270.435 96.6634Z" fill="#2E6AB1"/>
<path d="M243.296 73.082C243.296 73.082 227.901 88.5851 235.63 92.5236C243.358 96.4621 248.389 79.4198 248.389 79.4198L249.611 75.5441L243.296 73.082Z" fill="#AE6E79"/>
<path opacity="0.1" d="M241.949 71.7119L240.046 75.9273C240.046 75.9273 249.431 77.2487 251.392 80.0946L250.229 72.6569L248.849 69.4824L241.949 71.7119Z" fill="black"/>
<path d="M242.316 71.3428L240.413 75.5581C240.413 75.5581 249.798 76.8796 251.759 79.7255L250.596 72.2877L249.216 69.1133L242.316 71.3428Z" fill="#E6AD0A"/>
<path d="M299.124 148.848L298.922 148.988L299.202 149.113L299.503 149.088L299.54 148.877L299.124 148.848Z" fill="#464A5F"/>
<path opacity="0.1" d="M299.124 148.848L298.922 148.988L299.202 149.113L299.503 149.088L299.54 148.877L299.124 148.848Z" fill="black"/>
<path d="M299.125 148.848L298.919 148.981L298.757 148.782L298.856 148.619L298.948 148.59L299.125 148.848Z" fill="#9C9CA1"/>
<path opacity="0.1" d="M299.125 148.848L298.919 148.981L298.757 148.782L298.856 148.619L298.948 148.59L299.125 148.848Z" fill="black"/>
<path d="M335.349 123.338L320.282 101.505C320.013 101.112 319.6 100.842 319.132 100.755C318.665 100.668 318.183 100.77 317.791 101.04L284.205 124.162C284.009 124.296 283.843 124.469 283.714 124.668C283.585 124.868 283.497 125.091 283.455 125.325C283.412 125.559 283.416 125.799 283.467 126.031C283.517 126.264 283.613 126.484 283.748 126.679L298.775 148.782L335.349 123.338Z" fill="#9C9CA1"/>
<path opacity="0.1" d="M335.349 123.338L320.282 101.505C320.013 101.112 319.6 100.842 319.132 100.755C318.665 100.668 318.183 100.77 317.791 101.04L284.205 124.162C284.009 124.296 283.843 124.469 283.714 124.668C283.585 124.868 283.497 125.091 283.455 125.325C283.412 125.559 283.416 125.799 283.467 126.031C283.517 126.264 283.613 126.484 283.748 126.679L298.775 148.782L335.349 123.338Z" fill="black"/>
<path d="M335.718 123.389L320.651 101.563C320.517 101.368 320.346 101.202 320.148 101.073C319.95 100.944 319.729 100.856 319.497 100.813C319.264 100.77 319.026 100.774 318.795 100.823C318.565 100.873 318.346 100.967 318.152 101.102L284.569 124.238C284.177 124.509 283.907 124.924 283.818 125.394C283.73 125.863 283.831 126.349 284.098 126.744L299.125 148.858L335.718 123.389Z" fill="#CDCDCD"/>
<path d="M348.312 127.712L335.799 123.682L299.206 149.121L311.918 153.292C312.202 153.385 312.504 153.41 312.8 153.365C313.096 153.32 313.377 153.207 313.622 153.034L348.419 128.392C348.484 128.355 348.536 128.299 348.569 128.232C348.602 128.164 348.614 128.089 348.602 128.014C348.591 127.94 348.558 127.871 348.507 127.817C348.455 127.762 348.389 127.724 348.316 127.709L348.312 127.712Z" fill="#464A5F"/>
<path opacity="0.1" d="M348.312 127.712L335.799 123.682L299.206 149.121L311.918 153.292C312.202 153.385 312.504 153.41 312.8 153.365C313.096 153.32 313.377 153.207 313.622 153.034L348.419 128.392C348.484 128.355 348.536 128.299 348.569 128.232C348.602 128.164 348.614 128.089 348.602 128.014C348.591 127.94 348.558 127.871 348.507 127.817C348.455 127.762 348.389 127.724 348.316 127.709L348.312 127.712Z" fill="black"/>
<path d="M348.235 127.451L335.722 123.416L299.125 148.86L311.837 153.023C312.121 153.118 312.423 153.144 312.719 153.099C313.015 153.055 313.296 152.942 313.541 152.769L348.338 128.126C348.421 128.075 348.481 127.994 348.504 127.899C348.528 127.804 348.513 127.704 348.463 127.62C348.438 127.578 348.405 127.542 348.366 127.512C348.326 127.483 348.282 127.462 348.235 127.451Z" fill="#464A5F"/>
<g opacity="0.1">
<path opacity="0.1" d="M329.807 122.415L328.884 121.087C328.828 121.009 328.745 120.957 328.652 120.94C328.559 120.922 328.462 120.942 328.383 120.994L327.01 121.913C326.933 121.968 326.88 122.05 326.862 122.143C326.843 122.235 326.861 122.332 326.911 122.412L327.761 123.722C327.814 123.801 327.896 123.855 327.988 123.875C328.081 123.895 328.177 123.879 328.258 123.829L329.704 122.917C329.783 122.863 329.838 122.781 329.857 122.687C329.876 122.594 329.858 122.496 329.807 122.415Z" fill="black"/>
<path opacity="0.1" d="M327.341 124.129L326.414 122.803C326.358 122.726 326.275 122.674 326.182 122.656C326.089 122.639 325.993 122.659 325.913 122.711L324.544 123.652C324.467 123.706 324.413 123.788 324.393 123.881C324.374 123.974 324.391 124.07 324.441 124.151L325.291 125.461C325.344 125.54 325.425 125.596 325.518 125.616C325.61 125.637 325.707 125.621 325.788 125.572L327.238 124.66C327.319 124.606 327.376 124.523 327.396 124.427C327.416 124.332 327.398 124.232 327.345 124.151L327.341 124.129Z" fill="black"/>
<path opacity="0.1" d="M324.751 125.927L323.824 124.602C323.768 124.525 323.685 124.472 323.592 124.455C323.499 124.438 323.403 124.458 323.323 124.51L321.951 125.436C321.872 125.491 321.819 125.574 321.8 125.667C321.781 125.761 321.8 125.858 321.851 125.938L322.701 127.249C322.755 127.327 322.836 127.382 322.928 127.402C323.021 127.422 323.117 127.405 323.198 127.356L324.644 126.444C324.726 126.391 324.784 126.308 324.805 126.212C324.825 126.117 324.807 126.017 324.755 125.935L324.751 125.927Z" fill="black"/>
<path opacity="0.1" d="M322.127 127.75L321.199 126.421C321.144 126.345 321.062 126.293 320.969 126.276C320.877 126.259 320.781 126.277 320.702 126.329L319.33 127.259C319.253 127.313 319.199 127.395 319.181 127.488C319.162 127.581 319.18 127.677 319.23 127.757L320.081 129.067C320.133 129.146 320.213 129.201 320.305 129.221C320.397 129.242 320.493 129.226 320.574 129.178L322.024 128.263C322.064 128.236 322.099 128.201 322.126 128.161C322.153 128.121 322.172 128.075 322.182 128.028C322.191 127.98 322.191 127.931 322.182 127.883C322.172 127.836 322.154 127.79 322.127 127.75Z" fill="black"/>
<path opacity="0.1" d="M319.506 129.56L318.579 128.235C318.523 128.158 318.44 128.105 318.347 128.088C318.254 128.071 318.158 128.09 318.078 128.143L316.709 129.069C316.632 129.123 316.578 129.205 316.558 129.298C316.539 129.39 316.556 129.487 316.606 129.568L317.456 130.878C317.509 130.957 317.59 131.013 317.683 131.033C317.775 131.054 317.872 131.038 317.953 130.989L319.403 130.073C319.444 130.046 319.479 130.012 319.506 129.971C319.533 129.931 319.552 129.886 319.561 129.838C319.571 129.79 319.571 129.741 319.561 129.694C319.552 129.646 319.533 129.601 319.506 129.56Z" fill="black"/>
<path opacity="0.1" d="M317.001 131.557L315.849 129.929C315.837 129.911 315.821 129.895 315.803 129.883C315.785 129.871 315.765 129.863 315.744 129.858C315.723 129.854 315.701 129.854 315.68 129.859C315.658 129.864 315.638 129.872 315.621 129.885L313.928 131.007C313.891 131.03 313.864 131.068 313.855 131.111C313.845 131.153 313.853 131.198 313.876 131.236L314.932 132.864C314.957 132.9 314.995 132.926 315.038 132.936C315.081 132.945 315.126 132.938 315.164 132.915L316.945 131.808C316.965 131.797 316.982 131.782 316.995 131.764C317.009 131.746 317.019 131.726 317.025 131.705C317.031 131.683 317.032 131.66 317.029 131.638C317.026 131.616 317.019 131.595 317.008 131.575C317.006 131.569 317.004 131.563 317.001 131.557Z" fill="black"/>
<path opacity="0.1" d="M314.379 133.377L313.22 131.73C313.207 131.712 313.191 131.696 313.173 131.684C313.154 131.672 313.133 131.663 313.111 131.659C313.089 131.655 313.067 131.655 313.045 131.66C313.023 131.665 313.003 131.673 312.984 131.686L311.299 132.827C311.263 132.852 311.238 132.89 311.23 132.934C311.221 132.977 311.23 133.022 311.255 133.059L312.311 134.687C312.332 134.724 312.368 134.751 312.409 134.762C312.45 134.773 312.494 134.767 312.532 134.746L314.309 133.639C314.329 133.629 314.347 133.617 314.362 133.6C314.377 133.584 314.388 133.565 314.396 133.545C314.403 133.524 314.406 133.502 314.406 133.48C314.405 133.459 314.399 133.437 314.39 133.417L314.379 133.377Z" fill="black"/>
<path opacity="0.1" d="M312.057 134.988L310.905 133.357C310.88 133.321 310.841 133.297 310.798 133.29C310.754 133.282 310.71 133.292 310.674 133.316L308.988 134.453C308.951 134.479 308.925 134.518 308.917 134.562C308.908 134.606 308.916 134.652 308.94 134.689L309.996 136.317C310.021 136.354 310.059 136.38 310.102 136.389C310.145 136.399 310.19 136.392 310.228 136.369L312.01 135.262C312.05 135.242 312.081 135.208 312.096 135.166C312.111 135.124 312.109 135.077 312.09 135.036C312.083 135.018 312.072 135.002 312.057 134.988Z" fill="black"/>
<path opacity="0.1" d="M309.459 136.79L308.307 135.144C308.281 135.108 308.243 135.084 308.199 135.077C308.156 135.069 308.112 135.079 308.075 135.103L306.39 136.24C306.371 136.253 306.355 136.269 306.343 136.287C306.33 136.306 306.321 136.327 306.317 136.348C306.312 136.37 306.312 136.393 306.317 136.415C306.321 136.437 306.33 136.458 306.342 136.477L307.398 138.104C307.423 138.141 307.461 138.167 307.504 138.176C307.547 138.186 307.592 138.179 307.63 138.156L309.411 137.049C309.451 137.026 309.479 136.988 309.491 136.944C309.503 136.899 309.497 136.852 309.474 136.812L309.459 136.79Z" fill="black"/>
<path opacity="0.1" d="M306.935 138.526L305.783 136.88C305.771 136.862 305.755 136.846 305.737 136.834C305.719 136.822 305.699 136.814 305.678 136.81C305.657 136.805 305.635 136.806 305.614 136.81C305.592 136.815 305.572 136.823 305.555 136.836L303.869 137.976C303.832 138 303.806 138.037 303.796 138.08C303.786 138.123 303.794 138.168 303.817 138.205L304.874 139.833C304.898 139.87 304.936 139.896 304.979 139.905C305.023 139.915 305.068 139.908 305.106 139.885L306.887 138.777C306.906 138.766 306.923 138.752 306.937 138.734C306.95 138.716 306.961 138.696 306.966 138.674C306.972 138.653 306.974 138.63 306.971 138.608C306.968 138.586 306.961 138.564 306.949 138.545C306.945 138.538 306.94 138.532 306.935 138.526Z" fill="black"/>
<path opacity="0.1" d="M304.425 140.288L303.284 138.638C303.258 138.603 303.219 138.578 303.176 138.571C303.133 138.563 303.088 138.573 303.052 138.598L301.366 139.734C301.348 139.747 301.332 139.763 301.319 139.781C301.307 139.8 301.298 139.821 301.293 139.843C301.289 139.865 301.289 139.887 301.293 139.909C301.298 139.931 301.306 139.952 301.319 139.971L302.375 141.599C302.4 141.635 302.437 141.661 302.48 141.671C302.524 141.68 302.569 141.673 302.607 141.65L304.388 140.543C304.425 140.518 304.452 140.479 304.461 140.435C304.471 140.391 304.463 140.345 304.439 140.307L304.425 140.288Z" fill="black"/>
<path opacity="0.1" d="M301.907 142.034L300.755 140.388C300.743 140.37 300.728 140.354 300.71 140.342C300.692 140.33 300.672 140.322 300.65 140.317C300.629 140.313 300.607 140.313 300.586 140.318C300.565 140.322 300.545 140.331 300.527 140.344L298.838 141.477C298.801 141.5 298.774 141.538 298.765 141.581C298.755 141.624 298.763 141.669 298.786 141.706L299.842 143.334C299.867 143.37 299.905 143.396 299.948 143.406C299.991 143.415 300.036 143.408 300.074 143.385L301.856 142.278C301.894 142.255 301.922 142.217 301.933 142.174C301.944 142.13 301.937 142.084 301.914 142.045L301.907 142.034Z" fill="black"/>
<path opacity="0.1" d="M328.152 120.013L327.224 118.684C327.169 118.607 327.086 118.555 326.992 118.537C326.899 118.52 326.803 118.54 326.724 118.592L325.366 119.522C325.288 119.576 325.234 119.658 325.215 119.751C325.196 119.843 325.213 119.94 325.262 120.02L326.113 121.331C326.166 121.409 326.247 121.464 326.34 121.484C326.432 121.504 326.529 121.488 326.609 121.438L328.06 120.526C328.139 120.47 328.194 120.385 328.211 120.289C328.229 120.192 328.207 120.093 328.152 120.013Z" fill="black"/>
<path opacity="0.1" d="M324.527 114.761L323.599 113.425C323.544 113.349 323.462 113.297 323.369 113.28C323.277 113.262 323.181 113.281 323.103 113.332L321.73 114.259C321.652 114.313 321.598 114.395 321.579 114.487C321.56 114.58 321.577 114.677 321.627 114.757L322.477 116.068C322.53 116.147 322.611 116.202 322.703 116.223C322.796 116.244 322.893 116.228 322.974 116.178L324.424 115.267C324.503 115.213 324.559 115.129 324.578 115.035C324.597 114.94 324.579 114.842 324.527 114.761Z" fill="black"/>
<path opacity="0.1" d="M325.681 121.726L324.754 120.401C324.699 120.325 324.616 120.273 324.524 120.256C324.431 120.239 324.336 120.258 324.257 120.309L322.884 121.236C322.807 121.29 322.754 121.372 322.736 121.465C322.717 121.558 322.735 121.654 322.785 121.734L323.632 123.044C323.684 123.123 323.765 123.179 323.858 123.2C323.95 123.22 324.047 123.204 324.128 123.155L325.578 122.243C325.66 122.19 325.716 122.106 325.736 122.011C325.756 121.915 325.738 121.816 325.685 121.734L325.681 121.726Z" fill="black"/>
<path opacity="0.1" d="M323.091 123.523L322.163 122.198C322.108 122.121 322.025 122.068 321.932 122.051C321.838 122.034 321.742 122.053 321.663 122.106L320.294 123.021C320.215 123.075 320.161 123.158 320.141 123.251C320.122 123.345 320.14 123.442 320.191 123.523L321.041 124.833C321.094 124.912 321.176 124.967 321.268 124.987C321.361 125.007 321.457 124.99 321.538 124.94L322.988 124.029C323.067 123.975 323.123 123.891 323.142 123.797C323.161 123.702 323.143 123.604 323.091 123.523Z" fill="black"/>
<path opacity="0.1" d="M320.467 125.347L319.543 124.018C319.487 123.941 319.404 123.889 319.311 123.871C319.218 123.854 319.122 123.874 319.042 123.926L317.67 124.867C317.593 124.922 317.539 125.004 317.521 125.096C317.502 125.189 317.52 125.285 317.57 125.366L318.42 126.676C318.474 126.754 318.555 126.809 318.647 126.829C318.74 126.849 318.837 126.833 318.917 126.783L320.364 125.871C320.404 125.845 320.44 125.812 320.468 125.772C320.495 125.732 320.515 125.688 320.526 125.64C320.536 125.593 320.538 125.544 320.529 125.496C320.521 125.448 320.504 125.403 320.478 125.362L320.467 125.347Z" fill="black"/>
<path opacity="0.1" d="M322.116 116.559L321.188 115.233C321.133 115.157 321.05 115.105 320.958 115.088C320.866 115.071 320.77 115.09 320.691 115.141L319.319 116.068C319.241 116.122 319.187 116.203 319.168 116.296C319.149 116.389 319.166 116.485 319.216 116.566L320.066 117.876C320.118 117.955 320.199 118.011 320.292 118.032C320.385 118.052 320.481 118.036 320.563 117.987L322.013 117.075C322.094 117.022 322.151 116.938 322.171 116.843C322.191 116.747 322.172 116.648 322.119 116.566L322.116 116.559Z" fill="black"/>
<path opacity="0.1" d="M319.525 118.361L318.597 117.032C318.542 116.955 318.459 116.902 318.366 116.885C318.272 116.868 318.176 116.887 318.097 116.94L316.728 117.855C316.65 117.909 316.596 117.991 316.577 118.084C316.558 118.176 316.575 118.273 316.625 118.353L317.475 119.664C317.528 119.742 317.609 119.797 317.702 119.817C317.795 119.837 317.891 119.82 317.972 119.771L319.422 118.859C319.499 118.805 319.553 118.723 319.573 118.631C319.592 118.538 319.575 118.441 319.525 118.361Z" fill="black"/>
<path opacity="0.1" d="M316.901 120.18L315.974 118.855C315.919 118.778 315.837 118.726 315.744 118.708C315.652 118.69 315.556 118.708 315.477 118.759L314.104 119.7C314.027 119.755 313.974 119.837 313.955 119.93C313.937 120.022 313.955 120.119 314.005 120.199L314.855 121.509C314.908 121.588 314.989 121.644 315.081 121.664C315.174 121.685 315.271 121.669 315.352 121.62L316.798 120.701C316.839 120.675 316.874 120.641 316.902 120.601C316.93 120.562 316.95 120.517 316.96 120.47C316.971 120.422 316.972 120.373 316.964 120.326C316.956 120.278 316.938 120.232 316.912 120.191L316.901 120.18Z" fill="black"/>
<path opacity="0.1" d="M317.846 127.167L316.919 125.841C316.864 125.765 316.782 125.712 316.689 125.694C316.597 125.676 316.501 125.695 316.422 125.745L315.06 126.676C314.983 126.73 314.93 126.812 314.911 126.905C314.893 126.998 314.911 127.094 314.961 127.174L315.796 128.484C315.849 128.562 315.929 128.617 316.021 128.638C316.113 128.659 316.209 128.643 316.289 128.595L317.739 127.68C317.821 127.626 317.878 127.542 317.898 127.447C317.918 127.352 317.899 127.252 317.846 127.17V127.167Z" fill="black"/>
<path opacity="0.1" d="M315.226 128.986L314.295 127.661C314.239 127.584 314.156 127.531 314.063 127.514C313.97 127.497 313.873 127.516 313.794 127.568L312.425 128.495C312.347 128.549 312.293 128.631 312.274 128.724C312.255 128.816 312.272 128.913 312.322 128.993L313.191 130.296C313.243 130.375 313.324 130.431 313.417 130.452C313.509 130.472 313.606 130.456 313.687 130.407L315.137 129.495C315.219 129.442 315.276 129.358 315.296 129.263C315.316 129.167 315.297 129.068 315.244 128.986H315.226Z" fill="black"/>
<path opacity="0.1" d="M312.72 130.972L311.568 129.325C311.556 129.307 311.541 129.292 311.523 129.28C311.505 129.267 311.484 129.259 311.463 129.255C311.442 129.251 311.42 129.251 311.399 129.255C311.378 129.26 311.357 129.269 311.34 129.281L309.654 130.422C309.617 130.445 309.591 130.483 309.581 130.525C309.572 130.568 309.579 130.613 309.603 130.651L310.659 132.278C310.67 132.297 310.685 132.313 310.703 132.326C310.72 132.339 310.74 132.349 310.761 132.354C310.783 132.359 310.805 132.36 310.826 132.356C310.848 132.353 310.868 132.345 310.887 132.334L312.668 131.226C312.688 131.215 312.705 131.201 312.718 131.183C312.732 131.165 312.742 131.145 312.748 131.123C312.754 131.102 312.755 131.079 312.752 131.057C312.749 131.035 312.742 131.013 312.731 130.994L312.72 130.972Z" fill="black"/>
<path opacity="0.1" d="M310.397 132.587L309.246 130.937C309.22 130.901 309.181 130.877 309.138 130.87C309.095 130.862 309.05 130.872 309.014 130.896L307.332 132.033C307.295 132.059 307.269 132.098 307.26 132.142C307.251 132.186 307.26 132.232 307.284 132.27L308.34 133.897C308.365 133.934 308.403 133.96 308.446 133.969C308.489 133.979 308.534 133.972 308.572 133.949L310.353 132.842C310.391 132.822 310.42 132.788 310.433 132.747C310.446 132.706 310.443 132.662 310.423 132.624C310.417 132.61 310.408 132.598 310.397 132.587Z" fill="black"/>
<path opacity="0.1" d="M307.799 134.388L306.648 132.742C306.622 132.706 306.583 132.682 306.54 132.674C306.497 132.667 306.452 132.676 306.416 132.701L304.726 133.838C304.689 133.862 304.663 133.899 304.653 133.942C304.644 133.985 304.652 134.03 304.675 134.067L305.731 135.698C305.756 135.735 305.794 135.761 305.837 135.77C305.88 135.78 305.925 135.773 305.963 135.75L307.744 134.643C307.784 134.62 307.812 134.582 307.824 134.537C307.836 134.493 307.83 134.446 307.807 134.406L307.799 134.388Z" fill="black"/>
<path opacity="0.1" d="M305.281 136.136L304.129 134.49C304.118 134.471 304.102 134.456 304.084 134.444C304.066 134.431 304.046 134.423 304.025 134.419C304.003 134.415 303.982 134.415 303.96 134.42C303.939 134.424 303.919 134.433 303.901 134.445L302.216 135.571C302.179 135.595 302.152 135.632 302.143 135.675C302.133 135.718 302.141 135.763 302.164 135.8L303.22 137.428C303.245 137.464 303.283 137.49 303.326 137.5C303.369 137.509 303.414 137.502 303.452 137.479L305.234 136.372C305.271 136.347 305.297 136.309 305.307 136.264C305.317 136.22 305.309 136.174 305.285 136.136H305.281Z" fill="black"/>
<path opacity="0.1" d="M321.365 121.025L320.438 119.7C320.382 119.624 320.3 119.572 320.208 119.555C320.115 119.538 320.02 119.557 319.941 119.608L318.568 120.538C318.491 120.593 318.438 120.675 318.419 120.767C318.401 120.86 318.418 120.956 318.469 121.036L319.319 122.347C319.372 122.424 319.453 122.479 319.544 122.498C319.636 122.518 319.732 122.502 319.812 122.454L321.262 121.542C321.343 121.489 321.4 121.405 321.42 121.309C321.44 121.214 321.422 121.115 321.369 121.033L321.365 121.025Z" fill="black"/>
<path opacity="0.1" d="M318.741 122.849L317.813 121.52C317.758 121.443 317.675 121.39 317.581 121.373C317.488 121.356 317.392 121.376 317.313 121.428L315.944 122.358C315.866 122.412 315.812 122.494 315.793 122.587C315.774 122.679 315.791 122.776 315.841 122.856L316.691 124.167C316.743 124.246 316.824 124.302 316.917 124.322C317.01 124.343 317.107 124.327 317.188 124.277L318.638 123.362C318.678 123.335 318.713 123.301 318.74 123.26C318.767 123.22 318.786 123.175 318.795 123.127C318.805 123.079 318.805 123.03 318.796 122.983C318.786 122.935 318.768 122.889 318.741 122.849Z" fill="black"/>
<path opacity="0.1" d="M316.135 124.668L315.208 123.342C315.152 123.265 315.069 123.213 314.976 123.196C314.883 123.178 314.787 123.198 314.707 123.25L313.335 124.177C313.258 124.231 313.204 124.313 313.186 124.406C313.167 124.499 313.185 124.595 313.235 124.675L314.085 125.985C314.138 126.064 314.219 126.12 314.312 126.141C314.404 126.161 314.501 126.145 314.582 126.096L316.029 125.181C316.11 125.127 316.167 125.043 316.187 124.948C316.207 124.853 316.188 124.753 316.135 124.671V124.668Z" fill="black"/>
<path opacity="0.1" d="M313.5 126.488L312.572 125.163C312.517 125.087 312.435 125.035 312.342 125.018C312.25 125.001 312.154 125.02 312.076 125.071L310.703 125.997C310.626 126.052 310.573 126.134 310.554 126.227C310.536 126.319 310.553 126.416 310.603 126.496L311.454 127.821C311.506 127.899 311.587 127.954 311.678 127.974C311.77 127.995 311.866 127.98 311.947 127.931L313.397 127.02C313.438 126.994 313.474 126.961 313.502 126.921C313.53 126.882 313.55 126.837 313.561 126.79C313.572 126.742 313.574 126.693 313.566 126.645C313.558 126.597 313.54 126.552 313.515 126.51L313.5 126.488Z" fill="black"/>
<path opacity="0.1" d="M311.012 128.474L309.878 126.827C309.867 126.809 309.851 126.794 309.833 126.781C309.815 126.769 309.795 126.761 309.774 126.757C309.752 126.753 309.731 126.753 309.709 126.757C309.688 126.762 309.668 126.771 309.65 126.783L307.965 127.924C307.946 127.936 307.93 127.951 307.918 127.969C307.905 127.988 307.897 128.008 307.892 128.03C307.888 128.052 307.888 128.074 307.892 128.096C307.896 128.117 307.905 128.138 307.917 128.156L308.973 129.788C308.997 129.825 309.034 129.851 309.077 129.861C309.119 129.871 309.164 129.863 309.201 129.839L310.983 128.732C311.002 128.721 311.019 128.706 311.033 128.688C311.046 128.671 311.056 128.65 311.062 128.629C311.068 128.607 311.069 128.585 311.066 128.562C311.064 128.54 311.056 128.519 311.045 128.5C311.037 128.488 311.025 128.479 311.012 128.474Z" fill="black"/>
<path opacity="0.1" d="M308.676 130.086L307.524 128.451C307.497 128.415 307.458 128.391 307.414 128.383C307.37 128.376 307.325 128.385 307.288 128.41L305.606 129.547C305.569 129.573 305.544 129.612 305.535 129.656C305.526 129.7 305.534 129.746 305.558 129.784L306.615 131.411C306.639 131.448 306.677 131.474 306.72 131.483C306.763 131.493 306.809 131.486 306.846 131.463L308.628 130.356C308.647 130.345 308.664 130.33 308.678 130.312C308.691 130.294 308.701 130.274 308.707 130.252C308.713 130.231 308.715 130.208 308.712 130.186C308.709 130.164 308.701 130.143 308.69 130.123C308.689 130.11 308.684 130.097 308.676 130.086Z" fill="black"/>
<path opacity="0.1" d="M306.076 131.88L304.924 130.23C304.898 130.194 304.859 130.17 304.815 130.163C304.771 130.155 304.726 130.165 304.689 130.19L303.003 131.327C302.968 131.353 302.943 131.392 302.934 131.436C302.925 131.479 302.933 131.524 302.955 131.563L304.015 133.191C304.04 133.227 304.078 133.253 304.121 133.263C304.164 133.272 304.209 133.265 304.247 133.242L306.025 132.135C306.064 132.114 306.093 132.079 306.107 132.037C306.121 131.995 306.118 131.95 306.098 131.91L306.076 131.88Z" fill="black"/>
<path opacity="0.1" d="M303.56 133.638L302.408 131.992C302.396 131.974 302.38 131.958 302.361 131.946C302.342 131.933 302.322 131.925 302.3 131.921C302.278 131.917 302.255 131.917 302.234 131.922C302.212 131.926 302.191 131.935 302.173 131.948L300.487 133.088C300.451 133.114 300.426 133.152 300.418 133.196C300.41 133.239 300.419 133.284 300.443 133.321L301.499 134.949C301.521 134.986 301.556 135.013 301.597 135.024C301.639 135.035 301.683 135.029 301.72 135.008L303.498 133.9C303.537 133.88 303.566 133.845 303.58 133.803C303.594 133.761 303.591 133.715 303.571 133.675L303.56 133.638Z" fill="black"/>
<path opacity="0.1" d="M302.765 137.882L301.613 136.236C301.587 136.2 301.548 136.176 301.505 136.169C301.462 136.161 301.417 136.171 301.381 136.195L299.695 137.332C299.658 137.356 299.632 137.393 299.622 137.436C299.613 137.479 299.62 137.524 299.644 137.561L300.7 139.193C300.725 139.229 300.762 139.255 300.806 139.265C300.849 139.274 300.894 139.267 300.932 139.244L302.713 138.137C302.752 138.114 302.781 138.076 302.793 138.032C302.805 137.987 302.798 137.94 302.776 137.901L302.765 137.882Z" fill="black"/>
<path opacity="0.1" d="M300.247 139.632L299.095 137.986C299.083 137.967 299.068 137.952 299.05 137.94C299.032 137.928 299.012 137.919 298.991 137.915C298.969 137.911 298.947 137.911 298.926 137.916C298.905 137.92 298.885 137.929 298.867 137.941L297.181 139.082C297.144 139.105 297.118 139.143 297.109 139.186C297.099 139.229 297.107 139.274 297.13 139.311L298.186 140.939C298.211 140.975 298.249 141.001 298.292 141.011C298.335 141.02 298.38 141.013 298.418 140.99L300.199 139.883C300.219 139.872 300.236 139.857 300.249 139.839C300.263 139.822 300.273 139.801 300.279 139.78C300.285 139.758 300.286 139.736 300.283 139.713C300.28 139.691 300.273 139.67 300.262 139.65C300.258 139.643 300.253 139.637 300.247 139.632Z" fill="black"/>
<path opacity="0.1" d="M304.199 129.19L303.095 127.64C303.061 127.591 303.009 127.559 302.95 127.548C302.892 127.538 302.832 127.551 302.783 127.584L301.193 128.658C301.168 128.675 301.147 128.696 301.13 128.721C301.113 128.745 301.102 128.773 301.096 128.802C301.09 128.831 301.09 128.861 301.096 128.891C301.102 128.92 301.114 128.948 301.13 128.972L302.124 130.504C302.154 130.554 302.203 130.589 302.26 130.603C302.316 130.617 302.376 130.608 302.426 130.578L304.107 129.518C304.134 129.505 304.158 129.485 304.177 129.462C304.196 129.439 304.21 129.412 304.219 129.383C304.228 129.354 304.23 129.324 304.227 129.294C304.224 129.264 304.214 129.235 304.199 129.208C304.201 129.202 304.201 129.196 304.199 129.19Z" fill="black"/>
<path opacity="0.1" d="M301.682 130.922L300.578 129.372C300.562 129.348 300.54 129.327 300.516 129.31C300.491 129.294 300.463 129.283 300.434 129.277C300.405 129.272 300.375 129.272 300.346 129.278C300.317 129.284 300.29 129.296 300.266 129.313L298.676 130.42C298.651 130.436 298.63 130.457 298.614 130.48C298.597 130.504 298.585 130.531 298.579 130.56C298.573 130.588 298.573 130.618 298.578 130.646C298.583 130.675 298.594 130.702 298.609 130.727L299.603 132.262C299.636 132.312 299.686 132.347 299.744 132.36C299.801 132.373 299.862 132.363 299.912 132.332L301.594 131.273C301.62 131.258 301.643 131.238 301.662 131.214C301.68 131.19 301.694 131.163 301.702 131.134C301.709 131.105 301.712 131.074 301.708 131.044C301.704 131.014 301.694 130.985 301.679 130.959L301.682 130.922Z" fill="black"/>
<path opacity="0.1" d="M299.165 132.67L298.08 131.116C298.045 131.068 297.993 131.035 297.935 131.025C297.876 131.015 297.816 131.028 297.767 131.061L296.177 132.142C296.152 132.159 296.131 132.18 296.114 132.205C296.098 132.229 296.086 132.257 296.081 132.286C296.075 132.315 296.075 132.345 296.081 132.375C296.086 132.404 296.098 132.431 296.114 132.456L297.108 133.988C297.139 134.038 297.187 134.073 297.244 134.087C297.3 134.101 297.36 134.092 297.41 134.062L299.092 133.002C299.117 132.987 299.139 132.967 299.156 132.943C299.173 132.919 299.186 132.891 299.193 132.863C299.2 132.834 299.201 132.804 299.196 132.775C299.191 132.746 299.181 132.718 299.165 132.692V132.67Z" fill="black"/>
<path opacity="0.1" d="M296.681 134.466L295.526 132.816C295.5 132.78 295.461 132.756 295.418 132.749C295.375 132.741 295.33 132.751 295.294 132.775L293.608 133.912C293.571 133.938 293.546 133.977 293.537 134.021C293.528 134.065 293.536 134.111 293.56 134.148L294.617 135.776C294.641 135.813 294.679 135.839 294.722 135.848C294.765 135.858 294.811 135.851 294.848 135.828L296.63 134.721C296.649 134.711 296.666 134.698 296.68 134.682C296.694 134.666 296.705 134.647 296.712 134.627C296.718 134.607 296.721 134.585 296.72 134.564C296.718 134.543 296.713 134.522 296.703 134.503C296.698 134.489 296.691 134.477 296.681 134.466Z" fill="black"/>
<path opacity="0.1" d="M326.469 117.429L325.472 116.008C325.416 115.931 325.332 115.88 325.239 115.863C325.146 115.847 325.05 115.867 324.971 115.919L321.078 118.654C321.002 118.709 320.95 118.791 320.933 118.883C320.915 118.975 320.932 119.07 320.982 119.149L321.92 120.603C321.947 120.644 321.982 120.678 322.022 120.705C322.063 120.732 322.108 120.75 322.156 120.76C322.203 120.769 322.252 120.769 322.299 120.759C322.347 120.749 322.392 120.73 322.432 120.703L326.385 117.931C326.46 117.874 326.511 117.79 326.527 117.697C326.543 117.604 326.522 117.508 326.469 117.429Z" fill="black"/>
<path opacity="0.1" d="M301.046 135.333L299.813 133.62C299.802 133.602 299.786 133.587 299.768 133.574C299.75 133.562 299.73 133.554 299.709 133.55C299.687 133.546 299.666 133.546 299.644 133.55C299.623 133.555 299.603 133.564 299.585 133.576L295.382 136.529C295.347 136.554 295.322 136.592 295.314 136.634C295.305 136.677 295.314 136.722 295.338 136.758L296.486 138.541C296.511 138.578 296.55 138.605 296.594 138.615C296.638 138.624 296.684 138.616 296.722 138.592L300.995 135.591C301.016 135.579 301.035 135.562 301.049 135.542C301.063 135.521 301.073 135.498 301.078 135.474C301.083 135.449 301.083 135.424 301.077 135.4C301.072 135.376 301.061 135.353 301.046 135.333Z" fill="black"/>
<path opacity="0.1" d="M314.405 122.091L313.279 120.438C313.254 120.401 313.215 120.377 313.172 120.368C313.129 120.36 313.084 120.369 313.047 120.393L303.714 126.713C303.695 126.725 303.679 126.74 303.667 126.758C303.654 126.777 303.646 126.797 303.641 126.819C303.637 126.84 303.637 126.863 303.641 126.885C303.645 126.906 303.654 126.927 303.666 126.945L304.818 128.717C304.843 128.755 304.881 128.781 304.925 128.791C304.969 128.8 305.015 128.792 305.053 128.769L314.357 122.331C314.376 122.319 314.391 122.302 314.403 122.284C314.416 122.265 314.424 122.244 314.428 122.222C314.432 122.2 314.432 122.178 314.427 122.156C314.423 122.134 314.414 122.113 314.401 122.095L314.405 122.091Z" fill="black"/>
</g>
<path d="M330.054 122.458L329.127 121.13C329.071 121.052 328.988 121 328.895 120.983C328.802 120.965 328.705 120.985 328.626 121.037L327.257 121.967C327.179 122.021 327.125 122.103 327.106 122.196C327.087 122.289 327.104 122.385 327.154 122.466L328.004 123.776C328.057 123.855 328.138 123.911 328.23 123.932C328.323 123.952 328.42 123.936 328.501 123.887L329.951 122.971C329.992 122.945 330.026 122.91 330.053 122.87C330.081 122.829 330.099 122.784 330.109 122.736C330.119 122.689 330.119 122.64 330.109 122.592C330.1 122.544 330.081 122.499 330.054 122.458Z" fill="#464A5F"/>
<path d="M327.574 124.172L326.646 122.847C326.591 122.771 326.508 122.719 326.416 122.701C326.324 122.684 326.228 122.703 326.149 122.754L324.777 123.681C324.699 123.735 324.645 123.817 324.626 123.909C324.607 124.002 324.624 124.099 324.674 124.179L325.524 125.49C325.576 125.569 325.657 125.624 325.75 125.645C325.843 125.666 325.939 125.65 326.021 125.6L327.471 124.689C327.552 124.635 327.609 124.551 327.629 124.456C327.649 124.36 327.63 124.261 327.577 124.179L327.574 124.172Z" fill="#464A5F"/>
<path d="M324.997 125.974L324.07 124.649C324.015 124.572 323.932 124.519 323.838 124.502C323.745 124.485 323.649 124.505 323.57 124.557L322.2 125.498C322.123 125.552 322.069 125.634 322.05 125.727C322.03 125.819 322.048 125.916 322.097 125.996L322.948 127.307C323.001 127.385 323.082 127.44 323.175 127.46C323.267 127.48 323.364 127.463 323.444 127.414L324.894 126.502C324.976 126.449 325.033 126.365 325.053 126.269C325.073 126.174 325.054 126.074 325.001 125.993L324.997 125.974Z" fill="#464A5F"/>
<path d="M322.37 127.795L321.442 126.466C321.387 126.39 321.305 126.338 321.212 126.321C321.12 126.303 321.024 126.322 320.945 126.374L319.573 127.304C319.533 127.331 319.498 127.366 319.471 127.406C319.445 127.447 319.426 127.492 319.417 127.54C319.408 127.587 319.408 127.636 319.418 127.684C319.427 127.731 319.446 127.777 319.473 127.817L320.323 129.127C320.376 129.206 320.457 129.262 320.55 129.283C320.642 129.303 320.739 129.287 320.82 129.238L322.267 128.322C322.307 128.297 322.343 128.263 322.371 128.223C322.399 128.184 322.418 128.139 322.429 128.091C322.439 128.044 322.441 127.995 322.432 127.947C322.424 127.9 322.407 127.854 322.381 127.813L322.37 127.795Z" fill="#464A5F"/>
<path d="M319.749 129.613L318.821 128.288C318.766 128.212 318.684 128.16 318.591 128.143C318.499 128.126 318.404 128.145 318.325 128.196L316.952 129.122C316.875 129.177 316.822 129.259 316.803 129.352C316.785 129.444 316.802 129.541 316.852 129.621L317.699 130.931C317.752 131.01 317.833 131.066 317.925 131.086C318.018 131.107 318.115 131.091 318.196 131.042L319.646 130.126C319.686 130.099 319.721 130.065 319.748 130.025C319.775 129.984 319.794 129.939 319.804 129.891C319.813 129.844 319.813 129.794 319.804 129.747C319.795 129.699 319.776 129.654 319.749 129.613Z" fill="#464A5F"/>
<path d="M317.239 131.599L316.087 129.952C316.076 129.934 316.06 129.919 316.042 129.906C316.024 129.894 316.004 129.886 315.983 129.882C315.961 129.878 315.939 129.878 315.918 129.882C315.897 129.887 315.877 129.896 315.859 129.908L314.174 131.034C314.137 131.057 314.11 131.095 314.101 131.138C314.091 131.181 314.099 131.226 314.122 131.263L315.178 132.891C315.203 132.927 315.241 132.953 315.284 132.963C315.327 132.972 315.372 132.965 315.41 132.942L317.191 131.835C317.211 131.824 317.228 131.809 317.242 131.791C317.255 131.774 317.265 131.753 317.271 131.732C317.277 131.71 317.278 131.688 317.275 131.665C317.273 131.643 317.265 131.622 317.254 131.602L317.239 131.599Z" fill="#464A5F"/>
<path d="M314.623 133.42L313.471 131.773C313.458 131.755 313.442 131.739 313.424 131.727C313.405 131.715 313.384 131.706 313.362 131.702C313.341 131.698 313.318 131.698 313.296 131.703C313.274 131.707 313.254 131.716 313.235 131.729L311.554 132.881C311.517 132.904 311.49 132.941 311.481 132.984C311.471 133.027 311.479 133.072 311.502 133.109L312.558 134.741C312.582 134.778 312.619 134.804 312.662 134.814C312.704 134.824 312.749 134.816 312.786 134.793L314.568 133.685C314.606 133.662 314.634 133.623 314.645 133.579C314.656 133.535 314.65 133.488 314.627 133.449L314.623 133.42Z" fill="#464A5F"/>
<path d="M312.301 135.032L311.149 133.382C311.123 133.347 311.084 133.323 311.041 133.315C310.998 133.307 310.953 133.317 310.917 133.342L309.231 134.449C309.194 134.475 309.169 134.513 309.16 134.558C309.151 134.602 309.159 134.647 309.183 134.685L310.24 136.313C310.264 136.35 310.302 136.376 310.345 136.385C310.388 136.395 310.434 136.388 310.471 136.365L312.253 135.257C312.29 135.233 312.317 135.194 312.326 135.15C312.336 135.106 312.328 135.06 312.304 135.021L312.301 135.032Z" fill="#464A5F"/>
<path d="M309.701 136.838L308.549 135.203C308.524 135.167 308.485 135.143 308.442 135.135C308.398 135.128 308.354 135.137 308.318 135.162L306.632 136.299C306.613 136.311 306.597 136.327 306.585 136.346C306.572 136.364 306.564 136.385 306.559 136.407C306.555 136.429 306.555 136.452 306.559 136.474C306.563 136.496 306.572 136.517 306.584 136.535L307.64 138.163C307.665 138.2 307.703 138.225 307.746 138.235C307.789 138.245 307.834 138.237 307.872 138.215L309.654 137.107C309.674 137.098 309.692 137.084 309.707 137.067C309.721 137.05 309.733 137.03 309.74 137.009C309.747 136.988 309.75 136.965 309.748 136.943C309.747 136.92 309.741 136.899 309.731 136.878C309.723 136.863 309.713 136.85 309.701 136.838Z" fill="#464A5F"/>
<path d="M307.184 138.583L306.033 136.941C306.021 136.923 306.005 136.907 305.987 136.895C305.969 136.883 305.949 136.874 305.928 136.87C305.906 136.866 305.885 136.866 305.863 136.871C305.842 136.875 305.822 136.884 305.804 136.896L304.115 138.048C304.078 138.072 304.052 138.109 304.042 138.152C304.032 138.195 304.04 138.24 304.064 138.277L305.12 139.905C305.131 139.923 305.146 139.94 305.164 139.953C305.181 139.966 305.201 139.975 305.222 139.98C305.244 139.985 305.266 139.986 305.287 139.983C305.309 139.979 305.329 139.972 305.348 139.96L307.129 138.853C307.149 138.842 307.166 138.827 307.179 138.809C307.193 138.791 307.203 138.771 307.209 138.75C307.215 138.728 307.216 138.705 307.213 138.683C307.21 138.661 307.203 138.64 307.192 138.62C307.192 138.607 307.19 138.595 307.184 138.583Z" fill="#464A5F"/>
<path d="M304.668 140.331L303.516 138.681C303.49 138.646 303.451 138.621 303.408 138.614C303.365 138.606 303.32 138.616 303.284 138.641L301.598 139.777C301.561 139.803 301.536 139.842 301.527 139.886C301.518 139.93 301.526 139.976 301.551 140.014L302.607 141.642C302.632 141.678 302.669 141.704 302.713 141.714C302.756 141.723 302.801 141.716 302.839 141.693L304.62 140.586C304.639 140.575 304.656 140.56 304.67 140.542C304.684 140.524 304.694 140.504 304.699 140.483C304.705 140.461 304.707 140.438 304.704 140.416C304.701 140.394 304.694 140.373 304.683 140.353C304.679 140.345 304.674 140.338 304.668 140.331Z" fill="#464A5F"/>
<path d="M302.149 142.079L300.998 140.433C300.986 140.415 300.97 140.399 300.952 140.387C300.934 140.375 300.914 140.366 300.893 140.362C300.872 140.358 300.85 140.358 300.828 140.363C300.807 140.367 300.787 140.376 300.769 140.389L299.084 141.529C299.047 141.553 299.021 141.59 299.011 141.633C299.001 141.676 299.009 141.721 299.032 141.758L300.089 143.386C300.1 143.405 300.115 143.421 300.132 143.434C300.15 143.447 300.17 143.456 300.191 143.461C300.212 143.466 300.234 143.467 300.256 143.464C300.277 143.46 300.298 143.453 300.317 143.441L302.098 142.334C302.133 142.31 302.158 142.273 302.168 142.231C302.177 142.19 302.171 142.146 302.149 142.109C302.151 142.099 302.151 142.089 302.149 142.079Z" fill="#464A5F"/>
<path d="M328.394 120.068L327.467 118.739C327.411 118.663 327.329 118.611 327.237 118.594C327.144 118.577 327.049 118.596 326.97 118.647L325.597 119.592C325.52 119.646 325.467 119.728 325.449 119.821C325.43 119.914 325.448 120.01 325.498 120.09L326.344 121.401C326.397 121.48 326.478 121.535 326.571 121.556C326.663 121.577 326.76 121.561 326.841 121.511L328.291 120.596C328.332 120.569 328.367 120.535 328.394 120.494C328.421 120.454 328.44 120.409 328.449 120.361C328.459 120.313 328.459 120.264 328.449 120.216C328.44 120.169 328.421 120.123 328.394 120.083V120.068Z" fill="#464A5F"/>
<path d="M324.768 114.793L323.841 113.468C323.785 113.392 323.703 113.34 323.611 113.323C323.518 113.305 323.423 113.324 323.344 113.375L321.971 114.302C321.894 114.356 321.841 114.439 321.823 114.531C321.804 114.624 321.822 114.72 321.872 114.8L322.722 116.111C322.775 116.189 322.855 116.244 322.947 116.264C323.038 116.285 323.135 116.27 323.215 116.221L324.665 115.31C324.747 115.256 324.803 115.172 324.823 115.077C324.843 114.982 324.825 114.882 324.772 114.8L324.768 114.793Z" fill="#464A5F"/>
<path d="M325.925 121.769L324.997 120.436C324.942 120.36 324.859 120.308 324.767 120.291C324.675 120.274 324.579 120.293 324.5 120.344L323.128 121.271C323.051 121.325 322.997 121.407 322.979 121.5C322.96 121.593 322.978 121.689 323.028 121.769L323.878 123.079C323.931 123.157 324.011 123.212 324.103 123.233C324.195 123.254 324.291 123.238 324.372 123.19L325.822 122.278C325.902 122.224 325.958 122.14 325.978 122.045C325.997 121.95 325.978 121.85 325.925 121.769Z" fill="#464A5F"/>
<path d="M323.333 123.566L322.421 122.241C322.365 122.165 322.283 122.113 322.191 122.096C322.098 122.079 322.003 122.098 321.924 122.149L320.551 123.075C320.473 123.13 320.419 123.213 320.401 123.306C320.382 123.4 320.4 123.497 320.452 123.577L321.298 124.888C321.351 124.966 321.433 125.021 321.525 125.041C321.618 125.061 321.714 125.044 321.795 124.995L323.245 124.083C323.325 124.027 323.38 123.942 323.397 123.846C323.414 123.749 323.393 123.65 323.337 123.57L323.333 123.566Z" fill="#464A5F"/>
<path d="M320.713 125.39L319.786 124.061C319.73 123.984 319.647 123.931 319.554 123.914C319.461 123.897 319.365 123.917 319.285 123.969L317.916 124.899C317.839 124.953 317.785 125.035 317.765 125.128C317.746 125.22 317.763 125.317 317.813 125.397L318.663 126.708C318.716 126.787 318.797 126.843 318.89 126.863C318.982 126.884 319.079 126.868 319.16 126.819L320.61 125.903C320.651 125.876 320.686 125.842 320.713 125.801C320.74 125.761 320.759 125.716 320.768 125.668C320.778 125.62 320.778 125.571 320.768 125.524C320.759 125.476 320.74 125.43 320.713 125.39Z" fill="#464A5F"/>
<path d="M322.358 116.602L321.431 115.27C321.404 115.229 321.37 115.194 321.33 115.166C321.29 115.139 321.245 115.119 321.197 115.109C321.15 115.099 321.101 115.099 321.053 115.108C321.005 115.117 320.96 115.136 320.919 115.163L319.547 116.089C319.47 116.144 319.416 116.226 319.398 116.318C319.379 116.411 319.397 116.507 319.447 116.587L320.297 117.898C320.35 117.976 320.43 118.031 320.522 118.052C320.614 118.072 320.71 118.057 320.791 118.009L322.241 117.097C322.32 117.045 322.376 116.965 322.398 116.873C322.42 116.781 322.406 116.684 322.358 116.602Z" fill="#464A5F"/>
<path d="M319.768 118.402L318.841 117.073C318.785 116.997 318.703 116.945 318.61 116.928C318.518 116.911 318.423 116.93 318.344 116.981L316.971 117.911C316.893 117.965 316.839 118.047 316.82 118.14C316.801 118.232 316.818 118.329 316.868 118.409L317.718 119.72C317.771 119.799 317.852 119.855 317.944 119.875C318.037 119.896 318.134 119.88 318.215 119.831L319.665 118.915C319.705 118.888 319.74 118.854 319.767 118.813C319.794 118.773 319.813 118.728 319.823 118.68C319.832 118.632 319.833 118.583 319.823 118.536C319.814 118.488 319.795 118.442 319.768 118.402Z" fill="#464A5F"/>
<path d="M317.147 120.222L316.219 118.897C316.164 118.82 316.081 118.767 315.988 118.75C315.894 118.733 315.798 118.753 315.719 118.805L314.35 119.731C314.272 119.785 314.218 119.867 314.199 119.96C314.18 120.053 314.197 120.149 314.247 120.23L315.097 121.544C315.15 121.623 315.231 121.678 315.323 121.699C315.416 121.72 315.513 121.704 315.594 121.654L317.04 120.739C317.122 120.686 317.18 120.603 317.2 120.507C317.221 120.412 317.203 120.312 317.151 120.23L317.147 120.222Z" fill="#464A5F"/>
<path d="M318.09 127.209L317.162 125.884C317.107 125.808 317.024 125.756 316.932 125.739C316.84 125.721 316.744 125.74 316.665 125.791L315.293 126.711C315.216 126.765 315.162 126.847 315.144 126.94C315.125 127.033 315.143 127.129 315.193 127.209L316.043 128.519C316.096 128.597 316.176 128.652 316.268 128.673C316.36 128.694 316.456 128.678 316.537 128.63L317.976 127.711C318.056 127.659 318.113 127.577 318.134 127.483C318.156 127.389 318.14 127.291 318.09 127.209Z" fill="#464A5F"/>
<path d="M315.469 129.03L314.542 127.712C314.486 127.636 314.404 127.584 314.312 127.567C314.219 127.55 314.124 127.568 314.045 127.62L312.672 128.565C312.595 128.618 312.541 128.7 312.521 128.793C312.502 128.886 312.519 128.982 312.569 129.063L313.419 130.373C313.472 130.452 313.553 130.508 313.646 130.529C313.738 130.549 313.835 130.533 313.916 130.484L315.366 129.572C315.408 129.547 315.444 129.514 315.472 129.474C315.501 129.435 315.521 129.39 315.533 129.343C315.544 129.296 315.546 129.246 315.538 129.198C315.53 129.15 315.513 129.104 315.488 129.063L315.469 129.03Z" fill="#464A5F"/>
<path d="M312.963 131.034L311.811 129.388C311.799 129.37 311.784 129.354 311.766 129.342C311.748 129.33 311.727 129.322 311.706 129.317C311.685 129.313 311.663 129.313 311.642 129.318C311.621 129.322 311.601 129.331 311.583 129.344L309.912 130.484C309.875 130.508 309.849 130.545 309.839 130.588C309.829 130.631 309.837 130.676 309.86 130.713L310.917 132.341C310.928 132.36 310.943 132.376 310.96 132.389C310.978 132.402 310.998 132.411 311.019 132.416C311.04 132.421 311.062 132.422 311.084 132.419C311.106 132.415 311.126 132.408 311.145 132.396L312.926 131.289C312.963 131.263 312.989 131.223 312.997 131.178C313.006 131.133 312.996 131.087 312.97 131.049L312.963 131.034Z" fill="#464A5F"/>
<path d="M310.644 132.619L309.51 130.969C309.484 130.933 309.444 130.909 309.401 130.901C309.357 130.893 309.312 130.903 309.275 130.928L307.589 132.065C307.554 132.091 307.529 132.13 307.52 132.174C307.511 132.217 307.519 132.263 307.541 132.301L308.601 133.929C308.626 133.966 308.664 133.991 308.707 134.001C308.75 134.011 308.795 134.003 308.833 133.981L310.611 132.873C310.65 132.853 310.679 132.818 310.693 132.776C310.707 132.734 310.704 132.688 310.684 132.648L310.644 132.619Z" fill="#464A5F"/>
<path d="M308.039 134.433L306.887 132.783C306.861 132.747 306.822 132.723 306.779 132.715C306.736 132.708 306.691 132.717 306.655 132.742L304.969 133.879C304.933 133.905 304.907 133.943 304.898 133.987C304.889 134.032 304.898 134.077 304.922 134.115L305.978 135.743C306.003 135.78 306.04 135.806 306.084 135.815C306.127 135.825 306.172 135.817 306.21 135.795L307.991 134.687C308.01 134.678 308.027 134.665 308.041 134.649C308.055 134.633 308.066 134.614 308.073 134.594C308.08 134.574 308.082 134.552 308.081 134.531C308.08 134.51 308.074 134.489 308.065 134.47C308.058 134.456 308.049 134.443 308.039 134.433Z" fill="#464A5F"/>
<path d="M305.529 136.179L304.388 134.532C304.376 134.514 304.361 134.499 304.343 134.487C304.325 134.474 304.305 134.466 304.284 134.462C304.262 134.458 304.24 134.458 304.219 134.463C304.198 134.467 304.178 134.476 304.16 134.488L302.475 135.629C302.456 135.641 302.44 135.656 302.428 135.675C302.415 135.693 302.406 135.713 302.402 135.735C302.397 135.757 302.397 135.779 302.402 135.801C302.406 135.822 302.414 135.843 302.427 135.861L303.483 137.489C303.508 137.526 303.546 137.552 303.589 137.561C303.632 137.571 303.677 137.564 303.715 137.541L305.496 136.433C305.515 136.422 305.531 136.407 305.544 136.39C305.557 136.372 305.566 136.352 305.571 136.331C305.576 136.309 305.577 136.287 305.574 136.266C305.57 136.244 305.563 136.223 305.551 136.205L305.529 136.179Z" fill="#464A5F"/>
<path d="M321.608 121.068L320.684 119.739C320.629 119.662 320.546 119.609 320.452 119.592C320.359 119.575 320.263 119.594 320.184 119.647L318.811 120.577C318.736 120.631 318.684 120.712 318.666 120.803C318.647 120.894 318.664 120.988 318.712 121.068L319.562 122.378C319.615 122.457 319.696 122.512 319.789 122.531C319.881 122.551 319.978 122.535 320.059 122.485L321.505 121.573C321.545 121.547 321.58 121.512 321.607 121.472C321.634 121.431 321.653 121.386 321.663 121.338C321.672 121.291 321.673 121.242 321.663 121.194C321.654 121.146 321.635 121.101 321.608 121.06V121.068Z" fill="#464A5F"/>
<path d="M318.987 122.891L318.06 121.566C318.005 121.489 317.923 121.437 317.83 121.419C317.738 121.401 317.642 121.419 317.563 121.47L316.19 122.4C316.113 122.455 316.06 122.537 316.041 122.629C316.023 122.722 316.041 122.818 316.091 122.898L316.941 124.209C316.993 124.287 317.074 124.342 317.166 124.363C317.257 124.383 317.353 124.368 317.434 124.32L318.884 123.404C318.925 123.377 318.959 123.343 318.986 123.302C319.014 123.262 319.032 123.217 319.042 123.169C319.052 123.121 319.052 123.072 319.042 123.025C319.033 122.977 319.014 122.932 318.987 122.891Z" fill="#464A5F"/>
<path d="M316.367 124.711L315.428 123.389C315.373 123.312 315.29 123.26 315.197 123.242C315.103 123.225 315.007 123.245 314.928 123.297L313.588 124.22C313.511 124.274 313.457 124.356 313.437 124.448C313.418 124.541 313.435 124.638 313.485 124.718L314.335 126.029C314.388 126.108 314.469 126.163 314.562 126.184C314.654 126.205 314.751 126.189 314.832 126.139L316.282 125.228C316.361 125.171 316.414 125.085 316.43 124.988C316.446 124.892 316.423 124.794 316.367 124.714V124.711Z" fill="#464A5F"/>
<path d="M313.743 126.531L312.823 125.206C312.768 125.13 312.686 125.078 312.593 125.061C312.501 125.044 312.405 125.063 312.327 125.114L310.954 126.04C310.877 126.095 310.823 126.177 310.805 126.27C310.787 126.362 310.804 126.459 310.854 126.539L311.705 127.849C311.757 127.927 311.838 127.982 311.929 128.003C312.021 128.023 312.117 128.008 312.198 127.96L313.648 127.048C313.729 126.994 313.786 126.911 313.806 126.815C313.826 126.72 313.807 126.62 313.755 126.539L313.743 126.531Z" fill="#464A5F"/>
<path d="M311.24 128.517L310.088 126.871C310.075 126.852 310.059 126.837 310.041 126.824C310.022 126.812 310.001 126.804 309.979 126.8C309.958 126.796 309.935 126.796 309.913 126.801C309.891 126.805 309.871 126.814 309.852 126.827L308.167 127.967C308.148 127.979 308.132 127.995 308.12 128.013C308.107 128.031 308.099 128.052 308.094 128.073C308.09 128.095 308.09 128.117 308.094 128.139C308.098 128.161 308.107 128.181 308.119 128.2L309.175 129.831C309.188 129.85 309.203 129.866 309.222 129.879C309.24 129.891 309.261 129.9 309.283 129.904C309.305 129.909 309.328 129.909 309.349 129.905C309.371 129.9 309.392 129.892 309.411 129.879L311.188 128.772C311.208 128.761 311.225 128.747 311.239 128.73C311.253 128.713 311.264 128.693 311.27 128.672C311.276 128.65 311.278 128.628 311.275 128.606C311.273 128.584 311.266 128.562 311.255 128.543C311.252 128.533 311.247 128.524 311.24 128.517Z" fill="#464A5F"/>
<path d="M308.918 130.13L307.766 128.484C307.754 128.465 307.739 128.45 307.721 128.438C307.703 128.426 307.682 128.417 307.661 128.413C307.64 128.409 307.618 128.409 307.597 128.414C307.575 128.418 307.555 128.427 307.538 128.439L305.863 129.576C305.826 129.602 305.8 129.641 305.792 129.685C305.783 129.729 305.791 129.775 305.815 129.813L306.871 131.44C306.896 131.477 306.934 131.503 306.977 131.512C307.02 131.522 307.065 131.515 307.103 131.492L308.885 130.385C308.922 130.36 308.948 130.321 308.958 130.277C308.968 130.233 308.96 130.187 308.936 130.148L308.918 130.13Z" fill="#464A5F"/>
<path d="M306.32 131.934L305.168 130.295C305.142 130.259 305.103 130.235 305.059 130.227C305.015 130.22 304.97 130.229 304.933 130.254L303.255 131.38C303.218 131.405 303.192 131.444 303.183 131.488C303.174 131.532 303.183 131.578 303.207 131.616L304.263 133.244C304.288 133.281 304.326 133.306 304.369 133.316C304.412 133.326 304.457 133.318 304.495 133.296L306.276 132.188C306.296 132.177 306.313 132.162 306.326 132.145C306.34 132.127 306.35 132.107 306.356 132.085C306.361 132.064 306.363 132.041 306.36 132.019C306.357 131.997 306.35 131.975 306.339 131.956C306.334 131.947 306.328 131.94 306.32 131.934Z" fill="#464A5F"/>
<path d="M303.803 133.679L302.651 132.033C302.638 132.015 302.622 131.999 302.603 131.987C302.585 131.974 302.564 131.966 302.542 131.962C302.52 131.958 302.498 131.958 302.476 131.963C302.454 131.967 302.433 131.976 302.415 131.989L300.733 133.129C300.696 133.153 300.67 133.19 300.66 133.233C300.651 133.276 300.658 133.321 300.682 133.358L301.738 134.99C301.761 135.027 301.799 135.053 301.841 135.063C301.884 135.073 301.929 135.065 301.966 135.041L303.747 133.934C303.786 133.91 303.814 133.872 303.825 133.828C303.836 133.784 303.829 133.737 303.806 133.698L303.803 133.679Z" fill="#464A5F"/>
<path d="M303.012 137.929L301.86 136.279C301.833 136.243 301.794 136.219 301.75 136.211C301.706 136.204 301.661 136.214 301.624 136.239L299.942 137.375C299.905 137.401 299.88 137.44 299.871 137.484C299.862 137.528 299.87 137.574 299.894 137.612L300.951 139.24C300.975 139.276 301.013 139.302 301.056 139.312C301.099 139.321 301.144 139.314 301.182 139.291L302.964 138.184C303.003 138.163 303.032 138.128 303.046 138.086C303.06 138.044 303.057 137.998 303.037 137.959L303.012 137.929Z" fill="#464A5F"/>
<path d="M300.494 139.675L299.342 138.047C299.329 138.028 299.313 138.012 299.295 138C299.276 137.988 299.255 137.98 299.233 137.976C299.211 137.971 299.189 137.972 299.167 137.976C299.145 137.981 299.125 137.99 299.106 138.002L297.421 139.143C297.402 139.155 297.386 139.17 297.374 139.189C297.361 139.207 297.353 139.228 297.348 139.249C297.344 139.271 297.344 139.293 297.348 139.315C297.352 139.337 297.361 139.357 297.373 139.376L298.429 141.003C298.453 141.041 298.491 141.067 298.535 141.077C298.578 141.086 298.623 141.079 298.661 141.055L300.439 139.948C300.478 139.927 300.507 139.892 300.521 139.85C300.535 139.808 300.532 139.762 300.512 139.723L300.494 139.675Z" fill="#464A5F"/>
<path d="M304.443 129.217L303.338 127.663C303.304 127.615 303.252 127.582 303.193 127.572C303.135 127.562 303.075 127.574 303.026 127.608L301.425 128.682C301.375 128.716 301.341 128.767 301.33 128.826C301.318 128.885 301.33 128.945 301.362 128.996L302.356 130.531C302.389 130.581 302.44 130.616 302.499 130.629C302.557 130.641 302.618 130.63 302.669 130.598L304.358 129.557C304.41 129.527 304.447 129.478 304.463 129.421C304.479 129.364 304.472 129.302 304.443 129.25C304.446 129.245 304.448 129.24 304.448 129.234C304.448 129.228 304.446 129.222 304.443 129.217Z" fill="#464A5F"/>
<path d="M301.925 130.965L300.84 129.415C300.823 129.39 300.802 129.37 300.777 129.353C300.752 129.337 300.725 129.326 300.696 129.32C300.667 129.315 300.637 129.315 300.608 129.321C300.579 129.327 300.551 129.339 300.527 129.356L298.937 130.434C298.888 130.467 298.854 130.518 298.842 130.576C298.831 130.634 298.842 130.694 298.874 130.744L299.868 132.279C299.901 132.329 299.952 132.364 300.011 132.377C300.069 132.391 300.13 132.381 300.181 132.35L301.863 131.29C301.888 131.273 301.91 131.252 301.927 131.226C301.944 131.201 301.956 131.173 301.962 131.143C301.967 131.113 301.967 131.082 301.961 131.052C301.955 131.022 301.943 130.994 301.925 130.969V130.965Z" fill="#464A5F"/>
<path d="M299.408 132.713L298.304 131.159C298.27 131.111 298.218 131.078 298.161 131.068C298.103 131.058 298.043 131.07 297.995 131.104L296.401 132.178C296.352 132.211 296.318 132.263 296.306 132.322C296.294 132.38 296.306 132.441 296.339 132.491L297.332 134.027C297.365 134.077 297.417 134.112 297.475 134.124C297.534 134.137 297.595 134.126 297.645 134.093L299.327 133.034C299.353 133.02 299.376 133.001 299.395 132.978C299.414 132.955 299.428 132.929 299.437 132.9C299.445 132.872 299.448 132.842 299.445 132.812C299.442 132.782 299.433 132.754 299.419 132.728L299.408 132.713Z" fill="#464A5F"/>
<path d="M296.927 134.51L295.775 132.879C295.749 132.843 295.709 132.819 295.666 132.811C295.622 132.804 295.577 132.813 295.54 132.838L293.854 133.975C293.836 133.988 293.82 134.004 293.808 134.022C293.796 134.041 293.787 134.062 293.783 134.084C293.779 134.106 293.779 134.128 293.784 134.15C293.789 134.172 293.797 134.193 293.81 134.211L294.866 135.839C294.891 135.876 294.929 135.902 294.972 135.911C295.015 135.921 295.06 135.913 295.098 135.891L296.879 134.783C296.899 134.772 296.916 134.757 296.929 134.74C296.943 134.722 296.953 134.702 296.959 134.68C296.965 134.659 296.966 134.636 296.963 134.614C296.96 134.592 296.953 134.57 296.942 134.551C296.941 134.536 296.936 134.522 296.927 134.51Z" fill="#464A5F"/>
<path d="M326.716 117.483L325.733 116.059C325.677 115.982 325.594 115.93 325.501 115.914C325.407 115.897 325.311 115.917 325.233 115.97L321.317 118.705C321.241 118.76 321.19 118.842 321.172 118.934C321.154 119.025 321.172 119.121 321.221 119.2L322.163 120.654C322.19 120.695 322.225 120.729 322.265 120.756C322.306 120.783 322.351 120.801 322.398 120.811C322.446 120.82 322.495 120.82 322.542 120.81C322.59 120.8 322.635 120.781 322.675 120.754L326.624 117.982C326.7 117.926 326.751 117.844 326.769 117.751C326.786 117.658 326.767 117.563 326.716 117.483Z" fill="#464A5F"/>
<path d="M301.278 135.375L300.056 133.644C300.044 133.626 300.029 133.61 300.011 133.598C299.993 133.586 299.972 133.577 299.951 133.573C299.93 133.569 299.908 133.569 299.887 133.574C299.866 133.578 299.846 133.587 299.828 133.6L295.625 136.553C295.589 136.578 295.564 136.616 295.556 136.66C295.547 136.703 295.556 136.748 295.581 136.785L296.733 138.564C296.757 138.602 296.796 138.628 296.84 138.638C296.884 138.648 296.93 138.64 296.968 138.616L301.241 135.615C301.277 135.588 301.301 135.547 301.308 135.502C301.315 135.458 301.304 135.412 301.278 135.375Z" fill="#464A5F"/>
<path d="M314.663 122.134L313.559 120.491C313.533 120.454 313.495 120.428 313.451 120.419C313.407 120.411 313.361 120.419 313.323 120.443L303.99 126.755C303.953 126.779 303.927 126.816 303.917 126.859C303.907 126.902 303.915 126.947 303.939 126.984L305.087 128.756C305.112 128.793 305.15 128.82 305.194 128.83C305.238 128.839 305.284 128.831 305.322 128.807L314.626 122.37C314.661 122.343 314.685 122.303 314.691 122.259C314.698 122.215 314.688 122.17 314.663 122.134Z" fill="#464A5F"/>
<path opacity="0.1" d="M314.692 116.495L309.731 109.257C309.594 109.056 309.383 108.917 309.144 108.872C308.906 108.826 308.659 108.877 308.458 109.013L294.789 118.223C294.688 118.291 294.602 118.378 294.535 118.48C294.468 118.582 294.422 118.696 294.399 118.815C294.376 118.935 294.377 119.058 294.402 119.177C294.426 119.297 294.474 119.41 294.543 119.511L299.599 126.949C299.736 127.151 299.947 127.291 300.187 127.337C300.426 127.384 300.674 127.333 300.876 127.196L314.445 117.78C314.645 117.642 314.782 117.43 314.827 117.191C314.872 116.951 314.821 116.704 314.685 116.503L314.692 116.495Z" fill="black"/>
<path d="M314.92 116.539L309.959 109.308C309.821 109.108 309.611 108.97 309.372 108.925C309.134 108.879 308.888 108.929 308.686 109.064L295.039 118.274C294.836 118.41 294.695 118.621 294.647 118.861C294.599 119.101 294.647 119.351 294.782 119.555L299.824 126.985C299.96 127.188 300.172 127.328 300.411 127.374C300.651 127.42 300.899 127.37 301.101 127.233L314.677 117.816C314.776 117.747 314.861 117.659 314.926 117.558C314.991 117.456 315.035 117.342 315.056 117.223C315.077 117.104 315.075 116.982 315.049 116.864C315.023 116.746 314.975 116.635 314.906 116.535L314.92 116.539Z" fill="#939498"/>
<path d="M345.684 128.225L335.158 124.703L301.414 148.223L311.862 151.638C312.144 151.73 312.443 151.755 312.736 151.712C313.03 151.668 313.309 151.557 313.552 151.387L345.794 128.9C345.878 128.85 345.939 128.769 345.963 128.674C345.987 128.579 345.973 128.479 345.923 128.394C345.897 128.351 345.862 128.314 345.821 128.285C345.78 128.255 345.733 128.235 345.684 128.225Z" fill="#2E6AB1"/>
</svg>
