<svg width="337" height="263" viewBox="0 0 337 263" fill="none" xmlns="http://www.w3.org/2000/svg">
<g clip-path="url(#clip0)">
<path d="M283.788 0.614102L2.00488 77.7891L39.9703 217.299L321.753 140.124L283.788 0.614102Z" fill="#F5F5F5"/>
<path d="M285.334 -0.00112095L-0.000244141 78.1465L38.8945 221.071L324.229 142.923L285.334 -0.00112095Z" fill="url(#paint0_linear)"/>
<path d="M287.618 14.6883L5.83484 91.8633L39.9443 217.204L321.727 140.029L287.618 14.6883Z" fill="white"/>
<path d="M10.7654 85.9428C12.7176 85.4125 13.8718 83.395 13.3432 81.4364C12.8146 79.4779 10.8034 78.3201 8.85118 78.8504C6.89891 79.3807 5.74479 81.3982 6.27338 83.3568C6.80197 85.3153 8.8131 86.4731 10.7654 85.9428Z" fill="#FCFDFF"/>
<path d="M22.1849 83.3734C24.1463 82.8363 25.3022 80.8057 24.7667 78.8381C24.2313 76.8705 22.2072 75.7109 20.2459 76.2481C18.2846 76.7852 17.1287 78.8158 17.6641 80.7834C18.1996 82.751 20.2236 83.9106 22.1849 83.3734Z" fill="#FCFDFF"/>
<path d="M32.8385 80.4555C34.7998 79.9183 35.9557 77.8878 35.4203 75.9201C34.8848 73.9525 32.8608 72.7929 30.8994 73.3301C28.9381 73.8673 27.7822 75.8978 28.3177 77.8654C28.8531 79.833 30.8772 80.9926 32.8385 80.4555Z" fill="#FCFDFF"/>
<path d="M79.982 71.375L5.78784 91.6953L39.9426 217.202L114.137 196.882L79.982 71.375Z" fill="#ECF2F9"/>
<path d="M73.316 115.312C70.4902 104.926 59.3624 98.9267 48.4675 101.903C37.5726 104.88 31.0388 115.737 33.8493 126.127C36.068 134.279 43.3962 139.727 51.7172 140.251L50.4036 135.417C49.4489 131.915 51.679 128.226 55.368 127.218C59.0416 126.211 62.8298 128.253 63.7692 131.758L65.0866 136.604C71.9642 131.904 75.5194 123.456 73.316 115.312Z" fill="url(#paint1_linear)"/>
<path d="M54.6707 124.26L54.4054 124.333C53.8235 124.492 53.4806 125.094 53.6394 125.678L55.2345 131.539C55.3934 132.123 55.9939 132.467 56.5758 132.308L56.841 132.235C57.4229 132.076 57.7659 131.473 57.607 130.89L56.0119 125.028C55.853 124.445 55.2525 124.101 54.6707 124.26Z" fill="url(#paint2_linear)"/>
<path d="M54.8448 125.367C59.034 124.219 61.5493 120.053 60.4628 116.06C59.3763 112.068 55.0996 109.762 50.9104 110.909C46.7212 112.056 44.2059 116.223 45.2924 120.215C46.3789 124.208 50.6556 126.514 54.8448 125.367Z" fill="url(#paint3_linear)"/>
<path d="M55.3335 127.215C51.6599 128.222 49.4336 131.911 50.3692 135.413L51.6866 140.259C56.4219 140.55 61.1203 139.264 65.0522 136.601L63.7348 131.754C62.7954 128.253 59.0072 126.211 55.3335 127.215Z" fill="url(#paint4_linear)"/>
<path d="M45.1184 119.833C44.2107 118.888 43.5873 117.705 43.3198 116.42C43.1915 115.774 43.1929 115.109 43.3241 114.464C43.4552 113.818 43.7134 113.206 44.0835 112.662C44.9428 111.463 46.3748 110.746 47.7724 110.229C49.1701 109.712 50.6747 109.386 52.0265 108.731C54.2529 107.652 55.9672 105.738 56.8 103.402C57.229 104.42 57.5093 105.495 57.6324 106.594C57.6872 107.153 57.6255 107.718 57.4513 108.252C57.2771 108.786 56.9942 109.278 56.6205 109.697C57.6324 108.873 57.8348 110.08 57.7661 110.88C58.5298 111.382 59.9313 111.11 60.233 111.942C60.5741 112.759 60.7054 113.65 60.6149 114.531C60.4812 115.409 61.2297 116.692 60.3552 116.995" fill="url(#paint5_linear)"/>
<path d="M71.5441 112.826C70.606 109.383 68.7437 106.264 66.1604 103.81C63.5771 101.356 60.3718 99.6608 56.8939 98.9086C53.4161 98.1564 49.7991 98.3764 46.4373 99.5447C43.0756 100.713 40.098 102.785 37.8291 105.534C35.5603 108.283 34.0873 111.604 33.5707 115.136C33.0541 118.667 33.5137 122.273 34.8995 125.56C36.2852 128.847 38.5439 131.69 41.4293 133.778C44.3147 135.866 47.7161 137.119 51.2628 137.401L49.9453 132.551C49.4909 130.863 49.721 129.063 50.5853 127.544C51.4496 126.025 52.878 124.911 54.5583 124.445C56.2398 123.994 58.0309 124.228 59.5415 125.095C61.0521 125.963 62.1598 127.394 62.6235 129.077L63.941 133.923C67.2188 131.619 69.708 128.357 71.0688 124.581C72.4295 120.805 72.5955 116.7 71.5441 112.826Z" fill="#2E6AB1"/>
<path d="M53.845 121.513L53.6976 121.553C53.1158 121.713 52.7728 122.315 52.9317 122.899L54.5268 128.76C54.6856 129.344 55.2861 129.688 55.868 129.529L56.0154 129.488C56.5973 129.329 56.9402 128.726 56.7813 128.143L55.1862 122.281C55.0274 121.698 54.4269 121.354 53.845 121.513Z" fill="white" stroke="white" stroke-miterlimit="10"/>
<path d="M52.1067 122.868C56.2319 122.868 59.5761 119.513 59.5761 115.374C59.5761 111.236 56.2319 107.881 52.1067 107.881C47.9814 107.881 44.6372 111.236 44.6372 115.374C44.6372 119.513 47.9814 122.868 52.1067 122.868Z" fill="white" stroke="white" stroke-miterlimit="10"/>
<path d="M54.5621 124.449C52.8826 124.915 51.4549 126.028 50.5907 127.546C49.7265 129.064 49.4958 130.863 49.9491 132.551L51.2627 137.397C55.7678 137.748 60.2546 136.519 63.9563 133.919L62.6235 129.076C62.159 127.395 61.0515 125.965 59.5418 125.099C58.0322 124.232 56.2426 123.999 54.5621 124.449Z" fill="white" stroke="white" stroke-miterlimit="10"/>
<path d="M44.7289 116.945C43.8465 115.983 43.2396 114.799 42.9723 113.52C42.7098 112.231 42.9607 110.89 43.6711 109.785C44.4769 108.601 45.8135 107.892 47.1577 107.406C48.5019 106.919 49.9148 106.605 51.1941 105.965C52.2509 105.431 53.1914 104.692 53.961 103.79C54.7306 102.889 55.314 101.843 55.6773 100.713C56.1016 101.733 56.3831 102.807 56.5136 103.904C56.5741 104.451 56.5231 105.005 56.3635 105.532C56.204 106.059 55.9393 106.548 55.5856 106.969C56.5403 106.161 56.7312 107.383 56.7045 108.164C57.4262 108.674 58.7743 108.421 59.0721 109.252C59.4125 110.069 59.5526 110.956 59.4807 111.838C59.3624 112.711 60.0955 113.999 59.2631 114.29" fill="white"/>
<path d="M44.7289 116.945C43.8465 115.983 43.2396 114.799 42.9723 113.52C42.7098 112.231 42.9607 110.89 43.6711 109.785C44.4769 108.601 45.8135 107.892 47.1577 107.406C48.5018 106.919 49.9148 106.605 51.1941 105.965C52.2509 105.431 53.1914 104.692 53.961 103.79C54.7306 102.889 55.314 101.843 55.6773 100.713C56.1016 101.733 56.3831 102.807 56.5136 103.904C56.5741 104.451 56.5231 105.005 56.3635 105.532C56.204 106.059 55.9393 106.548 55.5856 106.969C56.5403 106.161 56.7312 107.383 56.7045 108.164C57.4262 108.674 58.7743 108.421 59.0721 109.252C59.4125 110.069 59.5526 110.956 59.4807 111.838C59.3624 112.711 60.0955 113.999 59.2631 114.29" stroke="white" stroke-miterlimit="10"/>
<path d="M55.9369 106.718C55.9369 106.718 61.0845 105.78 59.5418 114.246L55.9369 106.718Z" fill="white"/>
<path opacity="0.1" d="M96.8637 134.18L22.6696 154.5L39.6926 217.054L113.887 196.733L96.8637 134.18Z" fill="black"/>
<path d="M76.8496 154.132L40.5409 164.076L41.5104 167.639L77.8191 157.695L76.8496 154.132Z" fill="white"/>
<path d="M87.7948 160.066L42.8031 172.389L43.7726 175.951L88.7644 163.629L87.7948 160.066Z" fill="white"/>
<path d="M148.39 60.9021L94.7188 75.6016L101.938 102.129L155.609 87.43L148.39 60.9021Z" fill="#F5F5F5"/>
<path d="M155.395 86.6345L101.724 101.334L108.943 127.862L162.614 113.162L155.395 86.6345Z" fill="#E0E0E0"/>
<path d="M275.866 25.9958L222.195 40.6953L229.414 67.2232L283.085 52.5237L275.866 25.9958Z" fill="#F5F5F5"/>
<path d="M282.866 51.7244L229.195 66.4238L236.414 92.9517L290.085 78.2522L282.866 51.7244Z" fill="#E0E0E0"/>
<path d="M211.931 43.5037L158.26 58.2031L165.479 84.731L219.15 70.0315L211.931 43.5037Z" fill="#F5F5F5"/>
<path d="M218.933 69.24L165.262 83.9395L172.481 110.467L226.152 95.7679L218.933 69.24Z" fill="#E0E0E0"/>
<path d="M163.116 121.076L109.706 135.584L116.83 161.983L170.241 147.475L163.116 121.076Z" fill="#E0E0E0"/>
<path d="M171.769 146.816L118.098 161.516L125.317 188.044L178.988 173.344L171.769 146.816Z" fill="#BDBDBD"/>
<path d="M292.239 86.1697L238.568 100.869L245.787 127.397L299.458 112.698L292.239 86.1697Z" fill="#F5F5F5"/>
<path d="M299.245 111.908L245.574 126.607L252.793 153.135L306.464 138.436L299.245 111.908Z" fill="#BDBDBD"/>
<path d="M228.306 103.679L174.635 118.379L181.854 144.907L235.525 130.207L228.306 103.679Z" fill="#F5F5F5"/>
<path d="M235.31 129.416L181.639 144.115L188.858 170.643L242.529 155.944L235.31 129.416Z" fill="#BDBDBD"/>
<path d="M111.232 105.114C114.501 104.219 116.476 101.011 115.643 97.9492C114.81 94.8876 111.484 93.1316 108.214 94.027C104.945 94.9225 102.97 98.1304 103.803 101.192C104.636 104.254 107.962 106.01 111.232 105.114Z" fill="url(#paint6_linear)"/>
<path d="M108.345 104.397C111.266 104.397 113.634 102.021 113.634 99.0911C113.634 96.1607 111.266 93.7852 108.345 93.7852C105.424 93.7852 103.056 96.1607 103.056 99.0911C103.056 102.021 105.424 104.397 108.345 104.397Z" fill="#2E6AB1"/>
<path d="M173.983 87.9267C177.252 87.0312 179.227 83.8234 178.394 80.7617C177.561 77.7001 174.235 75.9441 170.965 76.8395C167.696 77.735 165.721 80.9429 166.554 84.0045C167.387 87.0662 170.713 88.8222 173.983 87.9267Z" fill="url(#paint7_linear)"/>
<path d="M172.367 87.3274C175.304 87.3274 177.686 84.9381 177.686 81.9908C177.686 79.0436 175.304 76.6543 172.367 76.6543C169.429 76.6543 167.047 79.0436 167.047 81.9908C167.047 84.9381 169.429 87.3274 172.367 87.3274Z" fill="#2E6AB1"/>
<path d="M238.706 70.1982C241.975 69.3027 243.95 66.0949 243.117 63.0332C242.284 59.9716 238.958 58.2156 235.688 59.111C232.419 60.0065 230.444 63.2144 231.277 66.276C232.11 69.3376 235.436 71.0937 238.706 70.1982Z" fill="url(#paint8_linear)"/>
<path d="M237.09 69.5969C240.028 69.5969 242.41 67.2077 242.41 64.2604C242.41 61.3131 240.028 58.9238 237.09 58.9238C234.152 58.9238 231.771 61.3131 231.771 64.2604C231.771 67.2077 234.152 69.5969 237.09 69.5969Z" fill="#2E6AB1"/>
<path d="M127.717 165.688C130.987 164.793 132.962 161.585 132.129 158.523C131.295 155.462 127.969 153.706 124.7 154.601C121.43 155.497 119.455 158.705 120.288 161.766C121.122 164.828 124.447 166.584 127.717 165.688Z" fill="url(#paint9_linear)"/>
<path d="M126.102 165.087C129.04 165.087 131.422 162.698 131.422 159.751C131.422 156.803 129.04 154.414 126.102 154.414C123.165 154.414 120.783 156.803 120.783 159.751C120.783 162.698 123.165 165.087 126.102 165.087Z" fill="#2196F3"/>
<path d="M190.467 148.501C193.737 147.605 195.712 144.398 194.879 141.336C194.045 138.274 190.719 136.518 187.45 137.414C184.18 138.309 182.205 141.517 183.038 144.579C183.872 147.64 187.197 149.396 190.467 148.501Z" fill="url(#paint10_linear)"/>
<path d="M188.848 147.902C191.786 147.902 194.168 145.512 194.168 142.565C194.168 139.618 191.786 137.229 188.848 137.229C185.91 137.229 183.529 139.618 183.529 142.565C183.529 145.512 185.91 147.902 188.848 147.902Z" fill="#2196F3"/>
<path d="M255.187 130.774C258.457 129.879 260.432 126.671 259.599 123.609C258.766 120.548 255.44 118.792 252.17 119.687C248.901 120.583 246.925 123.791 247.759 126.852C248.592 129.914 251.918 131.67 255.187 130.774Z" fill="url(#paint11_linear)"/>
<path d="M253.572 130.173C256.51 130.173 258.891 127.784 258.891 124.837C258.891 121.889 256.51 119.5 253.572 119.5C250.634 119.5 248.252 121.889 248.252 124.837C248.252 127.784 250.634 130.173 253.572 130.173Z" fill="#2196F3"/>
<path d="M335.35 115.025H43.2549V259.641H335.35V115.025Z" fill="#F5F5F5"/>
<path d="M337 114.846H41.2234V263.001H337V114.846Z" fill="url(#paint12_linear)"/>
<path d="M335.35 129.621H43.2549V259.548H335.35V129.621Z" fill="white"/>
<path d="M50.2089 125.751C52.242 125.751 53.8901 124.098 53.8901 122.058C53.8901 120.019 52.242 118.365 50.2089 118.365C48.1757 118.365 46.5276 120.019 46.5276 122.058C46.5276 124.098 48.1757 125.751 50.2089 125.751Z" fill="#FCFDFF"/>
<path d="M61.2526 125.751C63.2857 125.751 64.9338 124.098 64.9338 122.058C64.9338 120.019 63.2857 118.365 61.2526 118.365C59.2194 118.365 57.5713 120.019 57.5713 122.058C57.5713 124.098 59.2194 125.751 61.2526 125.751Z" fill="#FCFDFF"/>
<path d="M72.3003 125.751C74.3334 125.751 75.9815 124.098 75.9815 122.058C75.9815 120.019 74.3334 118.365 72.3003 118.365C70.2672 118.365 68.619 120.019 68.619 122.058C68.619 124.098 70.2672 125.751 72.3003 125.751Z" fill="#FCFDFF"/>
<path d="M120.164 129.449H43.2549V259.549H120.164V129.449Z" fill="#ECF2F9"/>
<path d="M102.178 170.095C102.178 159.33 93.0131 150.6 81.7249 150.6C70.4367 150.6 61.2679 159.311 61.2679 170.095C61.2679 178.547 66.9082 185.737 74.7977 188.442V183.404C74.7977 179.772 77.9138 176.803 81.7249 176.803C85.5437 176.803 88.6521 179.772 88.6521 183.404V188.427C96.5378 185.722 102.178 178.524 102.178 170.095Z" fill="url(#paint13_linear)"/>
<path d="M81.8584 173.781H81.5835C80.9803 173.781 80.4913 174.272 80.4913 174.877V180.953C80.4913 181.558 80.9803 182.048 81.5835 182.048H81.8584C82.4616 182.048 82.9506 181.558 82.9506 180.953V174.877C82.9506 174.272 82.4616 173.781 81.8584 173.781Z" fill="url(#paint14_linear)"/>
<path d="M81.7363 174.891C86.0788 174.891 89.5991 171.536 89.5991 167.398C89.5991 163.259 86.0788 159.904 81.7363 159.904C77.3938 159.904 73.8735 163.259 73.8735 167.398C73.8735 171.536 77.3938 174.891 81.7363 174.891Z" fill="url(#paint15_linear)"/>
<path d="M81.7172 176.803C77.8985 176.803 74.79 179.772 74.79 183.403V188.426C79.2812 189.954 84.1495 189.954 88.6406 188.426V183.403C88.6482 179.772 85.536 176.803 81.7172 176.803Z" fill="url(#paint16_linear)"/>
<path d="M73.7934 166.98C73.1641 165.828 72.8728 164.521 72.9533 163.21C73.0019 162.553 73.1811 161.912 73.4801 161.325C73.7791 160.738 74.1921 160.217 74.6946 159.793C75.8403 158.862 77.3945 158.532 78.8953 158.417C80.396 158.302 81.9159 158.371 83.3937 158.096C85.8252 157.643 87.9816 156.249 89.3968 154.215C89.5458 155.31 89.5342 156.421 89.3624 157.513C89.2679 158.067 89.0599 158.595 88.7516 159.064C88.4434 159.532 88.0415 159.932 87.5714 160.237C88.7667 159.712 88.6369 160.946 88.3772 161.685C88.9691 162.367 90.4088 162.478 90.4813 163.359C90.6001 164.239 90.4964 165.135 90.1796 165.964C89.8169 166.777 90.2064 168.209 89.2822 168.263" fill="url(#paint17_linear)"/>
<path d="M101.139 167.207C101.139 163.637 100.162 160.136 98.3142 157.086C96.4667 154.035 93.8197 151.552 90.662 149.907C87.5043 148.262 83.957 147.518 80.4068 147.756C76.8566 147.995 73.4399 149.207 70.5291 151.26C67.6184 153.313 65.3252 156.128 63.8998 159.398C62.4744 162.669 61.9714 166.269 62.4456 169.807C62.9198 173.345 64.3531 176.684 66.5891 179.461C68.8252 182.237 71.7781 184.345 75.1261 185.553V180.538C75.1291 178.786 75.8245 177.106 77.0599 175.866C78.2954 174.627 79.9701 173.929 81.7173 173.926C83.4637 173.927 85.1387 174.622 86.3754 175.859C87.6122 177.096 88.31 178.775 88.316 180.527V185.549C92.0738 184.185 95.3211 181.692 97.6157 178.41C99.9103 175.128 101.141 171.216 101.139 167.207Z" fill="#2E6AB1"/>
<path d="M81.7859 170.908H81.6332C81.03 170.908 80.541 171.399 80.541 172.004V178.08C80.541 178.685 81.03 179.175 81.6332 179.175H81.7859C82.3891 179.175 82.8781 178.685 82.8781 178.08V172.004C82.8781 171.399 82.3891 170.908 81.7859 170.908Z" fill="white" stroke="white" stroke-miterlimit="10"/>
<path d="M81.721 172.018C85.8463 172.018 89.1905 168.663 89.1905 164.525C89.1905 160.386 85.8463 157.031 81.721 157.031C77.5958 157.031 74.2516 160.386 74.2516 164.525C74.2516 168.663 77.5958 172.018 81.721 172.018Z" fill="white" stroke="white" stroke-miterlimit="10"/>
<path d="M81.7173 173.926C79.9728 173.932 78.3015 174.63 77.0687 175.869C75.8359 177.107 75.1416 178.784 75.1376 180.534V185.557C79.3917 187.085 84.0428 187.085 88.297 185.557V180.538C88.2939 178.787 87.6001 177.109 86.3672 175.87C85.1342 174.631 83.4624 173.932 81.7173 173.926Z" fill="white" stroke="white" stroke-miterlimit="10"/>
<path d="M74.1752 164.11C73.5764 162.949 73.3007 161.646 73.3771 160.341C73.4645 159.029 74.0591 157.802 75.0344 156.924C76.1228 155.993 77.5968 155.663 79.0212 155.548C80.4456 155.433 81.8891 155.502 83.2944 155.226C84.4542 154.991 85.5559 154.527 86.5353 153.861C87.5147 153.194 88.3524 152.34 88.9995 151.346C89.1402 152.441 89.13 153.551 88.969 154.644C88.884 155.19 88.6892 155.713 88.3964 156.182C88.1037 156.65 87.719 157.054 87.2658 157.368C88.4115 156.843 88.2778 158.077 88.0296 158.816C88.5909 159.498 89.9389 159.609 90.0268 160.49C90.1408 161.369 90.0426 162.263 89.7404 163.095C89.3967 163.907 89.7633 165.34 88.8888 165.394" fill="white"/>
<path d="M74.1752 164.11C73.5764 162.949 73.3007 161.646 73.3771 160.341C73.4645 159.029 74.0591 157.802 75.0344 156.924C76.1228 155.993 77.5968 155.663 79.0212 155.548C80.4456 155.433 81.8891 155.502 83.2944 155.226C84.4542 154.991 85.5559 154.527 86.5353 153.861C87.5147 153.194 88.3524 152.34 88.9995 151.346C89.1402 152.441 89.13 153.551 88.969 154.644C88.884 155.19 88.6892 155.713 88.3964 156.182C88.1036 156.65 87.719 157.054 87.2658 157.368C88.4115 156.843 88.2778 158.077 88.0296 158.816C88.5909 159.498 89.9389 159.609 90.0268 160.49C90.1408 161.369 90.0426 162.263 89.7404 163.095C89.3967 163.907 89.7633 165.34 88.8888 165.394" stroke="white" stroke-miterlimit="10"/>
<path d="M87.6897 157.17C87.6897 157.17 92.9023 157.626 89.1905 165.387L87.6897 157.17Z" fill="white"/>
<path opacity="0.1" d="M119.958 194.498H43.0487V259.341H119.958V194.498Z" fill="black"/>
<path d="M95.415 208.451H57.7775V212.144H95.415V208.451Z" fill="white"/>
<path d="M186.641 151.404H149.003V155.097H186.641V151.404Z" fill="#BDBDBD"/>
<path d="M283.595 173.566H149.003V177.259H283.595V173.566Z" fill="#E0E0E0"/>
<path d="M283.595 195.729H149.003V199.422H283.595V195.729Z" fill="#E0E0E0"/>
<path d="M186.641 217.891H149.003V221.584H186.641V217.891Z" fill="#2E6AB1"/>
<path d="M234.914 217.891H197.276V221.584H234.914V217.891Z" fill="#F5F5F5"/>
<path d="M283.599 217.891H245.961V221.584H283.599V217.891Z" fill="#2E6AB1"/>
<path d="M104.416 217.07H57.7775V220.763H104.416V217.07Z" fill="white"/>
</g>
<defs>
<linearGradient id="paint0_linear" x1="181.561" y1="181.994" x2="142.434" y2="39.1326" gradientUnits="userSpaceOnUse">
<stop stop-color="#808080" stop-opacity="0.25"/>
<stop offset="0.54" stop-color="#808080" stop-opacity="0.12"/>
<stop offset="1" stop-color="#808080" stop-opacity="0.1"/>
</linearGradient>
<linearGradient id="paint1_linear" x1="59.6834" y1="138.673" x2="49.8143" y2="102.349" gradientUnits="userSpaceOnUse">
<stop stop-opacity="0.12"/>
<stop offset="0.55" stop-opacity="0.09"/>
<stop offset="1" stop-opacity="0.02"/>
</linearGradient>
<linearGradient id="paint2_linear" x1="-1683.54" y1="-3181.07" x2="-1730.66" y2="-3353.1" gradientUnits="userSpaceOnUse">
<stop stop-opacity="0.12"/>
<stop offset="0.55" stop-opacity="0.09"/>
<stop offset="1" stop-opacity="0.02"/>
</linearGradient>
<linearGradient id="paint3_linear" x1="-7871.19" y1="-4883.04" x2="-8026.03" y2="-5448.37" gradientUnits="userSpaceOnUse">
<stop stop-opacity="0.12"/>
<stop offset="0.55" stop-opacity="0.09"/>
<stop offset="1" stop-opacity="0.02"/>
</linearGradient>
<linearGradient id="paint4_linear" x1="-6141.31" y1="5841.2" x2="-6141.31" y2="6285.97" gradientUnits="userSpaceOnUse">
<stop stop-opacity="0.12"/>
<stop offset="0.55" stop-opacity="0.09"/>
<stop offset="1" stop-opacity="0.02"/>
</linearGradient>
<linearGradient id="paint5_linear" x1="-7254.63" y1="8055.04" x2="-7254.63" y2="8657.73" gradientUnits="userSpaceOnUse">
<stop stop-opacity="0.12"/>
<stop offset="0.55" stop-opacity="0.09"/>
<stop offset="1" stop-opacity="0.02"/>
</linearGradient>
<linearGradient id="paint6_linear" x1="103.806" y1="101.187" x2="115.651" y2="97.9638" gradientUnits="userSpaceOnUse">
<stop stop-opacity="0.09"/>
<stop offset="0.55" stop-opacity="0.07"/>
<stop offset="1" stop-opacity="0.02"/>
</linearGradient>
<linearGradient id="paint7_linear" x1="-2337" y1="-4996.34" x2="-1956.29" y2="-5099.94" gradientUnits="userSpaceOnUse">
<stop stop-opacity="0.09"/>
<stop offset="0.55" stop-opacity="0.07"/>
<stop offset="1" stop-opacity="0.02"/>
</linearGradient>
<linearGradient id="paint8_linear" x1="-189.601" y1="-5566.08" x2="191.108" y2="-5669.68" gradientUnits="userSpaceOnUse">
<stop stop-opacity="0.09"/>
<stop offset="0.55" stop-opacity="0.07"/>
<stop offset="1" stop-opacity="0.02"/>
</linearGradient>
<linearGradient id="paint9_linear" x1="-3924.23" y1="-2689.48" x2="-3543.52" y2="-2793.09" gradientUnits="userSpaceOnUse">
<stop stop-opacity="0.09"/>
<stop offset="0.55" stop-opacity="0.07"/>
<stop offset="1" stop-opacity="0.02"/>
</linearGradient>
<linearGradient id="paint10_linear" x1="-1842.33" y1="-3241.85" x2="-1461.62" y2="-3345.46" gradientUnits="userSpaceOnUse">
<stop stop-opacity="0.09"/>
<stop offset="0.55" stop-opacity="0.07"/>
<stop offset="1" stop-opacity="0.02"/>
</linearGradient>
<linearGradient id="paint11_linear" x1="304.829" y1="-3811.55" x2="685.539" y2="-3915.15" gradientUnits="userSpaceOnUse">
<stop stop-opacity="0.09"/>
<stop offset="0.55" stop-opacity="0.07"/>
<stop offset="1" stop-opacity="0.02"/>
</linearGradient>
<linearGradient id="paint12_linear" x1="146519" y1="-72.0243" x2="146519" y2="-57368.1" gradientUnits="userSpaceOnUse">
<stop stop-color="#808080" stop-opacity="0.25"/>
<stop offset="0.54" stop-color="#808080" stop-opacity="0.12"/>
<stop offset="1" stop-color="#808080" stop-opacity="0.1"/>
</linearGradient>
<linearGradient id="paint13_linear" x1="15250.3" y1="-3311.4" x2="15250.3" y2="-7049.47" gradientUnits="userSpaceOnUse">
<stop stop-opacity="0.12"/>
<stop offset="0.55" stop-opacity="0.09"/>
<stop offset="1" stop-opacity="0.02"/>
</linearGradient>
<linearGradient id="paint14_linear" x1="606.797" y1="-1669.47" x2="606.797" y2="-1847.88" gradientUnits="userSpaceOnUse">
<stop stop-opacity="0.12"/>
<stop offset="0.55" stop-opacity="0.09"/>
<stop offset="1" stop-opacity="0.02"/>
</linearGradient>
<linearGradient id="paint15_linear" x1="3439.93" y1="-3365.46" x2="3439.93" y2="-3951.75" gradientUnits="userSpaceOnUse">
<stop stop-opacity="0.12"/>
<stop offset="0.55" stop-opacity="0.09"/>
<stop offset="1" stop-opacity="0.02"/>
</linearGradient>
<linearGradient id="paint16_linear" x1="5177.11" y1="-1057.66" x2="5177.11" y2="-1483.27" gradientUnits="userSpaceOnUse">
<stop stop-opacity="0.12"/>
<stop offset="0.55" stop-opacity="0.09"/>
<stop offset="1" stop-opacity="0.02"/>
</linearGradient>
<linearGradient id="paint17_linear" x1="6569.45" y1="-1926.94" x2="6569.45" y2="-2442.09" gradientUnits="userSpaceOnUse">
<stop stop-opacity="0.12"/>
<stop offset="0.55" stop-opacity="0.09"/>
<stop offset="1" stop-opacity="0.02"/>
</linearGradient>
<clipPath id="clip0">
<rect width="337" height="263" fill="white"/>
</clipPath>
</defs>
</svg>
