<svg width="427" height="289" viewBox="0 0 427 289" fill="none" xmlns="http://www.w3.org/2000/svg">
<g clip-path="url(#clip0)">
<path opacity="0.36" d="M231.03 42.3064C204.789 42.265 179.491 34.1202 155.316 25.0562C131.141 15.9922 107.129 5.88473 81.3627 1.54863C64.7711 -1.23912 45.9547 -1.05076 33.0321 8.84954C20.5884 18.3769 17.0401 34.188 15.3357 48.8124C14.0574 59.8052 13.4842 71.3518 18.4165 81.4254C21.8441 88.4212 27.6889 94.1926 31.8255 100.864C46.2187 124.071 37.6778 153.606 23.8163 177.272C17.3116 188.362 9.69078 198.986 4.78494 210.725C-0.120893 222.463 -2.10811 235.784 2.95987 247.399C7.99014 258.915 19.3026 267.312 31.4032 273.042C56.0228 284.721 84.632 287.29 112.476 288.333C174.121 290.647 235.861 286.525 297.438 282.381C320.225 280.852 343.114 279.307 365.422 274.738C377.809 272.202 390.559 268.424 399.322 260.075C410.446 249.482 412.678 232.134 404.529 219.638C390.856 198.658 354.973 194.605 345.132 171.933C339.713 159.452 344.313 145.186 351.112 133.184C365.701 107.457 390.872 84.4467 391.215 55.6198C391.448 35.8192 378.269 16.4669 358.646 7.80225C338.073 -1.29187 310.078 0.945874 295.738 17.7063C280.971 34.9565 254.202 42.3441 231.03 42.3064Z" fill="#C9DAEF"/>
<path d="M361.561 235.828C361.561 235.828 356.927 232.773 352.334 234.947C352.334 234.947 353.748 237.67 359.563 237.411L361.561 235.828Z" fill="#6C63FF"/>
<path d="M362.131 235.996C362.131 235.996 363.541 241.361 360.008 245.011C360.008 245.011 357.881 242.796 360.008 237.379L362.131 235.996Z" fill="#6C63FF"/>
<path d="M367.911 230.846C367.911 230.846 367.568 226.28 357.259 227.794C357.259 227.794 357.21 230.74 360.83 232.134C364.45 233.528 366.105 232.353 367.911 230.846Z" fill="#6C63FF"/>
<path d="M368.545 230.811C368.545 230.811 372.907 232.212 369.02 241.875C369.02 241.875 366.143 241.231 365.626 237.388C365.11 233.546 366.656 232.212 368.545 230.811Z" fill="#6C63FF"/>
<path d="M374.386 224.338C374.386 224.338 374.974 216.83 364.434 217.603C364.434 217.603 363.68 224.384 372.523 226.143L374.386 224.338Z" fill="#6C63FF"/>
<path d="M381.35 215.863C381.35 215.863 379.902 207.356 369.371 209.892C369.371 209.892 369.329 217.249 379.627 217.893L381.35 215.863Z" fill="#6C63FF"/>
<path d="M386.437 207.101C386.437 207.101 384.02 198.813 373.583 201.296C373.583 201.296 376.064 208.748 385.743 208.635L386.437 207.101Z" fill="#6C63FF"/>
<path d="M391.271 198.533C391.271 198.533 388.907 189.933 378.828 192.506C378.828 192.506 382.191 200.677 390.608 199.991L391.271 198.533Z" fill="#6C63FF"/>
<path d="M394.39 190.415C394.39 190.415 392.573 179.912 383.187 182.225C383.187 182.225 385.917 191.794 393.708 191.945L394.39 190.415Z" fill="#C9DAEF"/>
<path d="M397.309 180.594C397.309 180.594 395.129 169.989 385.619 173.06C385.619 173.06 389.348 183.077 396.637 182.041L397.309 180.594Z" fill="#C9DAEF"/>
<path d="M399.119 171.451C399.119 171.451 395.654 160.85 388.304 161.137C388.304 161.137 391.849 172.337 398.485 173.568L399.119 171.451Z" fill="#C9DAEF"/>
<path d="M400.269 162.533C400.269 162.533 396.498 149.77 390.518 150.753C390.518 150.753 393.127 160.51 400.058 164.519L400.269 162.533Z" fill="#C9DAEF"/>
<path d="M400.909 151.879C400.909 151.879 397.376 141.24 391.482 140.818C391.482 140.818 393.888 151.284 400.789 154.64L400.909 151.879Z" fill="#C9DAEF"/>
<path d="M401.638 141.962C401.638 141.962 397.23 131.312 393.342 131.074C393.342 131.074 395.254 141.555 401.261 143.71L401.638 141.962Z" fill="#C9DAEF"/>
<path d="M402.124 132.723C402.124 132.723 399.402 121.143 395.518 120.201C395.518 120.201 396.053 129.657 401.736 133.586L402.124 132.723Z" fill="#C9DAEF"/>
<path d="M403.591 120.635C403.591 120.635 400.74 111.421 397.584 110.016C397.584 110.016 398.21 120.88 402.863 122.892L403.591 120.635Z" fill="#C9DAEF"/>
<path d="M404.809 112.697L405.385 96.4453C405.385 96.4453 399.495 108.708 404.375 115.564L404.809 112.697Z" fill="#C9DAEF"/>
<path d="M409.368 96.5474C409.368 96.5474 413.614 84.6768 414.647 84.0176C414.647 84.0176 406.313 91.714 407.128 101.622L409.368 96.5474Z" fill="#C9DAEF"/>
<path d="M374.673 224.286C374.673 224.286 382.146 223.306 381.92 233.862C381.92 233.862 375.167 234.958 372.964 226.233L374.673 224.286Z" fill="#6C63FF"/>
<path d="M381.701 215.58C381.701 215.58 390.34 215.55 389.62 226.354C389.62 226.354 382.372 227.646 379.978 217.618L381.701 215.58Z" fill="#6C63FF"/>
<path d="M386.509 207.79C386.509 207.79 394.348 204.117 399.367 213.595C399.367 213.595 392.124 216.658 385.819 209.32L386.509 207.79Z" fill="#C9DAEF"/>
<path d="M391.449 198.624C391.449 198.624 399.473 194.714 404.187 203.977C404.187 203.977 395.827 206.856 390.785 200.09L391.449 198.624Z" fill="#C9DAEF"/>
<path d="M394.288 190.642C394.288 190.642 402.014 183.269 408.18 190.728C408.18 190.728 400.287 196.794 393.93 192.284L394.288 190.642Z" fill="#C9DAEF"/>
<path d="M396.871 180.342C396.871 180.342 404.646 172.808 410.763 180.689C410.763 180.689 402.037 186.878 396.596 181.924L396.871 180.342Z" fill="#C9DAEF"/>
<path d="M398.327 171.148C398.327 171.148 404.315 161.73 411.362 163.836C411.362 163.836 405.152 173.808 398.395 173.364L398.327 171.148Z" fill="#C9DAEF"/>
<path d="M400.084 162.474C400.084 162.474 406.117 150.611 411.822 152.68C411.822 152.68 407.475 161.796 399.929 164.475L400.084 162.474Z" fill="#C9DAEF"/>
<path d="M400.506 151.282C400.506 151.282 406.709 141.947 412.52 143.084C412.52 143.084 407.452 152.551 399.907 153.983L400.506 151.282Z" fill="#C9DAEF"/>
<path d="M400.981 141.749C400.981 141.749 405.785 131.277 409.696 131.201C409.696 131.201 407.388 141.606 401.302 143.531L400.981 141.749Z" fill="#C9DAEF"/>
<path d="M401.932 132.495C401.932 132.495 407.275 121.886 411.291 121.867C411.291 121.867 408.557 130.935 402.113 133.429L401.932 132.495Z" fill="#C9DAEF"/>
<path d="M402.724 121.305C402.724 121.305 406.721 112.528 410.028 111.533C410.028 111.533 408.029 122.232 403.161 123.634L402.724 121.305Z" fill="#C9DAEF"/>
<path d="M405.288 112.387L414.217 98.7949C414.217 98.7949 411.932 112.203 403.983 114.994L405.288 112.387Z" fill="#C9DAEF"/>
<path d="M411.419 97.6403C411.419 97.6403 421.8 90.4826 422.173 89.3223C422.173 89.3223 416.894 99.3507 407.09 101.121L411.419 97.6403Z" fill="#C9DAEF"/>
<path d="M412.038 94.418C412.038 94.418 423.957 82.9693 427 82.9844C427 82.9844 417.17 83.4327 411.751 93.8077L412.038 94.418Z" fill="#C9DAEF"/>
<path d="M402.852 122.986L403.285 123.042C405.525 105.524 408.791 95.1644 412.482 93.8911L412.339 93.4805C408.429 94.8367 405.148 105.038 402.852 122.986Z" fill="#CDCDCD"/>
<path d="M399.56 164.866L400.216 164.922C400.352 163.287 400.458 161.611 400.529 159.946C401.155 145.446 402.128 132.136 403.403 122.156L403.025 121.686C401.747 131.684 400.503 145.4 399.877 159.915C399.801 161.573 399.707 163.238 399.56 164.866Z" fill="#CDCDCD"/>
<path d="M349.321 244.169C349.438 244.117 360.988 238.967 372.975 226.674C379.997 219.476 385.832 211.211 390.264 202.187C395.804 190.912 399.182 177.056 400.317 163.596L399.635 163.916C397.09 194.125 383.322 214.774 372.372 226.015C360.501 238.198 349.083 243.299 348.97 243.344L349.321 244.169Z" fill="#CDCDCD"/>
<path d="M395.449 18.4141H33.1189C32.6951 18.4141 32.2753 18.4975 31.8837 18.6595C31.4921 18.8216 31.1363 19.0591 30.8365 19.3586C30.5368 19.658 30.299 20.0135 30.1368 20.4048C29.9746 20.796 29.8911 21.2153 29.8911 21.6388V31.0343H398.677V21.6388C398.677 20.7836 398.337 19.9633 397.732 19.3586C397.126 18.7538 396.305 18.4141 395.449 18.4141Z" fill="#1C292E"/>
<path d="M29.8911 31.0332V242.466C29.8911 244.19 30.5768 245.844 31.7974 247.064C33.018 248.283 34.6734 248.968 36.3995 248.968H392.165C393.891 248.968 395.547 248.283 396.767 247.064C397.988 245.844 398.673 244.19 398.673 242.466V31.0332H29.8911Z" fill="white"/>
<path opacity="0.8" d="M35.7359 26.1329C36.5689 26.1329 37.2442 25.4583 37.2442 24.626C37.2442 23.7938 36.5689 23.1191 35.7359 23.1191C34.9028 23.1191 34.2275 23.7938 34.2275 24.626C34.2275 25.4583 34.9028 26.1329 35.7359 26.1329Z" fill="#F2F2F2"/>
<path opacity="0.8" d="M39.8838 26.1329C40.7168 26.1329 41.3921 25.4583 41.3921 24.626C41.3921 23.7938 40.7168 23.1191 39.8838 23.1191C39.0508 23.1191 38.3755 23.7938 38.3755 24.626C38.3755 25.4583 39.0508 26.1329 39.8838 26.1329Z" fill="#F2F2F2"/>
<path opacity="0.8" d="M44.0318 26.1329C44.8648 26.1329 45.5401 25.4583 45.5401 24.626C45.5401 23.7938 44.8648 23.1191 44.0318 23.1191C43.1987 23.1191 42.5234 23.7938 42.5234 24.626C42.5234 25.4583 43.1987 26.1329 44.0318 26.1329Z" fill="#F2F2F2"/>
<g opacity="0.3">
<path opacity="0.3" d="M384.914 43.8398H44.0317V235.969H384.914V43.8398Z" stroke="#3F3D56" stroke-miterlimit="10"/>
<path opacity="0.3" d="M340.418 43.8398H88.5273V235.969H340.418V43.8398Z" stroke="#3F3D56" stroke-miterlimit="10"/>
<path opacity="0.3" d="M295.922 43.8398H133.023V235.969H295.922V43.8398Z" stroke="#3F3D56" stroke-miterlimit="10"/>
<path opacity="0.3" d="M251.427 43.8398H177.519V235.969H251.427V43.8398Z" stroke="#3F3D56" stroke-miterlimit="10"/>
<path opacity="0.3" d="M214.473 43.8398V235.969" stroke="#3F3D56" stroke-miterlimit="10"/>
<path opacity="0.3" d="M384.914 71.7168H44.0317V208.091H384.914V71.7168Z" stroke="#3F3D56" stroke-miterlimit="10"/>
<path opacity="0.3" d="M384.914 99.2188H44.0317V180.591H384.914V99.2188Z" stroke="#3F3D56" stroke-miterlimit="10"/>
<path opacity="0.3" d="M384.914 126.719H44.0317V153.089H384.914V126.719Z" stroke="#3F3D56" stroke-miterlimit="10"/>
</g>
<path d="M123.079 54.5762H98.4709C97.8732 54.5762 97.3887 55.0602 97.3887 55.6574V63.2898C97.3887 63.8869 97.8732 64.371 98.4709 64.371H123.079C123.677 64.371 124.161 63.8869 124.161 63.2898V55.6574C124.161 55.0602 123.677 54.5762 123.079 54.5762Z" fill="#CDCDCD"/>
<path d="M167.771 107.676H150.376V124.5H167.771V107.676Z" fill="url(#paint0_linear)"/>
<path d="M167.473 107.965H150.678V124.209H167.473V107.965Z" fill="#2E6AB1"/>
<path d="M203.609 104.027H186.214V120.852H203.609V104.027Z" fill="url(#paint1_linear)"/>
<path d="M203.311 104.318H186.516V120.563H203.311V104.318Z" fill="#C9DAEF"/>
<path d="M272.615 161.291H255.22V178.116H272.615V161.291Z" fill="url(#paint2_linear)"/>
<path d="M272.317 161.58H255.522V177.824H272.317V161.58Z" fill="#C9DAEF"/>
<path d="M119.422 77.6914H102.027V94.5159H119.422V77.6914Z" fill="url(#paint3_linear)"/>
<path d="M119.12 77.9824H102.325V94.2268H119.12V77.9824Z" fill="#C9DAEF"/>
<path d="M153.985 101.803H136.59V118.627H153.985V101.803Z" fill="url(#paint4_linear)"/>
<path d="M153.683 102.092H136.888V118.336H153.683V102.092Z" fill="#E6AD0A"/>
<path d="M292.963 161.17H275.568V177.994H292.963V161.17Z" fill="url(#paint5_linear)"/>
<path d="M292.665 161.461H275.87V177.705H292.665V161.461Z" fill="#2E6AB1"/>
<path d="M323.506 77.9141H306.111V94.7385H323.506V77.9141Z" fill="url(#paint6_linear)"/>
<path d="M323.208 78.2051H306.413V94.4494H323.208V78.2051Z" fill="#2E6AB1"/>
<path d="M321.621 131.408H304.226V148.233H321.621V131.408Z" fill="url(#paint7_linear)"/>
<path d="M321.323 131.699H304.528V147.944H321.323V131.699Z" fill="#2E6AB1"/>
<path d="M334.819 135.176H317.424V152H334.819V135.176Z" fill="url(#paint8_linear)"/>
<path d="M334.521 135.467H317.726V151.711H334.521V135.467Z" fill="#2E6AB1"/>
<path d="M279.177 155.297H261.782V172.121H279.177V155.297Z" fill="url(#paint9_linear)"/>
<path d="M278.875 155.588H262.08V171.832H278.875V155.588Z" fill="#E6AD0A"/>
<path d="M281.062 104.439H263.667V121.264H281.062V104.439Z" fill="url(#paint10_linear)"/>
<path d="M280.76 104.729H263.965V120.973H280.76V104.729Z" fill="#E6AD0A"/>
<path opacity="0.1" d="M75.5181 107.695H55.5327V117.49H75.5181V107.695Z" fill="#3F3D56"/>
<path opacity="0.1" d="M75.5181 135.195H55.5327V144.99H75.5181V135.195Z" fill="#3F3D56"/>
<path opacity="0.1" d="M75.5181 162.695H55.5327V172.49H75.5181V162.695Z" fill="#3F3D56"/>
<path opacity="0.1" d="M75.5181 190.197H55.5327V199.992H75.5181V190.197Z" fill="#3F3D56"/>
<path opacity="0.1" d="M75.5181 217.697H55.5327V227.492H75.5181V217.697Z" fill="#3F3D56"/>
<path d="M116.243 132.261C116.801 131.907 116.579 130.958 116.006 130.63C115.432 130.302 114.72 130.412 114.075 130.54C114.102 130.376 114.077 130.207 114.003 130.058C113.928 129.909 113.808 129.788 113.66 129.711V129.568C114.037 129.191 113.894 128.438 113.434 128.106C112.974 127.775 112.257 127.76 111.639 127.79C111.683 127.415 111.638 127.036 111.506 126.682C111.375 126.328 111.162 126.011 110.885 125.755C110.777 125.639 110.629 125.568 110.47 125.556C110.093 125.556 109.987 126.038 109.961 126.396C109.89 127.336 109.734 128.267 109.497 129.18L97.7775 148.769C96.4728 150.653 100.526 145.002 99.2217 146.905C98.5603 147.94 97.7863 148.899 96.914 149.764C96.1306 150.463 95.2536 151.05 94.3083 151.508C93.6773 151.526 93.0559 151.35 92.5285 151.003C91.8664 150.54 91.2876 149.968 90.8166 149.312C89.7941 148.015 88.8702 146.644 88.0525 145.209C87.769 144.755 87.5554 144.261 87.419 143.744C87.2456 142.93 87.419 142.049 87.0985 141.284C86.963 140.998 86.7933 140.73 86.5932 140.485L85.7825 139.412V139.363C85.692 137.773 84.3986 136.545 83.192 135.497C82.1663 134.601 81.0539 133.667 79.7002 133.493C78.9762 133.399 78.2333 133.538 77.5093 133.448C76.9173 133.373 76.3555 133.15 75.7672 133.053C75.2012 132.973 74.6278 132.962 74.059 133.019L73.8177 132.796C75.0697 132.269 76.133 131.376 76.8683 130.235C77.4264 129.334 77.7318 128.294 78.2484 127.368C78.8781 126.238 79.8133 125.303 80.5109 124.218C82.1965 121.645 82.5057 118.334 81.8232 115.335C81.1406 112.336 79.5418 109.613 77.6753 107.183C74.0553 102.504 67.9843 100.779 62.2677 101.683C61.8906 101.743 61.5135 101.815 61.1364 101.897C60.1748 102.1 59.2362 102.399 58.3347 102.79C57.1152 103.289 56.0571 104.114 55.2766 105.175C55.0657 105.485 54.8875 105.815 54.7449 106.162C54.6385 106.426 54.5528 106.698 54.4885 106.976C54.314 107.813 54.267 108.671 54.349 109.522C54.3716 109.812 54.4018 110.102 54.4357 110.393L54.4923 110.83C54.53 111.12 54.5714 111.41 54.6129 111.7C54.6733 112.137 54.7298 112.574 54.7713 113.003C54.8045 113.307 54.8209 113.613 54.8203 113.919V114.149C54.8052 114.376 54.7711 114.601 54.7185 114.823C54.6883 114.944 54.6505 115.064 54.6054 115.181C54.4704 115.527 54.2917 115.855 54.0737 116.156C53.7809 116.567 53.4623 116.958 53.1197 117.328L52.7916 117.705L52.4673 118.082C52.0366 118.584 51.6421 119.117 51.2871 119.675C51.114 119.956 50.9591 120.248 50.8233 120.549C50.7213 120.778 50.6319 121.011 50.5555 121.25C50.4596 121.57 50.3914 121.897 50.3519 122.229C50.3556 122.313 50.348 122.396 50.3293 122.478V122.971C50.3373 123.136 50.355 123.299 50.3821 123.461C50.4082 123.622 50.446 123.781 50.4952 123.936C50.5424 124.093 50.6017 124.247 50.6724 124.395C50.6724 124.437 50.7101 124.478 50.7328 124.52L50.7931 124.644C50.8346 124.727 50.876 124.806 50.9138 124.889C50.9704 125.009 51.0121 125.135 51.0382 125.266V125.541C50.9768 125.919 50.7781 126.261 50.4801 126.501C50.4047 126.573 50.3293 126.637 50.2501 126.705L50.1294 126.803L49.8843 126.995L49.6505 127.183C49.446 127.356 49.2556 127.545 49.0811 127.748C46.9579 127.635 44.8296 127.843 42.7688 128.366C42.0366 128.604 41.2755 128.742 40.5063 128.777C40.3217 128.794 40.1358 128.765 39.9648 128.694C39.7938 128.622 39.6431 128.51 39.5259 128.366C39.3947 128.084 39.359 127.766 39.4241 127.462C39.5258 126.201 39.3187 124.934 38.8207 123.77C38.7002 123.43 38.4922 123.127 38.2174 122.892C38.0776 122.778 37.905 122.711 37.7245 122.702C37.5441 122.692 37.3654 122.74 37.2144 122.84C37.8525 124.901 37.7606 127.118 36.9542 129.12C36.5407 130.067 36.0554 130.981 35.5024 131.855C34.6427 133.32 34.16 134.996 33.3945 136.515C34.2505 139.412 34.0582 142.505 34.5258 145.496C34.9443 148.28 35.9172 150.947 36.8939 153.588C37.648 155.581 38.4323 157.66 40.0312 159.062C40.5465 159.581 41.2415 159.883 41.9731 159.905C42.5147 159.838 43.0321 159.642 43.4815 159.333C43.9486 159.08 44.3788 158.765 44.7598 158.395C44.9003 158.239 45.0265 158.072 45.1369 157.894C45.183 158.146 45.2792 158.387 45.4197 158.602C46.3398 156.62 47.3503 154.684 48.4363 152.789C48.7592 152.616 49.0627 152.409 49.3413 152.171C49.35 152.241 49.3678 152.309 49.3941 152.375C49.3451 152.556 49.2998 152.751 49.2508 152.921C49.2018 153.09 49.1452 153.271 49.0925 153.441C49.0397 153.61 49.0133 153.693 48.9718 153.818C48.9303 153.942 48.87 154.119 48.8134 154.27C48.7568 154.42 48.6927 154.597 48.6286 154.759C48.5645 154.921 48.5419 154.993 48.4929 155.106C48.376 155.392 48.2553 155.671 48.1158 155.95C48.2209 156.001 48.3292 156.045 48.4401 156.082L48.5117 156.104C48.6095 156.135 48.709 156.16 48.8096 156.18H48.919C48.9927 156.191 49.067 156.198 49.1415 156.202H49.4695C49.7395 156.191 50.0068 156.145 50.2652 156.067L50.4122 156.669C50.7886 158.024 51.031 159.412 51.1362 160.813C51.2079 162.396 50.9326 164.004 51.238 165.56C51.3927 166.37 51.7056 167.146 51.8188 167.96C51.8917 168.726 51.8778 169.498 51.7773 170.262C51.6013 172.11 51.4253 173.96 51.2494 175.811C51.2341 176.49 51.072 177.158 50.7742 177.77C50.514 178.222 50.0917 178.738 50.3557 179.186C50.7902 179.07 51.2325 178.986 51.6792 178.934C51.5171 179.521 51.37 180.113 51.2305 180.708C51.0938 181.15 51.0577 181.618 51.1249 182.076C51.2192 182.505 51.502 182.893 51.5322 183.33C51.6 184.008 51.1287 184.607 50.8685 185.236C50.2048 186.841 50.91 188.649 51.6227 190.239L53.7042 194.956L55.4312 198.813C55.9365 199.944 56.4455 201.111 56.9395 202.272C59.1645 207.555 60.9823 213.001 62.377 218.561C62.4232 218.814 62.5193 219.055 62.6599 219.27C62.9464 219.646 63.4706 219.767 63.8967 220C65.175 220.705 65.3221 222.807 64.1531 223.681C64.3907 226.514 62.2677 229.253 61.1742 231.875C58.6552 237.902 59.1115 244.706 58.248 251.186L59.2246 250.617C59.3407 250.668 59.4477 250.738 59.5414 250.824C59.5188 250.945 59.4924 251.069 59.4622 251.201C59.3276 251.756 59.1129 252.289 58.8249 252.783C58.2555 253.759 57.3845 254.629 57.2525 255.752C57.1733 256.43 57.3807 257.108 57.3769 257.79V257.978C57.2902 257.895 57.1582 257.903 56.9621 258.057C56.656 258.38 56.4435 258.779 56.3475 259.214C56.1778 259.7 56.0421 260.193 55.9063 260.687L55.401 262.427C55.1436 263.476 54.8018 264.503 54.3791 265.497C54.0177 266.163 53.7148 266.859 53.4741 267.577C53.3399 268.162 53.2878 268.763 53.3195 269.363C53.3082 269.937 53.391 270.51 53.5646 271.058C53.7908 271.598 54.1272 272.085 54.5525 272.488C54.9778 272.891 55.4826 273.2 56.0345 273.397C57.139 273.785 58.296 274.004 59.466 274.045C59.7659 274.084 60.07 274.075 60.3672 274.019C60.6858 273.928 60.9823 273.773 61.2383 273.563C62.8295 272.395 63.6516 270.248 63.7949 268.289C63.7535 267.885 63.6817 267.484 63.5799 267.091C63.678 264.947 63.365 262.792 63.5271 260.656C63.5611 260.901 63.595 261.142 63.6327 261.384L64.0098 263.783C63.9869 263.698 63.9428 263.621 63.8816 263.557C63.6028 264.446 63.5535 265.391 63.7383 266.304C63.9263 267.212 64.1912 268.103 64.5302 268.967L65.043 270.399C65.1667 270.83 65.3743 271.234 65.6539 271.585C66.1026 272.079 66.7851 272.263 67.4413 272.422C68.8518 272.832 70.3037 273.085 71.7702 273.175C71.9662 273.197 72.1645 273.16 72.3395 273.07C72.4291 273.003 72.5148 272.931 72.596 272.855C72.7263 272.761 72.8652 272.681 73.0107 272.614C73.6401 272.281 74.1159 271.718 74.3381 271.043C74.4442 270.706 74.4772 270.351 74.4349 270.001C74.3926 269.651 74.2761 269.314 74.093 269.012C73.9235 268.756 73.7276 268.519 73.5085 268.304L70.9293 265.573C70.534 265.106 70.1136 264.66 69.6698 264.239C69.6165 264.185 69.5511 264.145 69.4789 264.121C69.4067 264.097 69.33 264.091 69.255 264.103C68.5536 262.355 68.6441 260.314 68.7648 258.396C68.8025 257.824 69.1155 256.637 69.2399 255.661C69.7374 255.493 70.2009 255.238 70.6087 254.908C71.0011 254.62 71.28 254.204 71.3968 253.732C72.6978 247.094 74.7906 240.66 76.7665 234.192C76.9626 233.555 77.1436 232.915 77.3434 232.278C77.4264 232.007 77.5018 231.732 77.581 231.457C77.6602 231.182 77.713 231.012 77.7771 230.79C77.8826 230.413 77.9882 230.036 78.09 229.66C78.1202 229.558 78.1466 229.456 78.1768 229.354V229.294C78.3012 228.831 78.4219 228.367 78.5539 227.904C78.5991 227.723 78.6481 227.55 78.6934 227.369C78.8404 226.781 78.9875 226.186 79.127 225.595C79.15 225.513 79.1676 225.43 79.1798 225.346C79.2323 225.137 79.2177 224.917 79.1383 224.717C79.1018 224.639 79.052 224.567 78.9913 224.506C78.9498 224.457 78.9045 224.408 78.8593 224.363C78.8088 224.311 78.7609 224.257 78.716 224.201C78.5969 224.055 78.5072 223.887 78.452 223.707V223.165C78.452 222.999 78.4294 222.788 78.4181 222.592C78.4594 222.338 78.5161 222.086 78.5878 221.839C78.633 221.692 78.6821 221.545 78.7273 221.398C78.7726 221.251 78.8404 221.021 78.9008 220.852C79.1264 220.595 79.2486 220.263 79.2439 219.921C79.4777 219.337 79.7341 218.769 80.0169 218.207C80.3634 217.639 80.5976 217.01 80.707 216.354C80.7059 215.761 80.6324 215.17 80.4883 214.594C80.1112 212.146 81.2424 209.761 82.0758 207.437C82.6932 205.722 83.1625 203.957 83.4785 202.163C83.7236 200.787 83.8933 199.345 84.6098 198.154C84.8513 197.819 85.0584 197.461 85.2282 197.084C85.3416 196.69 85.3975 196.281 85.3941 195.871C85.4865 194.208 85.8893 192.576 86.5819 191.06C86.7353 190.767 86.8397 190.45 86.8911 190.122C86.8949 190.101 86.8949 190.08 86.8911 190.058V189.968L87.0834 189.938C87.4115 187.862 87.7433 185.549 87.5171 183.458C87.2232 181.036 86.0425 178.809 84.2025 177.205H84.2402C84.8888 176.877 85.1792 176.074 85.1905 175.366C85.1929 174.829 85.0741 174.299 84.843 173.814C84.6119 173.33 84.2744 172.903 83.8556 172.567C83.6679 172.452 83.5123 172.291 83.4031 172.1C83.3392 171.905 83.3199 171.697 83.3466 171.493C83.3496 170.878 83.1695 170.276 82.829 169.764C82.4886 169.251 82.0033 168.851 81.4348 168.615C81.3169 168.582 81.2092 168.52 81.1218 168.434C81.0249 168.268 80.9952 168.072 81.0388 167.884C81.0738 167.273 80.9409 166.663 80.6545 166.121C80.3681 165.58 79.939 165.126 79.4136 164.81C79.5644 164.004 79.7153 163.16 79.4852 162.369C79.2552 161.578 78.5124 160.862 77.6979 160.975C78.3615 159.167 77.4188 157.155 77.6677 155.245C77.7771 154.424 78.1051 153.637 78.1466 152.812C78.1843 152.058 77.9995 151.252 78.3653 150.597C78.7311 149.941 79.5946 149.429 79.3721 148.713C79.2779 148.408 78.995 148.197 78.8631 147.899C78.7311 147.602 79.259 147.146 79.5305 147.312C79.6587 147.214 79.7869 147.112 79.9076 147.006C79.9469 147.389 80.0227 147.768 80.1338 148.137C80.3186 148.754 80.6014 149.335 80.7937 149.949C81.0878 150.887 81.1708 151.904 81.6459 152.763C82.4001 154.138 83.9951 154.82 85.0736 155.961C85.7071 156.628 86.1634 157.468 86.8157 158.101C87.3108 158.564 87.8545 158.972 88.4372 159.318L91.9214 161.578C92.2824 161.841 92.6852 162.041 93.113 162.17C93.3752 162.22 93.6448 162.218 93.9063 162.164C94.1678 162.109 94.416 162.004 94.6367 161.854C94.8574 161.704 95.0462 161.512 95.1924 161.289C95.3386 161.065 95.4393 160.816 95.4886 160.553C95.497 160.519 95.5033 160.483 95.5075 160.448C95.1871 160.335 94.8951 160.153 94.6515 159.917C94.7016 159.92 94.7518 159.913 94.7985 159.894C95.6266 159.679 96.3926 159.272 97.0346 158.707C99.5158 156.733 101.299 154.04 103.042 151.391C104.867 148.615 113.649 141.269 113.649 141.269V138.293C114.766 137.644 115.757 136.801 116.575 135.803C117.016 135.27 117.273 134.609 117.31 133.919C117.33 133.566 117.238 133.215 117.046 132.917C116.855 132.619 116.573 132.39 116.243 132.261ZM43.2024 139.389C43.0327 140.47 42.8253 141.548 42.5802 142.614C42.3094 143.848 41.9618 145.065 41.5395 146.257L41.4038 146.633L41.0267 145.933C40.7439 145.341 40.5138 144.727 40.2725 144.113L38.817 140.195C38.6284 139.687 38.4399 139.099 38.7227 138.632C38.9308 138.346 39.2198 138.13 39.5523 138.01C40.5757 137.541 41.6447 137.179 42.7424 136.929C43.0895 136.859 43.432 136.769 43.7681 136.658C43.497 137.549 43.3077 138.463 43.2024 139.389ZM44.8126 134.492C44.7644 134.405 44.7391 134.307 44.7391 134.207C44.7391 134.108 44.7644 134.01 44.8126 133.923C44.9217 133.813 45.0493 133.724 45.1897 133.659L45.299 133.584C45.1482 133.896 44.9785 134.198 44.8126 134.503V134.492ZM47.8292 130.231C47.4002 130.585 47.0108 130.984 46.6678 131.421C46.2986 131.909 45.9659 132.422 45.6723 132.958C45.7168 132.75 45.7014 132.533 45.6281 132.333C45.5547 132.134 45.4262 131.958 45.2575 131.828C45.1236 131.755 44.9973 131.67 44.8804 131.572C44.8176 131.489 44.7718 131.395 44.7457 131.294C44.7196 131.193 44.7137 131.088 44.7285 130.985C44.7432 130.882 44.7782 130.783 44.8315 130.694C44.8847 130.604 44.9552 130.526 45.0388 130.464C45.3858 130.227 45.7914 130.089 46.2115 130.065L47.9499 129.809C47.8971 129.956 47.8632 130.099 47.8255 130.242L47.8292 130.231ZM64.1041 256.313C64.1343 255.792 64.1001 255.269 64.0023 254.757H64.6433C64.4812 255.258 64.2851 255.797 64.1041 256.313Z" fill="url(#paint11_linear)"/>
<path d="M62.3317 102.812C59.315 103.298 55.959 104.458 54.79 107.283C53.919 109.419 54.5939 111.823 54.8164 114.117C54.9008 114.723 54.8791 115.338 54.7523 115.937C54.5034 116.905 53.8172 117.688 53.1535 118.438C52.2313 119.39 51.4573 120.474 50.8571 121.655C50.3141 122.861 50.1406 124.292 50.7025 125.498C50.8946 125.807 51.0228 126.152 51.0795 126.511C51.1172 127.295 50.2952 127.792 49.6919 128.293C47.4294 130.177 47.5237 133.567 47.5048 136.517C47.4699 142.532 46.1334 148.468 43.5869 153.918C44.5413 154.401 45.6193 154.585 46.6801 154.447C47.7409 154.308 48.7353 153.854 49.5335 153.142C49.2205 154.481 48.7681 155.784 48.1835 157.03C50.0991 157.956 52.4106 156.435 53.3722 154.536C54.3337 152.637 54.4469 150.43 55.1294 148.414C55.8119 146.399 57.0148 144.647 57.5465 142.616C57.7162 141.946 57.8218 141.23 58.2328 140.672C58.5797 140.27 58.9867 139.923 59.4394 139.644C61.4275 138.209 62.9183 136.19 63.7042 133.869C66.0497 134.385 68.4442 134.905 70.8349 134.686C73.2256 134.468 75.6691 133.387 76.9323 131.345C77.4904 130.444 77.792 129.408 78.3086 128.482C78.9421 127.351 79.8735 126.417 80.5711 125.336C82.2529 122.763 82.5621 119.459 81.8796 116.46C81.1971 113.462 79.6171 110.749 77.7317 108.319C74.1192 103.633 68.0482 101.896 62.3317 102.812Z" fill="#7C5C5C"/>
<path d="M43.2928 140.492C43.1231 141.57 42.9157 142.647 42.6744 143.713C42.3995 144.946 42.052 146.161 41.6336 147.352C41.3881 147.874 41.2754 148.449 41.3056 149.025C41.3803 149.378 41.5169 149.714 41.709 150.02C43.0854 152.464 44.9482 154.827 45.1028 157.629C45.1405 158.326 45.1028 159.084 45.4799 159.66C46.5432 157.374 47.7172 155.144 49.0018 152.969C50.3442 150.709 51.8375 148.396 52.2221 145.781C52.3755 144.554 52.359 143.312 52.1731 142.09C51.9958 140.714 51.6866 139.306 50.8495 138.205C49.937 137.015 47.4558 135.218 45.823 135.591C43.9263 136.024 43.5341 138.959 43.2928 140.492Z" fill="#003962"/>
<path d="M91.8949 153.67C93.6974 152.916 95.5375 152.163 96.9667 150.837C97.839 149.972 98.613 149.013 99.2744 147.977L103.517 141.863C104.52 140.409 105.557 138.883 105.779 137.132C108.264 134.512 109.761 131.111 110.014 127.51C110.044 127.133 110.165 126.681 110.523 126.67C110.681 126.682 110.829 126.753 110.938 126.87C111.214 127.125 111.427 127.442 111.558 127.795C111.689 128.148 111.735 128.526 111.692 128.9C112.31 128.87 112.981 128.855 113.487 129.217C113.992 129.578 114.128 130.475 113.585 130.772C113.766 130.828 113.922 130.947 114.021 131.109C114.12 131.271 114.157 131.463 114.124 131.65C114.772 131.522 115.485 131.417 116.058 131.741C116.631 132.065 116.85 133.014 116.296 133.368C116.619 133.492 116.896 133.714 117.089 134.002C117.281 134.29 117.38 134.631 117.371 134.977C117.336 135.667 117.078 136.328 116.635 136.86C115.006 139.045 112.133 139.927 110.244 141.893C109.623 142.581 109.066 143.323 108.581 144.112L103.109 152.43C101.371 155.067 99.5874 157.768 97.1062 159.735C96.4641 160.3 95.6982 160.706 94.8701 160.922C94.4556 161.026 94.021 161.021 93.6091 160.907C93.1972 160.792 92.8221 160.573 92.5209 160.27C91.9741 159.648 91.8911 158.763 91.8384 157.93C91.7479 156.529 92.008 155.082 91.8949 153.67Z" fill="#FDC2CC"/>
<path d="M73.5725 269.196C73.7916 269.411 73.9875 269.649 74.157 269.905C74.3397 270.206 74.4562 270.542 74.4984 270.892C74.5407 271.241 74.5078 271.596 74.4021 271.931C74.1843 272.608 73.709 273.173 73.0785 273.502C72.9317 273.569 72.7916 273.65 72.6599 273.743C72.5798 273.822 72.4941 273.895 72.4035 273.962C72.2272 274.049 72.03 274.086 71.8341 274.067C70.3694 273.973 68.9192 273.721 67.509 273.314C66.8604 273.152 66.1741 272.967 65.7216 272.478C65.442 272.126 65.2344 271.723 65.1108 271.291L64.5979 269.863C64.2619 269 63.9983 268.11 63.8098 267.204C63.621 266.292 63.6704 265.348 63.9531 264.461C64.0803 264.62 64.1471 264.819 64.1417 265.022C64.2926 265.983 64.67 266.895 65.2427 267.682C65.3634 267.878 65.5078 268.059 65.6726 268.221C66.0473 268.509 66.4904 268.694 66.9585 268.759C67.8592 268.955 68.7751 269.072 69.6961 269.11C69.8236 269.127 69.9534 269.111 70.0732 269.065C70.221 268.983 70.3327 268.848 70.3861 268.688C70.518 268.323 70.518 267.923 70.3861 267.558C70.1373 266.861 69.4548 266.405 69.1305 265.742C68.8854 265.252 69.221 264.713 69.7187 265.128C70.1646 265.548 70.5864 265.993 70.9819 266.461L73.5725 269.196Z" fill="#003962"/>
<path d="M68.8325 259.299C68.6854 261.6 68.5836 264.087 69.8431 266.019C70.2994 266.713 70.9065 267.296 71.4231 267.948C71.72 268.274 71.9165 268.678 71.9887 269.112C72.0603 269.956 71.2685 270.679 70.4351 270.838C69.6018 270.996 68.7495 270.732 67.9426 270.461C67.1789 270.271 66.4601 269.933 65.8272 269.466C64.7299 268.54 64.4395 266.995 64.2208 265.579L63.7268 262.286C63.3392 260.622 63.5033 258.876 64.1944 257.313L65.0391 254.842C65.0944 254.602 65.2268 254.386 65.4162 254.228C65.6124 254.119 65.8386 254.077 66.061 254.107C66.8679 254.149 68.9079 254.443 69.3001 255.298C69.6131 256.04 68.8891 258.432 68.8325 259.299Z" fill="#EE8E9E"/>
<path d="M68.8325 259.299C68.6854 261.6 68.5836 264.087 69.8431 266.019C70.2994 266.713 70.9065 267.296 71.4231 267.948C71.72 268.274 71.9165 268.678 71.9887 269.112C72.0603 269.956 71.2685 270.679 70.4351 270.838C69.6018 270.996 68.7495 270.732 67.9426 270.461C67.1789 270.271 66.4601 269.933 65.8272 269.466C64.7299 268.54 64.4395 266.995 64.2208 265.579L63.7268 262.286C63.3392 260.622 63.5033 258.876 64.1944 257.313L65.0391 254.842C65.0944 254.602 65.2268 254.386 65.4162 254.228C65.6124 254.119 65.8386 254.077 66.061 254.107C66.8679 254.149 68.9079 254.443 69.3001 255.298C69.6131 256.04 68.8891 258.432 68.8325 259.299Z" fill="#FDC2CC"/>
<path d="M86.9592 191.071V191.135C86.9112 191.461 86.8066 191.776 86.65 192.066C85.9562 193.577 85.5521 195.205 85.4584 196.865C85.4618 197.275 85.4059 197.684 85.2925 198.078C85.1235 198.454 84.9163 198.811 84.674 199.144C83.9199 200.339 83.769 201.781 83.5239 203.149C83.208 204.936 82.7387 206.693 82.1212 208.4C81.2803 210.729 80.1491 213.11 80.5337 215.558C80.6778 216.134 80.7512 216.724 80.7524 217.318C80.6453 217.973 80.4109 218.602 80.0623 219.167C79.781 219.725 79.5292 220.297 79.3082 220.881C79.0631 221.507 78.8444 222.147 78.652 222.795C78.4258 223.582 78.275 224.517 78.7953 225.15C78.9575 225.304 79.1006 225.477 79.2214 225.666C79.3194 225.954 79.3194 226.267 79.2214 226.555C78.9248 227.811 78.6055 229.066 78.2636 230.322C77.9997 231.302 77.7207 232.273 77.4341 233.245C75.3149 240.354 72.9091 247.391 71.4913 254.674C71.2876 255.721 69.9414 256.47 68.9007 256.7C68.3766 256.812 67.8334 256.798 67.3157 256.66C66.7979 256.522 66.3202 256.263 65.9218 255.905C65.8501 255.841 65.7822 255.77 65.7181 255.702C64.6246 254.527 64.4624 252.722 64.5454 251.095C64.9225 243.602 68.6933 236.741 70.4882 229.459C71.1371 226.826 71.5286 224.136 71.6572 221.428C72.0757 212.386 72.2454 202.825 69.685 194.134C69.1533 192.326 68.5236 190.284 69.4814 188.664C70.0847 187.639 71.2047 187.033 72.3133 186.596C74.5742 185.715 76.9884 185.295 79.4141 185.36C81.8398 185.425 84.2281 185.973 86.4388 186.972C86.4425 187.154 86.435 187.335 86.4162 187.515C86.3218 188.357 86.4197 189.21 86.7027 190.009C86.8498 190.345 86.9366 190.705 86.9592 191.071Z" fill="#1C292E"/>
<path d="M55.9553 261.616L55.4764 263.356C55.2207 264.403 54.8803 265.427 54.4583 266.419C54.0968 267.085 53.794 267.781 53.5533 268.499C53.419 269.084 53.367 269.685 53.3987 270.284C53.3878 270.858 53.4706 271.429 53.6438 271.976C53.8693 272.515 54.2052 273.002 54.6299 273.404C55.0545 273.806 55.5587 274.115 56.1099 274.312C57.2141 274.7 58.3713 274.917 59.5413 274.956C59.841 274.997 60.1454 274.99 60.4425 274.933C60.7611 274.842 61.0576 274.687 61.3136 274.477C62.9049 273.313 63.7232 271.166 63.8664 269.203C63.825 268.745 63.7352 268.293 63.5987 267.854C63.4743 267.689 62.2714 268.367 62.788 268.936C63.5422 269.772 61.3211 269.339 60.1899 269.267C59.693 269.225 59.2001 269.144 58.7155 269.026L56.8829 268.649C56.2833 268.521 55.5933 268.314 55.3746 267.741C55.1559 267.169 55.6234 266.483 55.9854 265.926C56.9432 264.445 57.1921 262.633 57.4146 260.885C57.4561 260.542 57.8859 258.316 56.9998 259.001C56.695 259.325 56.4827 259.724 56.3851 260.158C56.223 260.629 56.0873 261.122 55.9553 261.616Z" fill="#003962"/>
<path opacity="0.05" d="M78.7763 225.152C78.256 224.519 78.3993 223.585 78.6368 222.798C78.7198 222.504 78.8141 222.214 78.9121 221.924L71.7174 219.49C71.691 220.138 71.6608 220.779 71.6307 221.419C71.5052 224.129 71.115 226.82 70.4655 229.455C68.6668 236.733 64.8922 243.593 64.5227 251.082C64.4359 252.808 64.6207 254.737 65.899 255.897C66.2967 256.255 66.7736 256.514 67.2907 256.653C67.8077 256.792 68.3504 256.806 68.8742 256.695C69.9187 256.466 71.2611 255.712 71.4685 254.665C72.8939 247.383 75.2883 240.349 77.4113 233.233C78.0725 231.026 78.6683 228.8 79.1987 226.558C79.2967 226.271 79.2967 225.959 79.1987 225.672C79.0814 225.481 78.9394 225.306 78.7763 225.152Z" fill="black"/>
<path d="M58.8966 253.72C58.3272 254.699 57.46 255.566 57.328 256.688C57.2488 257.363 57.4562 258.041 57.4524 258.723C57.4252 259.287 57.3251 259.845 57.1545 260.384C56.4531 262.913 55.6462 265.407 54.7336 267.866C54.5838 268.183 54.5176 268.533 54.5413 268.883C54.6318 269.459 55.1937 269.84 55.7291 270.069C57.4449 270.8 59.3755 270.751 61.2383 270.676C61.78 270.698 62.3171 270.568 62.7881 270.299C63.4556 269.843 63.6215 268.943 63.663 268.137C63.7912 265.801 63.3952 263.454 63.663 261.134C63.7572 260.286 63.9345 259.453 64.0664 258.613C64.2512 257.445 64.3455 256.217 63.9608 255.098C63.642 254.296 63.1965 253.549 62.6411 252.887C62.1497 252.171 61.5296 251.553 60.8122 251.064C60.5935 250.936 59.9713 250.536 59.7488 250.785C59.6357 250.913 59.6847 251.256 59.6697 251.414C59.6404 251.657 59.5976 251.899 59.5414 252.137C59.4028 252.693 59.1857 253.226 58.8966 253.72Z" fill="#FDC2CC"/>
<path opacity="0.05" d="M72.7201 193.986C72.3845 194.442 72.4523 195.075 72.5881 195.625C72.8257 196.62 73.2254 197.573 73.5497 198.541C74.0804 200.279 74.4936 202.051 74.7865 203.845C75.0882 205.465 75.7292 207.27 75.469 208.901C77.4358 212.641 78.7288 216.697 79.2888 220.884C79.4359 221.958 77.049 223.344 77.0942 224.426C77.1847 226.58 78.9042 226.754 77.6372 228.472C77.5731 228.558 78.1123 230.483 78.0407 230.566C77.5241 231.188 76.868 231.696 76.3137 232.265C75.598 233.074 74.9861 233.969 74.4924 234.929C71.2118 240.851 66.4681 247.564 67.9311 254.175C67.9604 254.413 67.9161 254.655 67.8042 254.867C67.6924 255.079 67.5182 255.252 67.3052 255.362C66.8717 255.569 66.398 255.678 65.9175 255.682H65.6913C64.5977 254.507 64.4356 252.702 64.5185 251.075C64.8956 243.582 68.6664 236.722 70.4614 229.44C71.1102 226.807 71.5017 224.117 71.6303 221.408C72.0489 212.367 72.2186 202.805 69.6582 194.114C69.1265 192.306 68.4968 190.264 69.4545 188.644C70.0579 187.62 71.1778 187.013 72.2864 186.576C74.5474 185.696 76.9615 185.276 79.3872 185.34C81.8129 185.405 84.2012 185.953 86.4119 186.953C86.4157 187.134 86.4081 187.315 86.3893 187.495C86.2949 188.338 86.3929 189.19 86.6759 189.989C86.8336 190.331 86.9293 190.699 86.9587 191.074C86.9587 191.074 87.0869 189.616 87.0831 189.639C84.1607 190.057 81.0762 191.967 78.1274 192.4C76.5985 192.563 75.0923 192.894 73.6364 193.387C73.2822 193.5 72.9654 193.707 72.7201 193.986Z" fill="black"/>
<path d="M52.3617 177.945C51.9645 179.201 51.6164 180.469 51.3172 181.75C51.1825 182.192 51.1465 182.659 51.2116 183.117C51.3059 183.547 51.5887 183.931 51.6189 184.368C51.6868 185.046 51.2154 185.645 50.9552 186.274C50.2915 187.875 51.0005 189.684 51.7094 191.27L53.7909 195.979L55.5028 199.844C56.0056 200.992 56.5084 202.143 57.0111 203.298C59.236 208.575 61.0526 214.015 62.4449 219.569C62.4914 219.821 62.5862 220.061 62.7239 220.277C63.0143 220.654 63.5384 220.775 63.9608 221.008C65.2428 221.709 65.3899 223.811 64.2172 224.685C64.4585 227.514 62.3318 230.245 61.242 232.867C58.7231 238.895 59.1794 245.676 58.3158 252.156L59.2925 251.583C60.2314 252.013 60.1975 253.342 60.7028 254.243C61.4569 255.595 63.3122 255.784 64.8507 255.682C65.33 255.678 65.8025 255.569 66.2346 255.362C66.4483 255.252 66.6231 255.079 66.7351 254.867C66.8471 254.655 66.8909 254.413 66.8605 254.175C65.4012 247.563 70.1411 240.85 73.4255 234.928C73.9193 233.969 74.5298 233.074 75.2431 232.265C75.8011 231.677 76.4535 231.183 76.9739 230.566C78.4219 228.829 78.6066 226.38 78.5086 224.12C78.2791 218.805 76.8755 213.606 74.3984 208.896C74.6624 207.269 74.0213 205.465 73.7196 203.845C73.4252 202.048 73.0082 200.273 72.4715 198.533C72.1472 197.557 71.7513 196.608 71.5099 195.613C71.378 195.063 71.3063 194.43 71.6419 193.974C71.8895 193.693 72.2107 193.485 72.5695 193.375C74.0255 192.882 75.5317 192.551 77.0606 192.388L87.1777 190.938C87.502 188.862 87.8338 186.549 87.6076 184.462C87.3644 182.528 86.5585 180.708 85.2896 179.227C84.0207 177.747 82.3447 176.671 80.4694 176.133C80.0282 176.016 79.5116 175.941 79.1496 176.219C70.2212 174.472 60.9916 175.066 52.3617 177.945Z" fill="#1C292E"/>
<path d="M61.5361 123.354C61.6829 124.34 61.5291 125.348 61.0949 126.247C60.8009 126.737 60.4171 127.168 59.9637 127.516C58.9854 128.302 57.8481 128.866 56.6302 129.17C55.9138 129.351 55.1219 129.472 54.6355 130.04C53.9266 130.896 54.4017 132.191 55.0126 133.126C56.0609 134.753 57.5164 136.226 59.3829 136.735C60.8913 137.142 62.4637 136.893 63.9871 137.157C65.092 137.349 66.1327 137.805 67.2225 138.065C68.7732 138.419 70.3879 138.381 71.9202 137.954C73.4525 137.527 74.8539 136.725 75.9972 135.62C74.3757 134.376 72.6939 133.054 71.8493 131.193C71.2539 129.86 71.1419 128.362 71.5325 126.955C71.9096 125.576 72.7958 124.235 72.5243 122.811C72.2528 121.387 70.8651 120.434 69.5076 119.959C68.2611 119.583 66.9803 119.33 65.684 119.206C64.9713 119.108 60.4463 118.11 60.1635 118.603C60.0051 118.882 60.9441 120.532 61.061 120.897C61.3374 121.689 61.4975 122.516 61.5361 123.354Z" fill="#FDC2CC"/>
<path d="M67.2412 126.655C72.3101 126.655 76.4193 122.55 76.4193 117.486C76.4193 112.422 72.3101 108.316 67.2412 108.316C62.1722 108.316 58.063 112.422 58.063 117.486C58.063 122.55 62.1722 126.655 67.2412 126.655Z" fill="#FDC2CC"/>
<path d="M62.3918 132.641L68.6287 133.688C70.1588 134 71.7166 134.156 73.2781 134.155C74.1308 134.072 74.9896 134.072 75.8423 134.155C76.4305 134.253 76.9924 134.475 77.5806 134.551C78.3084 134.641 79.0475 134.502 79.7753 134.596C81.1252 134.769 82.2376 135.703 83.2633 136.596C84.4662 137.644 85.7595 138.857 85.8538 140.458C85.8705 140.639 85.8446 140.823 85.7784 140.993C85.6613 141.186 85.5029 141.35 85.3146 141.475C84.1833 142.413 83.531 143.811 82.7165 145.046C81.8769 146.32 80.8321 147.447 79.6244 148.38C79.3529 148.207 78.8363 148.663 78.9532 148.964C79.0701 149.266 79.368 149.473 79.4661 149.778C79.6885 150.482 78.8175 151.002 78.4555 151.661C78.0935 152.321 78.2782 153.123 78.2405 153.873C78.1953 154.698 77.8635 155.485 77.7616 156.303C77.509 158.213 78.4555 160.224 77.788 162.029C78.6063 161.927 79.3454 162.632 79.5754 163.419C79.743 164.227 79.7185 165.063 79.5038 165.86C80.0293 166.174 80.4588 166.626 80.7459 167.167C81.033 167.707 81.1668 168.316 81.1328 168.927C81.1 168.999 81.0839 169.077 81.0859 169.156C81.0878 169.235 81.1077 169.313 81.144 169.383C81.1803 169.454 81.232 169.515 81.2954 169.562C81.3588 169.61 81.4321 169.642 81.5098 169.658C82.0765 169.896 82.5596 170.297 82.8979 170.81C83.2362 171.323 83.4146 171.925 83.4103 172.539C83.3838 172.745 83.4031 172.953 83.4669 173.15C83.5769 173.338 83.7308 173.497 83.9156 173.613C84.3339 173.949 84.6711 174.375 84.9021 174.859C85.1332 175.343 85.2523 175.872 85.2505 176.408C85.2725 176.771 85.1962 177.133 85.0296 177.456C84.863 177.779 84.6124 178.051 84.304 178.243C82.9842 178.914 81.5702 179.174 80.1222 179.486C78.7879 179.801 77.4371 180.041 76.0761 180.206C74.822 180.309 73.5634 180.348 72.3053 180.323L63.9793 180.289C61.6376 180.289 59.2959 180.289 56.9618 180.112C54.7823 179.965 52.5537 179.693 50.4421 180.266C50.1781 179.818 50.6004 179.302 50.8606 178.853C51.1584 178.242 51.3205 177.574 51.3357 176.894L51.8637 171.353C51.9642 170.591 51.9781 169.82 51.9051 169.055C51.792 168.237 51.4828 167.465 51.3244 166.655C51.0228 165.103 51.298 163.498 51.2264 161.916C51.1181 160.514 50.8744 159.127 50.4986 157.772L48.847 150.991C48.583 149.902 48.4435 148.636 48.0363 147.6C46.7643 144.335 45.4332 141.106 44.043 137.911C43.9923 137.771 43.9728 137.622 43.9859 137.473C43.9989 137.325 44.0441 137.181 44.1184 137.052L45.4947 134.588C45.863 133.888 46.284 133.217 46.7542 132.58C47.9166 131.112 49.5627 130.103 51.3998 129.732C53.2394 129.373 55.1469 129.655 56.8034 130.531C57.4445 130.874 58.0403 131.284 58.6888 131.624C59.8012 132.143 61.1587 132.724 62.3918 132.641Z" fill="#003962"/>
<path d="M84.4664 138.68L86.6347 141.569C86.8348 141.814 87.0044 142.082 87.14 142.368C87.4642 143.121 87.287 144.01 87.4605 144.82C87.5958 145.339 87.8107 145.833 88.0977 146.286C88.921 147.718 89.85 149.087 90.8768 150.381C91.3481 151.038 91.9284 151.61 92.5926 152.072C92.9256 152.301 93.3039 152.456 93.7019 152.527C94.1 152.598 94.5086 152.583 94.9003 152.483C94.5731 152.611 94.3046 152.855 94.1461 153.168C93.3203 154.803 93.26 156.74 93.6107 158.533C93.7088 159.149 93.9129 159.743 94.214 160.289C94.5156 160.839 95.0055 161.263 95.5941 161.483C95.522 162.015 95.2411 162.497 94.8133 162.823C94.3855 163.149 93.8458 163.291 93.3128 163.219L93.1997 163.201C92.7728 163.073 92.371 162.873 92.0119 162.609L88.5276 160.349C87.9465 160 87.4031 159.593 86.9062 159.132C86.2538 158.484 85.8013 157.663 85.1678 156.996C84.0894 155.866 82.5056 155.173 81.7439 153.801C81.265 152.942 81.1821 151.918 80.8879 150.991C80.6956 150.377 80.4128 149.797 80.228 149.179C79.6549 147.273 80.0697 145.182 80.9407 143.393C81.8118 141.603 83.1919 140.202 84.4664 138.68Z" fill="#003962"/>
<path d="M76.3099 112.263C75.4603 110.947 74.3643 109.807 73.0821 108.907C71.3663 107.63 69.3942 106.567 67.2562 106.447C66.3559 106.398 65.4557 106.543 64.6166 106.872C64.5751 104.284 63.9341 102.559 62.3126 102.819C59.296 103.305 55.9399 104.465 54.771 107.291C53.8999 109.427 54.5749 111.83 54.7974 114.124C54.8817 114.73 54.8601 115.346 54.7333 115.944C54.4844 116.912 53.7981 117.696 53.1344 118.445C52.2123 119.397 51.4382 120.481 50.838 121.663C50.295 122.868 50.1216 124.3 50.6834 125.505C50.8755 125.814 51.0037 126.159 51.0605 126.519C51.0982 127.302 50.2762 127.799 49.6728 128.3C47.4103 130.184 47.5046 133.575 47.4858 136.524C47.4509 142.539 46.1144 148.475 43.5679 153.925C44.5223 154.408 45.6002 154.592 46.661 154.454C47.7218 154.315 48.7162 153.861 49.5145 153.149C49.2015 154.489 48.749 155.792 48.1645 157.037C50.0801 157.964 52.3916 156.442 53.3531 154.543C54.3147 152.644 54.4278 150.437 55.1103 148.421C55.7929 146.406 56.9958 144.654 57.5274 142.623C57.6971 141.953 57.8027 141.237 58.2137 140.68C58.5606 140.277 58.9676 139.93 59.4204 139.651C61.3963 138.235 58.4852 127.502 59.2582 125.196C60.3895 125.449 62.52 119.922 63.7229 114.271C64.5718 114.562 65.4775 114.649 66.3662 114.524C66.6719 114.457 66.9857 114.436 67.2976 114.46C67.587 114.52 67.8629 114.632 68.1121 114.791C69.0006 115.337 69.9297 115.815 70.8912 116.219C72.8822 116.972 75.0693 116.863 77.1923 116.758C77.4742 115.202 77.1591 113.597 76.3099 112.263Z" fill="#7C5C5C"/>
<g opacity="0.1">
<path opacity="0.1" d="M44.6654 153.917C47.2198 148.474 48.5628 142.543 48.6021 136.532C48.621 133.593 48.5229 130.18 50.7892 128.308C51.3925 127.807 52.2146 127.309 52.1768 126.526C52.1166 126.167 51.9887 125.823 51.7998 125.512C51.2379 124.314 51.4227 122.875 51.9506 121.67C52.5503 120.487 53.3258 119.403 54.2508 118.453C54.9107 117.699 55.6008 116.919 55.8459 115.951C55.9739 115.353 55.9969 114.737 55.9137 114.132C55.6875 111.837 55.0163 109.434 55.8873 107.298C57.0186 104.563 60.1823 103.391 63.1235 102.879C62.8677 102.797 62.596 102.779 62.3317 102.826C59.315 103.312 55.959 104.472 54.79 107.298C53.919 109.434 54.5939 111.837 54.8164 114.132C54.9008 114.737 54.8791 115.353 54.7523 115.951C54.5034 116.919 53.8172 117.703 53.1535 118.453C52.2313 119.404 51.4573 120.489 50.8571 121.67C50.3141 122.875 50.1406 124.307 50.7025 125.512C50.8946 125.822 51.0228 126.166 51.0795 126.526C51.1172 127.309 50.2952 127.807 49.6919 128.308C47.4294 130.191 47.5237 133.582 47.5048 136.532C47.4676 142.541 46.1312 148.472 43.5869 153.917C44.4843 154.38 45.4976 154.57 46.5018 154.464C45.86 154.402 45.2363 154.217 44.6654 153.917Z" fill="black"/>
<path opacity="0.1" d="M49.2619 157.013C49.8422 155.767 50.2908 154.464 50.6005 153.125C50.2133 153.479 49.7731 153.77 49.2958 153.988C49.002 155.022 48.6237 156.03 48.1646 157.001C48.7157 157.265 49.3371 157.344 49.9368 157.228C49.7037 157.185 49.4769 157.112 49.2619 157.013Z" fill="black"/>
<path opacity="0.1" d="M65.7141 106.864C66.2751 106.647 66.8642 106.51 67.4638 106.458H67.2564C66.7369 106.43 66.2161 106.47 65.7065 106.574C65.7103 106.657 65.7141 106.759 65.7141 106.864Z" fill="black"/>
<path opacity="0.1" d="M71.9623 116.206C71.0007 115.802 70.0716 115.325 69.1832 114.779C68.9326 114.62 68.6554 114.507 68.3649 114.447C68.0798 114.421 67.7924 114.439 67.5127 114.5C67.7164 114.576 67.9132 114.669 68.1009 114.779C68.9906 115.325 69.921 115.802 70.8838 116.206C72.3827 116.7 73.9617 116.904 75.537 116.809C74.3201 116.809 73.1117 116.606 71.9623 116.206Z" fill="black"/>
<path opacity="0.1" d="M64.8204 114.252C64.8118 114.336 64.7941 114.42 64.7676 114.501C65.2194 114.568 65.6777 114.58 66.1326 114.538C65.6859 114.492 65.2458 114.396 64.8204 114.252Z" fill="black"/>
</g>
<path d="M45.7174 156.777C45.7683 157.262 45.7138 157.753 45.5576 158.215C45.4014 158.677 45.1472 159.1 44.8124 159.456C44.4314 159.825 44.0012 160.141 43.534 160.394C43.0851 160.703 42.5674 160.898 42.0257 160.962C41.2962 160.939 40.6031 160.638 40.0875 160.122C38.4887 158.721 37.6893 156.645 36.9502 154.652C35.9735 152.015 35.0007 149.352 34.5821 146.568C34.1334 143.584 34.3257 140.495 33.4697 137.598C34.2239 136.091 34.7141 134.411 35.5776 132.949C36.1257 132.078 36.6109 131.169 37.0294 130.229C37.8339 128.225 37.9244 126.005 37.2858 123.942C37.4368 123.843 37.6156 123.794 37.796 123.804C37.9764 123.813 38.149 123.88 38.2888 123.994C38.5636 124.229 38.7717 124.532 38.8922 124.872C39.3901 126.034 39.5972 127.3 39.4955 128.56C39.4307 128.864 39.4664 129.18 39.5973 129.461C39.7141 129.605 39.8647 129.718 40.0357 129.79C40.2067 129.863 40.3928 129.892 40.5777 129.875C41.3465 129.837 42.1071 129.699 42.8402 129.465C45.1182 128.884 47.4775 128.689 49.82 128.888C50.2919 128.903 50.7555 129.016 51.1813 129.22C51.3916 129.324 51.5686 129.486 51.6925 129.685C51.8163 129.885 51.8822 130.115 51.8826 130.35L46.3018 131.167C45.8817 131.191 45.4761 131.329 45.1291 131.567C44.9622 131.692 44.8518 131.879 44.8222 132.086C44.7925 132.293 44.8459 132.503 44.9707 132.67C45.0885 132.767 45.2147 132.853 45.3478 132.927C45.5867 133.108 45.7439 133.376 45.7849 133.673C45.8259 133.969 45.7473 134.27 45.5665 134.509C45.4939 134.608 45.4046 134.693 45.3026 134.761C45.1623 134.826 45.0346 134.915 44.9255 135.025C44.6992 135.33 45.0009 135.733 45.0989 136.102C45.1412 136.375 45.0997 136.654 44.9798 136.902C44.86 137.15 44.6674 137.356 44.4277 137.493C43.9432 137.757 43.4161 137.934 42.8704 138.016C41.7744 138.268 40.7068 138.63 39.684 139.097C39.3516 139.217 39.0626 139.434 38.8545 139.719C38.5792 140.186 38.7602 140.774 38.9487 141.282L40.4043 145.193C40.6209 145.813 40.8727 146.421 41.1584 147.012C41.5355 147.766 41.9842 148.497 42.3651 149.273C42.7046 149.987 43.0079 150.717 43.2739 151.461C44.0016 153.466 45.4685 154.671 45.7174 156.777Z" fill="#FDC2CC"/>
<path d="M113.471 131.408H96.0767V148.233H113.471V131.408Z" fill="url(#paint12_linear)"/>
<path d="M113.174 131.699H96.3784V147.944H113.174V131.699Z" fill="#2E6AB1"/>
<path d="M110.262 130.419C109.952 130.649 109.728 130.977 109.625 131.349C109.601 131.426 109.603 131.509 109.629 131.584C109.656 131.66 109.706 131.726 109.772 131.771C109.856 131.798 109.945 131.798 110.029 131.771C110.446 131.697 110.836 131.514 111.16 131.24C111.032 131.309 110.918 131.401 110.824 131.511C110.778 131.568 110.75 131.636 110.742 131.708C110.734 131.78 110.747 131.853 110.779 131.918C110.825 131.975 110.883 132.021 110.948 132.054C111.012 132.087 111.083 132.106 111.156 132.11C111.694 132.208 112.247 132.182 112.774 132.035C112.53 132.121 112.303 132.248 112.103 132.412C112.004 132.498 111.925 132.606 111.872 132.726C111.819 132.847 111.794 132.977 111.797 133.109C111.797 133.158 111.808 133.207 111.829 133.252C111.85 133.297 111.88 133.337 111.918 133.369C111.973 133.403 112.035 133.425 112.099 133.433C112.598 133.519 113.108 133.519 113.607 133.433C113.736 133.429 113.862 133.393 113.973 133.327C114.084 133.261 114.176 133.168 114.241 133.056C114.267 132.931 114.267 132.802 114.242 132.677C114.217 132.552 114.166 132.434 114.094 132.329C113.827 131.754 113.697 131.124 113.717 130.49C113.733 130.362 113.715 130.232 113.664 130.114C113.581 129.998 113.463 129.912 113.328 129.869C112.796 129.635 112.072 129.311 111.48 129.492C111.017 129.717 110.603 130.032 110.262 130.419Z" fill="#FDC2CC"/>
<path d="M167.066 54.1992H142.458C141.86 54.1992 141.375 54.6833 141.375 55.2804V62.9128C141.375 63.51 141.86 63.994 142.458 63.994H167.066C167.664 63.994 168.148 63.51 168.148 62.9128V55.2804C168.148 54.6833 167.664 54.1992 167.066 54.1992Z" fill="#CDCDCD"/>
<path d="M78.0109 81.4277H53.4025C52.8048 81.4277 52.3203 81.9118 52.3203 82.5089V90.1413C52.3203 90.7385 52.8048 91.2225 53.4025 91.2225H78.0109C78.6086 91.2225 79.0931 90.7385 79.0931 90.1413V82.5089C79.0931 81.9118 78.6086 81.4277 78.0109 81.4277Z" fill="#CDCDCD"/>
<path d="M206.528 54.1992H184.808C184.21 54.1992 183.726 54.6833 183.726 55.2804V62.9128C183.726 63.51 184.21 63.994 184.808 63.994H206.528C207.125 63.994 207.61 63.51 207.61 62.9128V55.2804C207.61 54.6833 207.125 54.1992 206.528 54.1992Z" fill="#CDCDCD"/>
<path d="M245.261 54.1992H220.653C220.055 54.1992 219.571 54.6833 219.571 55.2804V62.9128C219.571 63.51 220.055 63.994 220.653 63.994H245.261C245.859 63.994 246.344 63.51 246.344 62.9128V55.2804C246.344 54.6833 245.859 54.1992 245.261 54.1992Z" fill="#CDCDCD"/>
<path d="M285.674 54.4492H261.065C260.467 54.4492 259.983 54.9333 259.983 55.5304V63.1628C259.983 63.76 260.467 64.244 261.065 64.244H285.674C286.271 64.244 286.756 63.76 286.756 63.1628V55.5304C286.756 54.9333 286.271 54.4492 285.674 54.4492Z" fill="#CDCDCD"/>
<path d="M330.105 54.1992H305.497C304.899 54.1992 304.415 54.6833 304.415 55.2804V62.9128C304.415 63.51 304.899 63.994 305.497 63.994H330.105C330.703 63.994 331.187 63.51 331.187 62.9128V55.2804C331.187 54.6833 330.703 54.1992 330.105 54.1992Z" fill="#CDCDCD"/>
<path d="M374.714 54.1992H350.106C349.508 54.1992 349.023 54.6833 349.023 55.2804V62.9128C349.023 63.51 349.508 63.994 350.106 63.994H374.714C375.312 63.994 375.796 63.51 375.796 62.9128V55.2804C375.796 54.6833 375.312 54.1992 374.714 54.1992Z" fill="#CDCDCD"/>
</g>
<defs>
<linearGradient id="paint0_linear" x1="159.076" y1="124.5" x2="159.076" y2="107.676" gradientUnits="userSpaceOnUse">
<stop stop-color="#808080" stop-opacity="0.25"/>
<stop offset="0.54" stop-color="#808080" stop-opacity="0.12"/>
<stop offset="1" stop-color="#808080" stop-opacity="0.1"/>
</linearGradient>
<linearGradient id="paint1_linear" x1="9177.4" y1="7661.59" x2="9177.4" y2="8412.97" gradientUnits="userSpaceOnUse">
<stop stop-color="#808080" stop-opacity="0.25"/>
<stop offset="0.54" stop-color="#808080" stop-opacity="0.12"/>
<stop offset="1" stop-color="#808080" stop-opacity="0.1"/>
</linearGradient>
<linearGradient id="paint2_linear" x1="12429.9" y1="5161.54" x2="12429.9" y2="5912.92" gradientUnits="userSpaceOnUse">
<stop stop-color="#808080" stop-opacity="0.25"/>
<stop offset="0.54" stop-color="#808080" stop-opacity="0.12"/>
<stop offset="1" stop-color="#808080" stop-opacity="0.1"/>
</linearGradient>
<linearGradient id="paint3_linear" x1="5209.83" y1="8811.45" x2="5209.83" y2="9562.84" gradientUnits="userSpaceOnUse">
<stop stop-color="#808080" stop-opacity="0.25"/>
<stop offset="0.54" stop-color="#808080" stop-opacity="0.12"/>
<stop offset="1" stop-color="#808080" stop-opacity="0.1"/>
</linearGradient>
<linearGradient id="paint4_linear" x1="6838.8" y1="7758.8" x2="6838.8" y2="8510.18" gradientUnits="userSpaceOnUse">
<stop stop-color="#808080" stop-opacity="0.25"/>
<stop offset="0.54" stop-color="#808080" stop-opacity="0.12"/>
<stop offset="1" stop-color="#808080" stop-opacity="0.1"/>
</linearGradient>
<linearGradient id="paint5_linear" x1="13388.6" y1="5166.8" x2="13388.6" y2="5918.18" gradientUnits="userSpaceOnUse">
<stop stop-color="#808080" stop-opacity="0.25"/>
<stop offset="0.54" stop-color="#808080" stop-opacity="0.12"/>
<stop offset="1" stop-color="#808080" stop-opacity="0.1"/>
</linearGradient>
<linearGradient id="paint6_linear" x1="14828.2" y1="8801.75" x2="14828.2" y2="9553.13" gradientUnits="userSpaceOnUse">
<stop stop-color="#808080" stop-opacity="0.25"/>
<stop offset="0.54" stop-color="#808080" stop-opacity="0.12"/>
<stop offset="1" stop-color="#808080" stop-opacity="0.1"/>
</linearGradient>
<linearGradient id="paint7_linear" x1="14739.3" y1="6466.17" x2="14739.3" y2="7217.56" gradientUnits="userSpaceOnUse">
<stop stop-color="#808080" stop-opacity="0.25"/>
<stop offset="0.54" stop-color="#808080" stop-opacity="0.12"/>
<stop offset="1" stop-color="#808080" stop-opacity="0.1"/>
</linearGradient>
<linearGradient id="paint8_linear" x1="15361.3" y1="6301.68" x2="15361.3" y2="7053.07" gradientUnits="userSpaceOnUse">
<stop stop-color="#808080" stop-opacity="0.25"/>
<stop offset="0.54" stop-color="#808080" stop-opacity="0.12"/>
<stop offset="1" stop-color="#808080" stop-opacity="0.1"/>
</linearGradient>
<linearGradient id="paint9_linear" x1="12738.9" y1="5423.21" x2="12738.9" y2="6174.59" gradientUnits="userSpaceOnUse">
<stop stop-color="#808080" stop-opacity="0.25"/>
<stop offset="0.54" stop-color="#808080" stop-opacity="0.12"/>
<stop offset="1" stop-color="#808080" stop-opacity="0.1"/>
</linearGradient>
<linearGradient id="paint10_linear" x1="12827.7" y1="7643.66" x2="12827.7" y2="8395.04" gradientUnits="userSpaceOnUse">
<stop stop-color="#808080" stop-opacity="0.25"/>
<stop offset="0.54" stop-color="#808080" stop-opacity="0.12"/>
<stop offset="1" stop-color="#808080" stop-opacity="0.1"/>
</linearGradient>
<linearGradient id="paint11_linear" x1="10289.8" y1="-35255.8" x2="28968.3" y2="-35255.8" gradientUnits="userSpaceOnUse">
<stop stop-color="#808080" stop-opacity="0.25"/>
<stop offset="0.54" stop-color="#808080" stop-opacity="0.12"/>
<stop offset="1" stop-color="#808080" stop-opacity="0.1"/>
</linearGradient>
<linearGradient id="paint12_linear" x1="4929.22" y1="6466.17" x2="4929.22" y2="7217.56" gradientUnits="userSpaceOnUse">
<stop stop-color="#808080" stop-opacity="0.25"/>
<stop offset="0.54" stop-color="#808080" stop-opacity="0.12"/>
<stop offset="1" stop-color="#808080" stop-opacity="0.1"/>
</linearGradient>
<clipPath id="clip0">
<rect width="427" height="289" fill="white"/>
</clipPath>
</defs>
</svg>
